<?xml version="1.0" encoding="utf-8"?>
<!-- Generator: Adobe Illustrator 18.1.1, SVG Export Plug-In . SVG Version: 6.00 Build 0)  -->
<svg version="1.1" id="Layer_1" xmlns="http://www.w3.org/2000/svg" xmlns:xlink="http://www.w3.org/1999/xlink" x="0px" y="0px"
	 viewBox="0 0 10.8 6.9" enable-background="new 0 0 10.8 6.9" xml:space="preserve">
<path d="M0.1,1.8l5,5c0.1,0.1,0.2,0.1,0.3,0.1c0.1,0,0.2,0,0.3-0.1l5-5c0.1-0.1,0.1-0.2,0.1-0.3c0-0.1,0-0.2-0.1-0.3L9.6,0.1
	C9.5,0,9.4,0,9.3,0C9.1,0,9,0,9,0.1L5.4,3.7L1.8,0.1C1.8,0,1.7,0,1.5,0C1.4,0,1.3,0,1.2,0.1L0.1,1.2C0,1.3,0,1.4,0,1.5
	C0,1.7,0,1.8,0.1,1.8L0.1,1.8z"/>
</svg>
