<?xml version="1.0" encoding="utf-8"?>
<!-- Generator: Adobe Illustrator 18.1.1, SVG Export Plug-In . SVG Version: 6.00 Build 0)  -->
<svg version="1.1" id="Layer_1" xmlns="http://www.w3.org/2000/svg" xmlns:xlink="http://www.w3.org/1999/xlink" x="0px" y="0px"
	 width="10.3px" height="10.3px" viewBox="0 0 10.3 10.3" enable-background="new 0 0 10.3 10.3" xml:space="preserve">
<path d="M2.6,9.6c0.8,0.5,1.6,0.7,2.6,0.7c0.9,0,1.8-0.2,2.6-0.7c0.8-0.5,1.4-1.1,1.9-1.9c0.5-0.8,0.7-1.6,0.7-2.6
	c0-0.9-0.2-1.8-0.7-2.6C9.1,1.8,8.5,1.1,7.7,0.7C6.9,0.2,6.1,0,5.1,0C4.2,0,3.3,0.2,2.6,0.7C1.8,1.1,1.1,1.8,0.7,2.6
	C0.2,3.3,0,4.2,0,5.1c0,0.9,0.2,1.8,0.7,2.6C1.1,8.5,1.8,9.1,2.6,9.6z M1.8,5l0.6-0.6c0.1-0.1,0.2-0.1,0.3-0.1c0.1,0,0.2,0,0.3,0.1
	l1.5,1.5l2.7-2.7C7.4,3.1,7.5,3,7.6,3c0.1,0,0.2,0,0.3,0.1l0.6,0.6c0.1,0.1,0.1,0.2,0.1,0.3c0,0.1,0,0.2-0.1,0.3L4.8,8
	C4.8,8.1,4.7,8.1,4.5,8.1c-0.1,0-0.2,0-0.3-0.1L1.8,5.6C1.7,5.5,1.7,5.4,1.7,5.3C1.7,5.1,1.7,5,1.8,5L1.8,5z"/>
</svg>
