<?xml version="1.0" encoding="utf-8"?>
<!-- Generator: Adobe Illustrator 23.0.2, SVG Export Plug-In . SVG Version: 6.00 Build 0)  -->
<svg version="1.1" id="Capa_1" xmlns="http://www.w3.org/2000/svg" xmlns:xlink="http://www.w3.org/1999/xlink" x="0px" y="0px"
	 viewBox="0 0 48.6 48.6" style="enable-background:new 0 0 48.6 48.6;" xml:space="preserve">
<style type="text/css">
	.st0{fill:#D7D6CB;}
</style>
<g>
	<g>
		<polygon class="st0" points="35.4,10.8 35.5,11.2 34.9,11.3 34.9,12.1 35.5,12.1 36.4,12 36.8,11.4 36.3,11.3 36.1,11 35.7,10.3 
			35.5,9.4 34.8,9.6 34.6,9.9 34.6,10.3 34.9,10.5 		"/>
		<polygon class="st0" points="34.8,11.1 34.8,10.6 34.4,10.4 33.8,10.6 33.4,11.3 33.4,11.8 33.9,11.8 		"/>
		<path class="st0" d="M22.5,13.2l-0.1,0.3h-0.6v0.3h0.2c0,0,0,0.1,0,0.2l0.4,0l0.2-0.2l0.1-0.3l0.3,0l0.1-0.3l-0.3-0.1L22.5,13.2z"
			/>
		<polygon class="st0" points="20.8,13.8 20.8,14.1 21.2,14 21.3,13.7 21,13.5 		"/>
		<path class="st0" d="M48.6,24.1c0-0.7,0-1.4-0.1-2.1c-0.2-2.3-0.8-4.5-1.6-6.6c-0.1-0.2-0.1-0.3-0.2-0.5c-1.1-2.6-2.7-5-4.6-7
			c-0.1-0.1-0.3-0.3-0.4-0.4c-0.4-0.4-0.7-0.7-1.1-1.1C36.3,2.4,30.6,0,24.3,0C18,0,12.2,2.4,7.9,6.4c-1,0.9-1.9,1.9-2.8,3
			C1.9,13.6,0,18.7,0,24.3c0,13.4,10.9,24.3,24.3,24.3c9.4,0,17.6-5.4,21.6-13.3c0.9-1.7,1.5-3.5,2-5.4c0.1-0.5,0.2-1,0.3-1.4
			c0.2-1.4,0.4-2.8,0.4-4.2C48.6,24.2,48.6,24.1,48.6,24.1z M44,14.3l0.1-0.2c0.2,0.4,0.4,0.7,0.5,1.1l-0.2,0L44,15.3V14.3z
			 M40.5,10.1l0-1.1c0.4,0.4,0.8,0.8,1.1,1.3l-0.4,0.7l-1.5,0l-0.1-0.3L40.5,10.1z M11.2,7.4L11.2,7.4l0.5,0l0-0.2h0.8v0.3l-0.2,0.3
			h-1.1L11.2,7.4L11.2,7.4z M12,8.5c0,0,0.5-0.1,0.5-0.1s0,0.5,0,0.5L11.4,9l-0.2-0.2L12,8.5z M45.6,18.1h-1.8l-1.1-0.8l-1.1,0.1
			v0.7h-0.4l-0.4-0.3l-2-0.5v-1.3l-2.5,0.2l-0.8,0.4h-1l-0.5,0l-1.2,0.7v1.3l-2.5,1.8l0.2,0.8h0.5L31,21.8L30.6,22l0,1.9l2.1,2.4
			h0.9l0.1-0.1h1.7l0.5-0.4h0.9l0.5,0.5l1.4,0.1l-0.2,1.9l1.6,2.8l-0.8,1.6l0.1,0.7L40,34v1.8l0.9,1.1v1.5h0.7
			c-4.1,5-10.3,8.2-17.3,8.2C12,46.6,2,36.6,2,24.3c0-3.1,0.6-6,1.8-8.7v-0.7l0.8-1c0.3-0.5,0.6-1,0.9-1.5l0,0.4l-0.9,1.1
			C4.3,14.5,4,15,3.8,15.6v1.3l0.9,0.4v1.8l0.9,1.5l0.7,0.1l0.1-0.5l-0.9-1.3l-0.2-1.3h0.5l0.2,1.3l1.2,1.8L7,21.3l0.8,1.2L9.8,23
			v-0.3l0.8,0.1l-0.1,0.6l0.6,0.1l0.9,0.3l1.3,1.5l1.7,0.1l0.2,1.4l-1.2,0.8L14,28.8l-0.2,0.8l1.7,2.1l0.1,0.7c0,0,0.6,0.2,0.7,0.2
			c0.1,0,1.4,1,1.4,1v3.8l0.5,0.1l-0.3,1.8l0.8,1L18.5,42l1,1.8l1.3,1.2l1.3,0l0.1-0.4l-1-0.8l0.1-0.4l0.2-0.5l0-0.5l-0.7,0
			l-0.3-0.4l0.5-0.5l0.1-0.4l-0.6-0.2l0-0.4l0.9-0.1l1.3-0.6l0.4-0.8l1.4-1.8l-0.3-1.4l0.4-0.7l1.3,0l0.9-0.7l0.3-2.7l1-1.2l0.2-0.8
			l-0.9-0.3l-0.6-0.9l-2,0l-1.6-0.6l-0.1-1.1l-0.5-0.9l-1.4,0l-0.8-1.3l-0.7-0.4l0,0.4l-1.3,0.1L18,23.9l-1.4-0.3l-1.1,1.3l-1.8-0.3
			l-0.1-2l-1.3-0.2l0.5-1l-0.1-0.6L10.9,22l-1.1-0.1L9.5,21l0.2-0.9l0.6-1.1l1.4-0.7l2.6,0l0,0.8l0.9,0.4l-0.1-1.4l0.7-0.7l1.4-0.9
			l0.1-0.6l1.4-1.4l1.5-0.8L20,13.7l1-0.9l0.4,0.1l0.2,0.2l0.4-0.4l0.1,0l-0.4-0.1l-0.4-0.1V12l0.2-0.2h0.5l0.2,0.1l0.2,0.4l0.2,0v0
			l0.1,0l0.7-0.1l0.1-0.3l0.4,0.1v0.4l-0.4,0.2h0l0.1,0.4l1.2,0.4c0,0,0,0,0,0l0.3,0l0-0.5l-1-0.4L24,12.1l0.8-0.3l0-0.8L24,10.5
			l-0.1-1.3l-1.2,0.6h-0.4l0.1-1l-1.6-0.4l-0.7,0.5v1.5L19,10.7l-0.5,1L18,11.8v-1.3l-1.1-0.2L16.3,10l-0.2-0.8l2-1.2l1-0.3l0.1,0.7
			l0.5,0l0-0.3L20.3,8l0-0.1l-0.2-0.1L20,7.4l0.7-0.1l0.4-0.4l0,0l0,0l0.1-0.1l1.5-0.2l0.6,0.6L21.7,8l2.2,0.5l0.3-0.7h0.9l0.3-0.6
			L24.8,7V6.2l-2.1-0.9l-1.4,0.2l-0.8,0.4l0.1,1l-0.9-0.1l-0.1-0.6l0.8-0.7l-1.5-0.1l-0.4,0.1L18.2,6l0.6,0.1l-0.1,0.6l-0.9,0.1
			l-0.1,0.4l-1.4,0c0,0,0-0.8-0.1-0.8s1.1,0,1.1,0L18,5.5l-0.4-0.2L17,5.9l-1-0.1L15.4,5h-1.3l-1.3,1H14l0.1,0.4l-0.3,0.3l1.3,0
			l0.2,0.5l-1.5-0.1l-0.1-0.4l-0.9-0.2l-0.5-0.3l-1.1,0C14.9,3.6,19.4,2,24.3,2C30,2,35.1,4.1,39,7.6L38.8,8l-1,0.4l-0.4,0.5
			l0.1,0.5l0.5,0.1l0.3,0.8l0.9-0.4l0.2,1.1h-0.3l-0.8-0.1l-0.8,0.1l-0.8,1.1l-1.2,0.2l-0.2,1l0.5,0.1l-0.1,0.6l-1.1-0.2l-1.1,0.2
			l-0.2,0.6l0.2,1.2l0.6,0.3l1,0l0.7-0.1l0.2-0.6l1.1-1.4l0.7,0.1l0.7-0.6l0.1,0.5l1.7,1.2l-0.2,0.3l-0.8,0l0.3,0.4l0.5,0.1l0.6-0.2
			l0-0.7l0.3-0.1l-0.2-0.2l-1.2-0.6l-0.3-0.9h1l0.3,0.3l0.8,0.7l0,0.9l0.9,0.9l0.3-1.3l0.6-0.3l0.1,1l0.6,0.6l1.2,0
			c0.2,0.6,0.4,1.2,0.6,1.8L45.6,18.1z M13.3,11l0.6-0.3l0.5,0.1l-0.2,0.7l-0.6,0.2L13.3,11z M16.4,12.7v0.5H15L14.5,13l0.1-0.3
			l0.6-0.3h0.9v0.3H16.4z M17,13.4v0.4L16.6,14l-0.4,0.1c0,0,0-0.7,0-0.7H17z M16.6,13.2v-0.5l0.5,0.4L16.6,13.2z M16.8,14.2v0.4
			L16.5,15h-0.7l0.1-0.5l0.3,0l0.1-0.2L16.8,14.2z M15,13.4h0.7l-0.9,1.3l-0.4-0.2l0.1-0.6L15,13.4z M18.1,14.1v0.4h-0.7l-0.2-0.3
			v-0.4h0.1L18.1,14.1z M17.4,13.5l0.2-0.2l0.3,0.2l-0.3,0.2L17.4,13.5z M46,19.3L46,19.3c0.1,0,0.1,0.2,0.2,0.3L46,19.3z"/>
		<path class="st0" d="M3.8,14.9v0.7C4,15,4.3,14.5,4.6,13.9L3.8,14.9z"/>
	</g>
</g>
</svg>
