<?xml version="1.0" encoding="UTF-8"?>
<!DOCTYPE svg PUBLIC "-//W3C//DTD SVG 1.1//EN" "http://www.w3.org/Graphics/SVG/1.1/DTD/svg11.dtd">
<svg version="1.1" xmlns="http://www.w3.org/2000/svg" xmlns:xlink="http://www.w3.org/1999/xlink" x="0" y="0" width="32" height="32" viewBox="0, 0, 32, 32">
  <g id="Layer_1">
    <g>
      <path d="M3.692,0 L28.308,0 C30.347,0 32,2.558 32,5.714 L32,26.286 C32,29.442 30.347,32 28.308,32 L3.692,32 C1.653,32 0,29.442 0,26.286 L0,5.714 C0,2.558 1.653,0 3.692,0 z" fill="#FFFFFF"/>
      <path d="M28.308,0 C30.347,0 32,2.558 32,5.714 L32,26.286 C32,29.442 30.347,32 28.308,32 L3.692,32 C1.653,32 0,29.442 0,26.286 L0,5.714 C0,2.558 1.653,0 3.692,0 L28.308,0 z M28.308,1 L3.692,1 C2.32,1 1,3.043 1,5.714 L1,26.286 C1,28.957 2.32,31 3.692,31 L28.308,31 C29.68,31 31,28.957 31,26.286 L31,5.714 C31,3.043 29.68,1 28.308,1 z" fill="#686868"/>
    </g>
    <path d="M8.808,6.5 L24.192,6.5 C25.467,6.5 26.5,8.099 26.5,10.071 L26.5,22.929 C26.5,24.901 25.467,26.5 24.192,26.5 L8.808,26.5 C7.533,26.5 6.5,24.901 6.5,22.929 L6.5,10.071 C6.5,8.099 7.533,6.5 8.808,6.5 z" fill-opacity="0" stroke="#515151" stroke-width="2" stroke-dasharray="6,4"/>
  </g>
</svg>
