<svg width="24" height="24" viewBox="0 0 24 24" xmlns="http://www.w3.org/2000/svg">
    <g fill="none" fill-rule="evenodd">
        <path d="M0 0h24v24H0z"/>
        <path class="icon" d="M12.003 1a7.3 7.3 0 0 1 4.147 1.284l.074.053a6.004 6.004 0 0 0-2.01 3.071 3.667 3.667 0 1 0 .83 4.974 6.008 6.008 0 0 0 3.107 2.328c-1.301 2.528-3.489 5.206-5.582 9.446l-.232.477c-.234.49-.433.49-.667 0-3.333-6.966-7-9.804-7-14.3A7.333 7.333 0 0 1 12.003 1zM24 6v2h-8V6h8z" fill="#177991" fill-rule="nonzero"/>
    </g>
</svg>
