<?xml version="1.0" encoding="UTF-8"?>
<svg xmlns="http://www.w3.org/2000/svg" viewBox="0 0 208.45 97">
  <path d="M64.61,94.71c-.48,0-.95-.15-1.35-.44L3.22,50.34c-.59-.43-.94-1.11-.94-1.84s.35-1.41.94-1.84L63.26,2.72c.4-.29.87-.44,1.35-.44.35,0,.71.08,1.03.25.77.39,1.25,1.18,1.25,2.04v22.82h46.15c1.26,0,2.28,1.02,2.28,2.28v37.65c0,1.26-1.02,2.28-2.28,2.28h-46.15v22.82c0,.86-.48,1.65-1.25,2.04-.33.17-.68.25-1.03.25Z" style="stroke-width:0;"/>
  <path d="M64.61,4.57v25.1h48.44v37.65h-48.44v25.1L4.57,48.5,64.61,4.57M64.61,0c-.95,0-1.9.3-2.7.88L1.87,44.81c-1.18.86-1.87,2.23-1.87,3.69s.69,2.83,1.87,3.69l60.04,43.93c.8.58,1.75.88,2.7.88.71,0,1.41-.16,2.07-.49,1.53-.78,2.5-2.35,2.5-4.07v-20.54h43.87c2.52,0,4.57-2.05,4.57-4.57V29.67c0-2.52-2.05-4.57-4.57-4.57h-43.87V4.57c0-1.72-.97-3.29-2.5-4.07-.65-.33-1.36-.49-2.07-.49h0Z" style="fill:#999; stroke-width:0;"/>
  <rect x="132.88" y="78.38" width="17.97" height="17.97" style="fill:#999; stroke-width:0;"/>
  <rect x="161.68" y="78.38" width="17.97" height="17.97" style="fill:#999; stroke-width:0;"/>
  <rect x="190.48" y="78.38" width="17.97" height="17.97" style="fill:#999; stroke-width:0;"/>
</svg>
