<?xml version="1.0" encoding="UTF-8"?>
<svg xmlns="http://www.w3.org/2000/svg" viewBox="0 0 208.45 97">
  <path d="M143.84,94.71c-.35,0-.71-.08-1.03-.25-.77-.39-1.25-1.18-1.25-2.04v-22.82h-46.15c-1.26,0-2.28-1.02-2.28-2.28V29.67c0-.61.24-1.19.67-1.61.43-.43,1.01-.67,1.61-.67h46.15s0-22.82,0-22.82c0-.86.48-1.65,1.25-2.04.33-.17.68-.25,1.03-.25.48,0,.95.15,1.35.44l60.04,43.93c.59.43.94,1.11.94,1.84s-.35,1.41-.94,1.84l-60.04,43.93c-.4.29-.87.44-1.35.44Z" style="stroke-width:0;"/>
  <path d="M143.84,4.57l60.04,43.93-60.04,43.93v-25.1h-48.44V29.67h48.44V4.57M143.84,0c-.71,0-1.41.16-2.07.49-1.53.78-2.5,2.35-2.5,4.07v20.54h-43.87c-2.52,0-4.57,2.05-4.57,4.57v37.65c0,2.52,2.05,4.57,4.57,4.57h43.87v20.54c0,1.72.97,3.29,2.5,4.07.65.33,1.36.49,2.07.49.95,0,1.9-.3,2.7-.88l60.04-43.93c1.18-.86,1.87-2.23,1.87-3.69s-.69-2.83-1.87-3.69L146.54.88c-.8-.58-1.75-.88-2.7-.88h0Z" style="fill:#999; stroke-width:0;"/>
  <rect x="0" y="78.38" width="17.97" height="17.97" style="fill:#999; stroke-width:0;"/>
  <rect x="28.8" y="78.38" width="17.97" height="17.97" style="fill:#999; stroke-width:0;"/>
  <rect x="57.6" y="78.38" width="17.97" height="17.97" style="fill:#999; stroke-width:0;"/>
</svg>
