<svg viewBox="0 0 24 24" xmlns="http://www.w3.org/2000/svg">
    <g transform="translate(2 2)" fill="none" fill-rule="evenodd">
        <path d="M0 0h20v20H0V0z"/>
        <circle cx="10" cy="10" r="10"/>
        <path d="M10.833 5.833H9.167v3.334H5.833v1.666h3.334v3.334h1.666v-3.334h3.334V9.167h-3.334V5.833zM10 1.667A8.336 8.336 0 0 0 1.667 10c0 4.6 3.733 8.333 8.333 8.333S18.333 14.6 18.333 10 14.6 1.667 10 1.667zm0 15A6.676 6.676 0 0 1 3.333 10 6.676 6.676 0 0 1 10 3.333 6.676 6.676 0 0 1 16.667 10 6.676 6.676 0 0 1 10 16.667z" fill="#0481A0"/>
    </g>
</svg>
