<?xml version="1.0" encoding="UTF-8"?>
<!DOCTYPE svg PUBLIC "-//W3C//DTD SVG 1.1//EN" "http://www.w3.org/Graphics/SVG/1.1/DTD/svg11.dtd">
<svg version="1.1" xmlns="http://www.w3.org/2000/svg" xmlns:xlink="http://www.w3.org/1999/xlink" x="0" y="0" width="150" height="148" viewBox="0, 0, 150, 148">
  <g id="Layer_1">
    <path d="M10,9 L140,9 L140,139 L10,139 L10,9 z" fill="#000000" fill-opacity="0.013"/>
    <g>
      <path d="M77,139 C42.758,139 15,111.689 15,78 C15,44.311 42.758,17 77,17 C111.242,17 139,44.311 139,78 C139,111.689 111.242,139 77,139 z" fill="#BEDFE0"/>
      <path d="M77,139 C42.758,139 15,111.689 15,78 C15,44.311 42.758,17 77,17 C111.242,17 139,44.311 139,78 C139,111.689 111.242,139 77,139 z" fill-opacity="0" stroke="#5F9FA0" stroke-width="6"/>
    </g>
    <g>
      <path d="M77,120.284 C52.712,120.284 33.023,101.353 33.023,78 C33.023,54.647 52.712,35.716 77,35.716 C101.288,35.716 120.977,54.647 120.977,78 C120.977,101.353 101.288,120.284 77,120.284 z" fill="#609FA0"/>
      <path d="M77,120.284 C52.712,120.284 33.023,101.353 33.023,78 C33.023,54.647 52.712,35.716 77,35.716 C101.288,35.716 120.977,54.647 120.977,78 C120.977,101.353 101.288,120.284 77,120.284 z" fill-opacity="0" stroke="#FFFFFF" stroke-width="6"/>
    </g>
  </g>
</svg>
