<?xml version="1.0" encoding="UTF-8"?>
<!DOCTYPE svg PUBLIC "-//W3C//DTD SVG 1.1//EN" "http://www.w3.org/Graphics/SVG/1.1/DTD/svg11.dtd">
<svg version="1.1" xmlns="http://www.w3.org/2000/svg" xmlns:xlink="http://www.w3.org/1999/xlink" x="0" y="0" width="136" height="136" viewBox="0, 0, 136, 136">
  <g id="Layer_1">
    <path d="M3,3 L133,3 L133,133 L3,133 L3,3 z" fill="#000000" fill-opacity="0.013"/>
    <g>
      <path d="M70,133 C35.758,133 8,105.689 8,72 C8,38.311 35.758,11 70,11 C104.242,11 132,38.311 132,72 C132,105.689 104.242,133 70,133 z" fill="#BEDFE0"/>
      <path d="M70,133 C35.758,133 8,105.689 8,72 C8,38.311 35.758,11 70,11 C104.242,11 132,38.311 132,72 C132,105.689 104.242,133 70,133 z" fill-opacity="0" stroke="#5F9FA0" stroke-width="6"/>
    </g>
    <g>
      <path d="M70,114.284 C45.712,114.284 26.023,95.353 26.023,72 C26.023,48.647 45.712,29.716 70,29.716 C94.288,29.716 113.977,48.647 113.977,72 C113.977,95.353 94.288,114.284 70,114.284 z" fill="#BEDFE0"/>
      <path d="M70,114.284 C45.712,114.284 26.023,95.353 26.023,72 C26.023,48.647 45.712,29.716 70,29.716 C94.288,29.716 113.977,48.647 113.977,72 C113.977,95.353 94.288,114.284 70,114.284 z" fill-opacity="0" stroke="#FFFFFF" stroke-width="6"/>
    </g>
  </g>
</svg>
