<?xml version="1.0" encoding="utf-8"?>
<svg version="1.1" id="Layer_1" x="0px" y="0px" width="32px" height="29px" viewBox="-583 1486 32 29" enable-background="new -583 1486 32 29" xmlns="http://www.w3.org/2000/svg">
  <g id="paint_brush">
    <path fill="#FFFF00" d="M-571.7,1502.8l4.9,4.8c0.7-0.8,1.7-2.2,3-3.7l-4.3-4.4C-569.6,1500.9-570.9,1502.1-571.7,1502.8z M-577.7,1508.9 c0,5-5.3,4.3-5.3,4.3s12.6,6.3,15.4-4.7l0,0l0,0l-5-4.9C-572.9,1503.6-577.7,1504.1-577.7,1508.9z M-551.1,1486.1 c-0.6-0.6-3.2,0.9-6.1,3.6c-1.7,1.5-6.3,5.7-10,9l4.1,4.3c3.2-4,7.3-9.1,8.8-11C-551.7,1488.8-550.7,1486.5-551.1,1486.1z"/>
  </g>
</svg>