<svg viewBox="0 0 24 24" xmlns="http://www.w3.org/2000/svg">
    <g fill="none">
        <path d="M0 0h24v24H0z"/>
        <path d="M5 15a2.893 2.893 0 0 1-2.125-.875A2.893 2.893 0 0 1 2 12c0-.833.292-1.542.875-2.125A2.893 2.893 0 0 1 5 9h14c.833 0 1.542.292 2.125.875S22 11.167 22 12s-.292 1.542-.875 2.125A2.893 2.893 0 0 1 19 15H5z" fill="#D3F4FF" fill-rule="evenodd"/>
        <path d="M5 15a2.893 2.893 0 0 1-2.125-.875A2.893 2.893 0 0 1 2 12c0-.833.292-1.542.875-2.125A2.893 2.893 0 0 1 5 9h14c.833 0 1.542.292 2.125.875S22 11.167 22 12s-.292 1.542-.875 2.125A2.893 2.893 0 0 1 19 15H5zm9-2h5c.283 0 .52-.096.712-.287A.968.968 0 0 0 20 12a.968.968 0 0 0-.288-.713A.968.968 0 0 0 19 11h-5v2z" fill="#006C8E"/>
    </g>
</svg>
