<svg viewBox="0 0 24 24" xmlns="http://www.w3.org/2000/svg">
    <g fill="none">
        <path d="M0 0h24v24H0z"/>
        <path d="M22.5 19.5a2 2 0 0 1-2 2h-17a2 2 0 0 1-2-2v-15a2 2 0 0 1 2-2h17a2 2 0 0 1 2 2v15z" fill="#006C8E"/>
        <path d="M3.5 4.5h17v2.25h-17V4.5zm0 4.25H9V11H3.5V8.75zm0 4.25H9v2.25H3.5V13zm0 4.25H9v2.25H3.5v-2.25zm7.5 0h3.75v2.25H11v-2.25zm5.75 0h3.75v2.25h-3.75v-2.25zM11 13h3.75v2.25H11V13zm5.75 0h3.75v2.25h-3.75V13zM11 8.75h3.75V11H11V8.75zm5.75 0h3.75V11h-3.75V8.75z" fill="#D3F4FF"/>
    </g>
</svg>
