<?xml version="1.0" encoding="utf-8"?>
<!-- Generator: Adobe Illustrator 18.1.1, SVG Export Plug-In . SVG Version: 6.00 Build 0)  -->
<svg version="1.1" id="Layer_1" xmlns="http://www.w3.org/2000/svg" xmlns:xlink="http://www.w3.org/1999/xlink" x="0px" y="0px"
	 width="10.3px" height="10.3px" viewBox="0 0 10.3 10.3" enable-background="new 0 0 10.3 10.3" xml:space="preserve">
<path d="M9.6,2.6C9.1,1.8,8.5,1.1,7.7,0.7C6.9,0.2,6.1,0,5.1,0C4.2,0,3.3,0.2,2.6,0.7C1.8,1.1,1.1,1.8,0.7,2.6C0.2,3.3,0,4.2,0,5.1
	c0,0.9,0.2,1.8,0.7,2.6c0.5,0.8,1.1,1.4,1.9,1.9c0.8,0.5,1.6,0.7,2.6,0.7c0.9,0,1.8-0.2,2.6-0.7c0.8-0.5,1.4-1.1,1.9-1.9
	c0.5-0.8,0.7-1.6,0.7-2.6C10.3,4.2,10.1,3.3,9.6,2.6z M6,2.4c0,0.1,0,0.1-0.1,0.2c0,0-0.1,0.1-0.2,0.1H4.5c-0.1,0-0.1,0-0.2-0.1
	c0,0-0.1-0.1-0.1-0.2V1.3c0-0.1,0-0.1,0.1-0.2c0,0,0.1-0.1,0.2-0.1h1.3c0.1,0,0.1,0,0.2,0.1C6,1.2,6,1.2,6,1.3 M6.9,8.4
	c0,0.1,0,0.1-0.1,0.2c0,0-0.1,0.1-0.2,0.1h-3c-0.1,0-0.1,0-0.2-0.1c0,0-0.1-0.1-0.1-0.2V7.3c0-0.1,0-0.1,0.1-0.2
	c0,0,0.1-0.1,0.2-0.1h0.6V4.9H3.6c-0.1,0-0.1,0-0.2-0.1c0,0-0.1-0.1-0.1-0.2V3.6c0-0.1,0-0.1,0.1-0.2c0,0,0.1-0.1,0.2-0.1h2.1
	c0.1,0,0.1,0,0.2,0.1C6,3.5,6,3.6,6,3.6v3.4h0.6c0.1,0,0.1,0,0.2,0.1c0,0,0.1,0.1,0.1,0.2V8.4z"/>
</svg>
