<svg viewBox="0 0 28 28" style="fill: white; margin: 2px;" version="1.1" xmlns="http://www.w3.org/2000/svg"><path d="M16.5,0 C16.7761424,0 17,0.223857625 17,0.5 L17,2 C17,2.27614237 16.7761424,2.5 16.5,2.5 L14.9,2.5 L14.9002436,4.03325983 C21.1071873,4.49360791 26,9.67541514 26,16 C26,22.627417 20.627417,28 14,28 C7.372583,28 2,22.627417 2,16 C2,9.6750764 6.89333678,4.49305285 13.1007538,4.0331859 L13.1,2.5 L11.5,2.5 C11.2238576,2.5 11,2.27614237 11,2 L11,0.5 C11,0.223857625 11.2238576,0 11.5,0 L16.5,0 Z M14,5.75 C8.33908131,5.75 3.75,10.3390813 3.75,16 C3.75,21.6609187 8.33908131,26.25 14,26.25 C19.6609187,26.25 24.25,21.6609187 24.25,16 C24.25,10.3390813 19.6609187,5.75 14,5.75 Z M14.5496273,22.9787396 L14.55,24.5 L13.45,24.5 L13.4493689,22.9786615 C13.6310544,22.992799 13.8146862,23 14,23 C14.1849725,23 14.3682693,22.9928255 14.5496273,22.9787396 Z M17.9662184,21.7687274 L18.726314,23.0862159 L17.773686,23.6362159 L17.0137685,22.3198097 C17.2356724,22.2137987 17.4511193,22.0964447 17.6593587,21.968498 L17.9662184,21.7687274 Z M10.0337816,21.7687274 C10.335048,21.9762549 10.6533756,22.1607932 10.9862315,22.3198097 L10.226314,23.6362159 L9.27368603,23.0862159 L10.0337816,21.7687274 Z M20.3198097,19.0137685 L21.6362159,19.773686 L21.0862159,20.726314 L19.7687274,19.9662184 C19.9762549,19.664952 20.1607932,19.3466244 20.3198097,19.0137685 Z M7.68019034,19.0137685 C7.7862013,19.2356724 7.90355533,19.4511193 8.03150197,19.6593587 L8.23127259,19.9662184 L6.91378407,20.726314 L6.36378407,19.773686 L7.68019034,19.0137685 Z M19.6568542,10.3431458 L17.4602285,13.428516 L16.4590978,14.8153669 C16.2238141,15.1387566 16.013878,15.4249967 15.8292895,15.6740871 L15.4250821,16.2135565 C15.152239,16.5724852 14.9718394,16.7959276 14.8838835,16.8838835 C14.3957281,17.3720388 13.6042719,17.3720388 13.1161165,16.8838835 C12.6279612,16.3957281 12.6279612,15.6042719 13.1161165,15.1161165 C13.2040724,15.0281606 13.4275148,14.847761 13.7864435,14.5749179 L14.7997447,13.8218049 L15.9029251,13.0206805 C16.8939298,12.3057774 18.1452395,11.4132659 19.6568542,10.3431458 Z M7.02126042,15.4503727 C7.00717451,15.6317307 7,15.8150275 7,16 C7,16.1853138 7.007201,16.3689456 7.02133846,16.5506311 L5.5,16.55 L5.5,15.45 L7.02126042,15.4503727 Z M20.9786615,15.4493689 L22.5,15.45 L22.5,16.55 L20.9787396,16.5496273 C20.9928255,16.3682693 21,16.1849725 21,16 L20.9946323,15.7233238 L20.9786615,15.4493689 Z M6.91378407,11.273686 L8.23127259,12.0337816 C8.02374512,12.335048 7.83920678,12.6533756 7.68019034,12.9862315 L6.36378407,12.226314 L6.91378407,11.273686 Z M21.0862159,11.273686 L21.6362159,12.226314 L20.3198097,12.9862315 C20.1607932,12.6533756 19.9762549,12.335048 19.7687274,12.0337816 L21.0862159,11.273686 Z M10.226314,8.36378407 L10.9862315,9.68019034 C10.6533756,9.83920678 10.335048,10.0237451 10.0337816,10.2312726 L9.27368603,8.91378407 L10.226314,8.36378407 Z M17.773686,8.36378407 L18.726314,8.91378407 L17.9662184,10.2312726 C17.664952,10.0237451 17.3466244,9.83920678 17.0137685,9.68019034 L17.773686,8.36378407 Z M14.55,7.5 L14.5496273,9.02126042 C14.3682693,9.00717451 14.1849725,9 14,9 C13.8146862,9 13.6310544,9.007201 13.4493689,9.02133846 L13.45,7.5 L14.55,7.5 Z M4.63083515,4.50951481 L5.74432636,5.62286451 C4.95983597,6.24780463 4.24780463,6.95983597 3.62286451,7.74432636 L2.50951481,6.63083515 C2.31425266,6.435573 2.31425266,6.11899051 2.50951481,5.92372837 L3.92372837,4.50951481 C4.11899051,4.31425266 4.435573,4.31425266 4.63083515,4.50951481 Z" id="Stopwatch"></path>
</svg>
