<?xml version="1.0" encoding="utf-8"?>
<!-- Generator: Adobe Illustrator 19.0.0, SVG Export Plug-In . SVG Version: 6.00 Build 0)  -->
<svg version="1.1" id="Layer_1" xmlns="http://www.w3.org/2000/svg" xmlns:xlink="http://www.w3.org/1999/xlink" x="0px" y="0px"
	 width="20px" height="20px" viewBox="0 0 20 20" enable-background="new 0 0 20 20" xml:space="preserve">
<g id="XMLID_2_">
	<path id="XMLID_22_" fill="none" d="M18.4,9h-1h-0.8l-0.2-0.7c-0.1-0.5-0.4-1.1-0.6-1.5l-0.4-0.7l0.5-0.5l0.9-0.9
		c0.1-0.1,0.2-0.3,0.2-0.4c0-0.2-0.1-0.3-0.2-0.4l-0.6-0.6C16.2,3.1,16,3,15.9,3s-0.3,0.1-0.4,0.2l-0.9,0.9L14,4.7l-0.7-0.4
		c-0.5-0.3-1-0.5-1.6-0.7L11,3.4V2.7V1.6C11,1.3,10.7,1,10.4,1H9.6C9.3,1,9,1.3,9,1.6v1.1v0.8L8.3,3.6C7.7,3.8,7.2,4,6.7,4.3L6,4.7
		L5.5,4.1L4.5,3.2C4.4,3.1,4.3,3,4.1,3C4,3,3.8,3.1,3.7,3.2L3.1,3.8C2.9,4,2.9,4.4,3.1,4.6l0.9,0.9l0.5,0.5L4.2,6.8
		C4,7.3,3.8,7.8,3.6,8.3L3.4,9H2.6h-1C1.3,9,1,9.3,1,9.6v0.8c0,0.3,0.3,0.6,0.6,0.6h1.1h0.8l0.2,0.7c0.1,0.5,0.4,1.1,0.6,1.5L4.6,14
		l-0.5,0.5l-1,1c-0.2,0.2-0.2,0.6,0,0.9l0.6,0.6C3.8,17,4,17.1,4.1,17.1c0.2,0,0.3-0.1,0.4-0.2l1-1l0.5-0.5l0.7,0.4
		c0.5,0.3,1,0.5,1.5,0.6L9,16.6v0.8v1C9,18.7,9.3,19,9.6,19h0.8c0.3,0,0.6-0.3,0.6-0.6v-1v-0.8l0.7-0.2c0.5-0.1,1.1-0.4,1.5-0.6
		l0.7-0.4l0.5,0.5l1,1c0.1,0.1,0.3,0.2,0.4,0.2s0.3-0.1,0.4-0.2l0.6-0.6c0.2-0.2,0.2-0.6,0-0.9l-1-1L15.4,14l0.4-0.7
		c0.3-0.5,0.5-1,0.6-1.5l0.2-0.7h0.8h1.1c0.3,0,0.6-0.3,0.6-0.6V9.6C19,9.3,18.7,9,18.4,9z M10,13.3c-1.8,0-3.3-1.5-3.3-3.3
		S8.2,6.7,10,6.7c1.8,0,3.3,1.5,3.3,3.3S11.8,13.3,10,13.3z"/>
	<circle id="XMLID_23_" fill="none" cx="10" cy="10" r="2.3"/>
	<path id="XMLID_26_" fill="#102633" d="M18.4,8h-1c-0.2-0.6-0.4-1.2-0.7-1.7l0.9-0.9c0.6-0.6,0.6-1.6,0-2.3L17,2.5
		C16.7,2.2,16.3,2,15.9,2c-0.4,0-0.8,0.2-1.1,0.5l-0.9,0.9c-0.6-0.3-1.2-0.6-1.8-0.8V1.6C12,0.7,11.3,0,10.4,0H9.6
		C8.7,0,8,0.7,8,1.6v1.1C7.4,2.9,6.7,3.1,6.2,3.4L5.3,2.5C4.9,2.2,4.5,2,4.1,2C3.7,2,3.3,2.2,3,2.5L2.4,3.1c-0.6,0.6-0.6,1.6,0,2.3
		l0.9,0.9C3.1,6.8,2.8,7.4,2.6,8h-1C0.7,8,0,8.8,0,9.6v0.8c0,0.9,0.7,1.6,1.6,1.6h1.1c0.2,0.6,0.4,1.2,0.7,1.8l-1,1
		c-0.6,0.6-0.6,1.6,0,2.3L3,17.6c0.3,0.3,0.7,0.5,1.1,0.5c0.4,0,0.8-0.2,1.1-0.5l1-1C6.8,17,7.4,17.2,8,17.4v1C8,19.3,8.7,20,9.6,20
		h0.8c0.9,0,1.6-0.7,1.6-1.6v-1c0.6-0.2,1.2-0.4,1.8-0.7l1,1c0.3,0.3,0.7,0.5,1.1,0.5c0.4,0,0.8-0.2,1.1-0.5l0.6-0.6
		c0.6-0.6,0.6-1.6,0-2.3l-1-1c0.3-0.5,0.6-1.1,0.7-1.8h1.1c0.9,0,1.6-0.7,1.6-1.6V9.6C20,8.8,19.3,8,18.4,8z M19,10.5
		c0,0.3-0.3,0.6-0.6,0.6h-1.1h-0.8l-0.2,0.7c-0.1,0.5-0.4,1.1-0.6,1.5L15.4,14l0.5,0.5l1,1c0.2,0.2,0.2,0.6,0,0.9l-0.6,0.6
		c-0.1,0.1-0.3,0.2-0.4,0.2s-0.3-0.1-0.4-0.2l-1-1l-0.5-0.5l-0.7,0.4c-0.5,0.3-1,0.5-1.5,0.6L11,16.6v0.8v1c0,0.3-0.3,0.6-0.6,0.6
		H9.6C9.3,19,9,18.7,9,18.4v-1v-0.8l-0.7-0.2c-0.5-0.1-1.1-0.4-1.5-0.6l-0.7-0.4l-0.5,0.5l-1,1c-0.1,0.1-0.3,0.2-0.4,0.2
		c-0.2,0-0.3-0.1-0.4-0.2l-0.6-0.6c-0.2-0.2-0.2-0.6,0-0.9l1-1L4.6,14l-0.4-0.7c-0.3-0.5-0.5-1-0.6-1.5l-0.2-0.7H2.7H1.6
		c-0.3,0-0.6-0.3-0.6-0.6V9.6C1,9.3,1.3,9,1.6,9h1h0.8l0.2-0.7C3.8,7.8,4,7.3,4.2,6.8l0.4-0.7L4.1,5.6L3.1,4.6
		C2.9,4.4,2.9,4,3.1,3.8l0.6-0.6C3.8,3.1,4,3,4.1,3c0.2,0,0.3,0.1,0.4,0.2l0.9,0.9L6,4.7l0.7-0.4c0.5-0.3,1-0.5,1.6-0.7L9,3.4V2.7
		V1.6C9,1.3,9.3,1,9.6,1h0.8C10.7,1,11,1.3,11,1.6v1.1v0.8l0.7,0.2c0.6,0.2,1.1,0.4,1.6,0.7L14,4.7l0.5-0.5l0.9-0.9
		C15.6,3.1,15.7,3,15.9,3s0.3,0.1,0.4,0.2l0.6,0.6c0.1,0.1,0.2,0.3,0.2,0.4c0,0.2-0.1,0.3-0.2,0.4l-0.9,0.9l-0.5,0.5l0.4,0.7
		c0.3,0.5,0.5,1,0.6,1.5L16.6,9h0.8h1C18.7,9,19,9.3,19,9.6V10.5z"/>
	<path id="XMLID_29_" fill="#102633" d="M10,6.7c-1.8,0-3.3,1.5-3.3,3.3s1.5,3.3,3.3,3.3c1.8,0,3.3-1.5,3.3-3.3S11.8,6.7,10,6.7z
		 M10,12.3c-1.3,0-2.3-1-2.3-2.3s1-2.3,2.3-2.3c1.3,0,2.3,1,2.3,2.3S11.3,12.3,10,12.3z"/>
</g>
</svg>
