<svg viewBox="0 0 24 24" xmlns="http://www.w3.org/2000/svg">
    <g fill="none">
        <path d="M0 0h24v24H0z"/>
        <path d="M19.25 15a3.25 3.25 0 0 1 0 6.5H4.75a3.25 3.25 0 0 1 0-6.5h14.5z" fill="#006C8E"/>
        <path d="M19.25 17H13v2.5h6.25a1.25 1.25 0 0 0 0-2.5z" fill="#D3F4FF"/>
        <path d="M11 17H4.75a1.25 1.25 0 0 0 0 2.5H11V17z" fill="#8DDAF2"/>
        <path d="M15 2.5a2 2 0 0 1 2 2v6a2 2 0 0 1-2 2h-1L12 15l-2-2.5H9a2 2 0 0 1-2-2v-6a2 2 0 0 1 2-2h6z" fill="#006C8E"/>
        <path fill="#D3F4FF" d="M15 4.5H9v6h1.961L12 11.798l1.039-1.298H15z"/>
    </g>
</svg>
