<svg viewBox="0 0 24 24" xmlns="http://www.w3.org/2000/svg">
    <g fill="none">
        <path d="M0 0h24v24H0z"/>
        <path d="M18 15v-2h2c.283 0 .52.096.712.287.192.192.288.43.288.713s-.096.52-.288.713A.968.968 0 0 1 20 15h-2zm0 4v-2h2c.283 0 .52.096.712.288.192.191.288.429.288.712s-.096.52-.288.712A.968.968 0 0 1 20 19h-2zm-4 1c-.55 0-1.02-.196-1.412-.587A1.926 1.926 0 0 1 12 18h-2v-4h2c0-.55.196-1.02.588-1.412A1.926 1.926 0 0 1 14 12h3v8h-3zm-7-3c-1.1 0-2.042-.392-2.825-1.175C3.392 15.042 3 14.1 3 13s.392-2.042 1.175-2.825C4.958 9.392 5.9 9 7 9h1.5c.417 0 .77-.146 1.063-.438.291-.291.437-.645.437-1.062 0-.417-.146-.77-.438-1.063A1.447 1.447 0 0 0 8.5 6H5a.968.968 0 0 1-.713-.287A.968.968 0 0 1 4 5c0-.283.096-.52.287-.713A.968.968 0 0 1 5 4h3.5c.967 0 1.792.342 2.475 1.025A3.372 3.372 0 0 1 12 7.5c0 .967-.342 1.792-1.025 2.475A3.372 3.372 0 0 1 8.5 11H7c-.55 0-1.02.196-1.412.588A1.926 1.926 0 0 0 5 13c0 .55.196 1.02.588 1.412.391.392.862.588 1.412.588h2v2H7z" fill="#006C8E"/>
    </g>
</svg>
