<?xml version="1.0" encoding="UTF-8"?>
<!DOCTYPE svg PUBLIC "-//W3C//DTD SVG 1.1//EN" "http://www.w3.org/Graphics/SVG/1.1/DTD/svg11.dtd">
<svg version="1.1" xmlns="http://www.w3.org/2000/svg" xmlns:xlink="http://www.w3.org/1999/xlink" x="0" y="0" width="22" height="20" viewBox="0, 0, 22, 20">
  <g id="Layer_1">
    <path d="M9.966,19.331 C8.406,19.129 6.909,18.58 5.653,17.739 C4.267,16.815 3.102,15.528 2.348,14.094 C1.558,12.585 1.198,11.12 1.194,9.433 C1.194,8.28 1.333,7.419 1.696,6.313 C2.075,5.16 2.743,3.959 3.521,3.035 C4.161,2.269 5.124,1.432 5.942,0.93 C6.317,0.697 6.428,0.673 6.665,0.78 C6.988,0.922 7.091,1.321 6.882,1.594 C6.834,1.649 6.586,1.838 6.333,2.008 C4.22,3.422 2.857,5.508 2.419,7.992 C2.296,8.675 2.288,10.042 2.395,10.725 C2.743,12.905 3.817,14.817 5.46,16.191 C6.787,17.301 8.319,17.972 10.045,18.205 C10.59,18.28 11.819,18.268 12.395,18.186 C14.275,17.913 15.958,17.092 17.289,15.796 C18.154,14.951 18.801,14.039 19.252,13.016 C20.219,10.839 20.279,8.414 19.418,6.4 C18.695,4.698 17.391,3.335 15.756,2.561 C14.915,2.162 14.307,1.996 13.679,1.992 C13.24,1.989 13.213,1.992 12.956,2.119 C12.49,2.352 12.225,2.782 12.06,3.58 C11.969,4.03 11.961,4.366 12.036,4.465 C12.064,4.5 12.174,4.568 12.281,4.607 C13.158,4.955 13.865,5.76 14.113,6.692 C14.18,6.941 14.2,7.174 14.22,7.834 C14.232,8.292 14.259,8.687 14.283,8.715 C14.303,8.738 14.378,8.762 14.453,8.762 C14.702,8.762 14.706,8.774 14.706,9.927 C14.706,10.918 14.702,10.974 14.631,11.013 C14.587,11.033 14.299,11.053 13.975,11.053 L13.402,11.053 L13.363,11.155 C13.339,11.215 13.323,11.862 13.323,12.712 L13.323,14.165 L13.225,14.287 C13.035,14.509 12.699,14.54 12.474,14.362 C12.265,14.197 12.257,14.141 12.257,12.557 C12.257,11.266 12.249,11.096 12.194,11.076 C12.158,11.065 11.657,11.053 11.076,11.053 C10.31,11.053 10.01,11.065 9.974,11.1 C9.939,11.136 9.927,11.527 9.927,12.613 C9.927,13.956 9.919,14.086 9.856,14.208 C9.674,14.544 9.184,14.576 8.947,14.272 C8.86,14.165 8.86,14.141 8.86,12.684 C8.86,11.74 8.845,11.179 8.821,11.128 C8.781,11.061 8.73,11.053 8.189,11.053 C7.707,11.053 7.593,11.041 7.541,10.99 C7.486,10.938 7.478,10.784 7.478,9.911 C7.478,8.975 7.482,8.888 7.549,8.829 C7.589,8.79 7.676,8.762 7.739,8.762 C7.972,8.762 7.968,8.762 7.996,7.806 C8.023,6.862 8.055,6.681 8.268,6.207 C8.418,5.875 8.588,5.63 8.876,5.334 C9.295,4.899 9.733,4.643 10.322,4.493 C10.511,4.445 10.642,4.386 10.681,4.335 C10.717,4.287 10.76,4.086 10.788,3.833 C10.851,3.256 10.997,2.731 11.218,2.285 C11.538,1.629 12.115,1.147 12.81,0.958 C13.004,0.902 13.197,0.887 13.6,0.891 C14.058,0.895 14.2,0.91 14.595,1.013 C16.021,1.384 17.403,2.182 18.478,3.252 C19.757,4.536 20.571,6.112 20.895,7.933 C20.986,8.442 20.997,8.62 21.001,9.532 C21.005,10.587 20.982,10.879 20.824,11.685 C20.622,12.704 20.069,14.023 19.465,14.923 C19.082,15.496 18.817,15.824 18.32,16.341 C16.799,17.921 14.943,18.9 12.77,19.272 C12.139,19.378 10.606,19.41 9.966,19.331 z" fill="#000000"/>
  </g>
</svg>
