<?xml version="1.0" encoding="utf-8"?>
<!-- Generator: Adobe Illustrator 18.1.1, SVG Export Plug-In . SVG Version: 6.00 Build 0)  -->
<svg version="1.1" id="Layer_1" xmlns="http://www.w3.org/2000/svg" xmlns:xlink="http://www.w3.org/1999/xlink" x="0px" y="0px"
	 viewBox="0 0 30 20" enable-background="new 0 0 30 20" xml:space="preserve">
<g>
	<path fill="none" d="M2.9,1H2C1.4,1,1,1.4,1,2v1c0,0.6,0.4,1,1,1h0.9c0.6,0,1-0.4,1-1V2C3.9,1.4,3.4,1,2.9,1z"/>
	<path fill="none" d="M28.2,9H8.8C8.3,9,8,9.4,8,9.9v1.2C8,11.6,8.3,12,8.8,12h19.5c0.4,0,0.8-0.4,0.8-0.9V9.9C29,9.4,28.7,9,28.2,9
		z"/>
	<path fill="none" d="M2.9,9H2c-0.6,0-1,0.4-1,1v1c0,0.6,0.4,1,1,1h0.9c0.6,0,1-0.4,1-1v-1C3.9,9.4,3.4,9,2.9,9z"/>
	<path fill="none" d="M2.9,16H2c-0.6,0-1,0.4-1,1v1c0,0.6,0.4,1,1,1h0.9c0.6,0,1-0.4,1-1v-1C3.9,16.4,3.4,16,2.9,16z"/>
	<path fill="none" d="M28.2,16H8.8C8.3,16,8,16.4,8,16.9v1.2C8,18.6,8.3,19,8.8,19h19.5c0.4,0,0.8-0.4,0.8-0.9v-1.2
		C29,16.4,28.7,16,28.2,16z"/>
	<path fill="none" d="M28.2,1H8.8C8.3,1,8,1.4,8,1.9v1.2C8,3.6,8.3,4,8.8,4h19.5C28.7,4,29,3.6,29,3.1V1.9C29,1.4,28.7,1,28.2,1z"/>
	<path fill="#102633" d="M28.2,15H8.8c-1,0-1.8,0.9-1.8,1.9v1.2C7,19.2,7.8,20,8.8,20h19.5c1,0,1.8-0.9,1.8-1.9v-1.2
		C30,15.9,29.2,15,28.2,15z M29,18.1c0,0.5-0.3,0.9-0.8,0.9H8.8C8.3,19,8,18.6,8,18.1v-1.2C8,16.4,8.3,16,8.8,16h19.5
		c0.4,0,0.8,0.4,0.8,0.9V18.1z"/>
	<path fill="#102633" d="M28.2,8H8.8C7.8,8,7,8.9,7,9.9v1.2C7,12.2,7.8,13,8.8,13h19.5c1,0,1.8-0.9,1.8-1.9V9.9
		C30,8.9,29.2,8,28.2,8z M29,11.1c0,0.5-0.3,0.9-0.8,0.9H8.8C8.3,12,8,11.6,8,11.1V9.9C8,9.4,8.3,9,8.8,9h19.5C28.7,9,29,9.4,29,9.9
		V11.1z"/>
	<path fill="#102633" d="M28.2,0H8.8C7.8,0,7,0.9,7,1.9v1.2C7,4.2,7.8,5,8.8,5h19.5c1,0,1.8-0.9,1.8-1.9V1.9C30,0.9,29.2,0,28.2,0z
		 M29,3.1C29,3.6,28.7,4,28.2,4H8.8C8.3,4,8,3.6,8,3.1V1.9C8,1.4,8.3,1,8.8,1h19.5C28.7,1,29,1.4,29,1.9V3.1z"/>
	<path fill="#102633" d="M2.9,15H2c-1.1,0-2,0.9-2,2v1c0,1.1,0.9,2,2,2h0.9c1.1,0,2-0.9,2-2v-1C4.9,15.9,4,15,2.9,15z M3.9,18
		c0,0.6-0.4,1-1,1H2c-0.6,0-1-0.4-1-1v-1c0-0.6,0.4-1,1-1h0.9c0.6,0,1,0.4,1,1V18z"/>
	<path fill="#102633" d="M2.9,8H2c-1.1,0-2,0.9-2,2v1c0,1.1,0.9,2,2,2h0.9c1.1,0,2-0.9,2-2v-1C4.9,8.9,4,8,2.9,8z M3.9,11
		c0,0.6-0.4,1-1,1H2c-0.6,0-1-0.4-1-1v-1c0-0.6,0.4-1,1-1h0.9c0.6,0,1,0.4,1,1V11z"/>
	<path fill="#102633" d="M2.9,0H2C0.9,0,0,0.9,0,2v1c0,1.1,0.9,2,2,2h0.9c1.1,0,2-0.9,2-2V2C4.9,0.9,4,0,2.9,0z M3.9,3
		c0,0.6-0.4,1-1,1H2C1.4,4,1,3.6,1,3V2c0-0.6,0.4-1,1-1h0.9c0.6,0,1,0.4,1,1V3z"/>
</g>
</svg>
