<svg width="24" height="24" viewBox="0 0 24 24" xmlns="http://www.w3.org/2000/svg">
    <g fill="none">
        <path d="M0 0h24v24H0z"/>
        <path d="M12 22a9.598 9.598 0 0 0-2.6-1.475A8.193 8.193 0 0 0 6.5 20c-.7 0-1.388.092-2.063.275a9.05 9.05 0 0 0-1.937.775c-.35.183-.688.175-1.012-.025A.966.966 0 0 1 1 20.15V4.1c0-.183.046-.358.137-.525A.863.863 0 0 1 1.55 3.2c.767-.4 1.567-.7 2.4-.9.833-.2 1.683-.3 2.55-.3A10.78 10.78 0 0 1 12 3.5 10.78 10.78 0 0 1 17.5 2c.867 0 1.717.1 2.55.3.833.2 1.633.5 2.4.9.183.083.32.208.413.375.091.167.137.342.137.525v16.05a.966.966 0 0 1-.488.875c-.325.2-.662.208-1.012.025a9.05 9.05 0 0 0-1.938-.775A7.834 7.834 0 0 0 17.5 20c-1 0-1.967.175-2.9.525-.933.35-1.8.842-2.6 1.475z" fill="#006C8E" fill-rule="evenodd"/>
        <path d="M13 19.05c.733-.35 1.47-.613 2.213-.788a10.268 10.268 0 0 1 4.05-.113c.575.101 1.154.251 1.737.451V4.7a8.665 8.665 0 0 0-1.712-.525 9.218 9.218 0 0 0-4.113.125c-.767.2-1.492.5-2.175.9v13.85zM6.5 18c.783 0 1.546.087 2.287.262.742.175 1.48.438 2.213.788V5.2c-.683-.4-1.408-.7-2.175-.9a9.175 9.175 0 0 0-4.112-.125A8.665 8.665 0 0 0 3 4.7v13.9c.583-.2 1.162-.35 1.737-.45C5.313 18.05 5.9 18 6.5 18z" fill="#D3F4FF"/>
    </g>
</svg>
