<svg viewBox="0 0 24 24" xmlns="http://www.w3.org/2000/svg">
    <g fill="none">
        <path d="M0 0h24v24H0z"/>
        <path d="M1.5 23.5v-19c0-.55.196-1.02.587-1.413A1.926 1.926 0 0 1 3.5 2.5h17c.55 0 1.02.196 1.413.587.391.392.587.863.587 1.413v13c0 .55-.196 1.02-.587 1.413a1.926 1.926 0 0 1-1.413.587h-15l-4 4z" fill="#006C8E"/>
        <path fill="#D3F4FF" d="M4.65 17.5H20.5v-13h-17v14.125z"/>
        <path d="M5.5 15.5H14v-2H5.5v2zm0-3.5h13v-2h-13v2zm0-3.5h13v-2h-13v2z" fill="#006C8E"/>
    </g>
</svg>
