<svg viewBox="0 0 24 24" xmlns="http://www.w3.org/2000/svg">
    <g fill="none">
        <path d="M0 0h24v24H0z"/>
        <path d="M22.5 19.5a2 2 0 0 1-2 2h-17a2 2 0 0 1-2-2v-15a2 2 0 0 1 2-2h17a2 2 0 0 1 2 2v15z" fill="#006C8E"/>
        <path d="M16.17 17.25h4.335v2.25H16.17v-2.25zm-6.335 0h4.335v2.25H9.835v-2.25zm-6.335 0h4.335v2.25H3.5v-2.25zM16.17 13h4.335v2.25H16.17V13zm-6.335 0h4.335v2.25H9.835V13zM3.5 13h4.335v2.25H3.5V13zm12.67-4.25h4.335V11H16.17V8.75zm-6.335 0h4.335V11H9.835V8.75zm-6.335 0h4.335V11H3.5V8.75zm0-4.25h17v2.25h-17V4.5z" fill="#D3F4FF"/>
    </g>
</svg>
