<svg viewBox="0 0 1024 1051.5676" xmlns="http://www.w3.org/2000/svg"><path d="M512 12.0516c-282.947 0-512 229.053-512 512s229.053 512 512 512c282.947 0 512-229.053 512-512s-229.053-512-512-512z m40.42100000000005 768h-74.105v-74.105h74.105v74.105z m0-175.15800000000002v33.684h-74.105v-40.421c0-114.526 128-128 128-215.579 0-13.474-6.737-20.211-6.737-33.684-13.474-20.211-40.421-33.684-74.105-33.684-47.158 0-87.579 33.684-87.579 33.684l-6.737-6.737c0 0 0 0 0 0l-33.684-47.158c0 0 47.158-47.158 128-47.158s154.947 47.158 154.947 134.737c0 121.263-128 134.737-128 222.316z"/></svg>