<svg viewBox="0 0 24 24" xmlns="http://www.w3.org/2000/svg">
    <g fill="none">
        <path d="M0 0h24v24H0z"/>
        <path d="M1.5 2.5h19a2 2 0 0 1 2 2v17h-19a2 2 0 0 1-2-2v-17z" fill="#D3F4FF"/>
        <path d="M3.5 2.5v10.704l2.127-1.914a2.5 2.5 0 1 1 4.745 0l1.593 1.434a2.49 2.49 0 0 1 1.402-.197l2.57-4.114a2.5 2.5 0 1 1 1.695 1.06l-2.57 4.114a2.5 2.5 0 1 1-4.435.623l-1.592-1.434A2.49 2.49 0 0 1 8 13a2.49 2.49 0 0 1-1.034-.223L3.5 15.894V19.5h19v2h-19a2 2 0 0 1-2-2v-17h2z" fill="#006C8E"/>
        <path d="M18 6a1 1 0 1 0 0 2 1 1 0 0 0 0-2zm-5 8a1 1 0 1 0 0 2 1 1 0 0 0 0-2zM8 9.5a1 1 0 1 0 0 2 1 1 0 0 0 0-2z" fill="#D3F4FF"/>
    </g>
</svg>
