<svg viewBox="0 0 24 24" xmlns="http://www.w3.org/2000/svg">
    <g fill="none">
        <path d="M0 0h24v24H0z"/>
        <path d="m9.25 22-.4-3.2a3.795 3.795 0 0 1-.612-.3 8.243 8.243 0 0 1-.563-.375L4.7 19.375l-2.75-4.75 2.575-1.95a2.387 2.387 0 0 1-.025-.338v-.675c0-.108.008-.22.025-.337L1.95 9.375l2.75-4.75 2.975 1.25c.183-.133.375-.258.575-.375.2-.117.4-.217.6-.3l.4-3.2h5.5l.4 3.2c.217.083.42.183.612.3.192.117.38.242.563.375l2.975-1.25 2.75 4.75-2.575 1.95c.017.117.025.23.025.338v.675c0 .108-.017.22-.05.337l2.575 1.95-2.75 4.75-2.95-1.25a6.815 6.815 0 0 1-.575.375c-.2.117-.4.217-.6.3l-.4 3.2h-5.5z" fill="#006C8E" fill-rule="evenodd"/>
        <path d="M11 20h1.975l.35-2.65c.517-.133.996-.33 1.438-.588.441-.258.845-.57 1.212-.937l2.475 1.025.975-1.7-2.15-1.625c.083-.233.142-.48.175-.738a6.148 6.148 0 0 0 0-1.575 3.529 3.529 0 0 0-.175-.737l2.15-1.625-.975-1.7-2.475 1.05a5.554 5.554 0 0 0-1.213-.962 5.605 5.605 0 0 0-1.437-.588L13 4h-1.975l-.35 2.65c-.517.133-.996.33-1.438.587-.441.259-.845.571-1.212.938L5.55 7.15l-.975 1.7 2.15 1.6c-.083.25-.142.5-.175.75a6.06 6.06 0 0 0-.05.8c0 .267.017.525.05.775s.092.5.175.75l-2.15 1.625.975 1.7 2.475-1.05c.367.383.77.704 1.213.962.441.259.92.455 1.437.588L11 20z" fill="#D3F4FF" fill-rule="evenodd"/>
        <path d="M12.05 15.5c.967 0 1.792-.342 2.475-1.025A3.372 3.372 0 0 0 15.55 12c0-.967-.342-1.792-1.025-2.475A3.372 3.372 0 0 0 12.05 8.5c-.983 0-1.813.342-2.488 1.025A3.393 3.393 0 0 0 8.55 12c0 .967.337 1.792 1.012 2.475.676.683 1.505 1.025 2.488 1.025z" fill="#006C8E" fill-rule="evenodd"/>
    </g>
</svg>
