<svg width="24" height="24" viewBox="0 0 24 24" xmlns="http://www.w3.org/2000/svg">
    <g fill="none">
        <path d="M0 0h24v24H0z"/>
        <path d="M2 22V4c0-.55.196-1.02.587-1.413A1.926 1.926 0 0 1 4 2h16c.55 0 1.02.196 1.413.587C21.803 2.98 22 3.45 22 4v12c0 .55-.196 1.02-.587 1.413A1.926 1.926 0 0 1 20 18H6l-4 4z" fill="#D3F4FF" fill-rule="evenodd"/>
        <path d="M6 14h8v-2H6v2zm0-3h12V9H6v2zm0-3h12V6H6v2zM2 22V4c0-.55.196-1.02.587-1.413A1.926 1.926 0 0 1 4 2h16c.55 0 1.02.196 1.413.587C21.803 2.98 22 3.45 22 4v12c0 .55-.196 1.02-.587 1.413A1.926 1.926 0 0 1 20 18H6l-4 4zm3.15-6H20V4H4v13.125L5.15 16zm-1.113 0V4v12z" fill="#006C8E"/>
    </g>
</svg>
