<svg xmlns="http://www.w3.org/2000/svg" width="24px" height="24px" viewBox="0 0 276 276">
	<path d="M263.161,0H13.226C5.921,0,0,5.921,0,13.22v249.923c0,7.302,5.927,13.234,13.226,13.234h249.928
		c7.302,0,13.223-5.933,13.223-13.234V13.229C276.377,5.927,270.456,0,263.161,0z M79.744,231.017h-36.56v-36.563h36.554v36.563
		H79.744z M79.744,160.484h-36.56v-36.563h36.554v36.563H79.744z M79.744,89.94h-36.56V53.386h36.554V89.94H79.744z
		 M209.676,221.553h-98.607c-4.87,0-8.824-3.951-8.824-8.814c0-4.876,3.954-8.821,8.824-8.821h98.607
		c4.876,0,8.821,3.945,8.821,8.821C218.491,217.602,214.552,221.553,209.676,221.553z M209.676,151.021h-98.607
		c-4.87,0-8.824-3.951-8.824-8.821c0-4.869,3.954-8.814,8.824-8.814h98.607c4.876,0,8.821,3.945,8.821,8.814
		C218.497,147.069,214.552,151.021,209.676,151.021z M214.984,80.477h-98.605c-4.875,0-8.815-3.939-8.815-8.815
		c0-4.87,3.939-8.818,8.815-8.818h98.605c4.87,0,8.827,3.948,8.827,8.818C223.8,76.543,219.854,80.477,214.984,80.477z"/>
</svg>
