<svg viewBox="0 0 1382.4 1051.5676" xmlns="http://www.w3.org/2000/svg"><path d="M1280 63.2516c30.72 0 51.2 20.48 51.2 51.2v819.2c0 30.72-20.48 51.2-51.2 51.2h-1177.6c-30.72 0-51.2-20.48-51.2-51.2v-819.2c0-30.72 20.48-51.2 51.2-51.2h1177.6z m0-51.2h-1177.6c-56.32 0-102.4 46.08-102.4 102.4v819.2c0 56.32 46.08 102.4 102.4 102.4h1177.6c56.32 0 102.4-46.08 102.4-102.4v-819.2c0-56.32-46.08-102.4-102.4-102.4v0z m-1254.4 256v-163.84c0-35.84 30.72-66.56 66.56-66.56h1198.08c35.84 0 66.56 30.72 66.56 66.56v163.84h-1331.2z m1264.64-204.8c20.48 0 40.96 20.48 40.96 40.96v133.12h-1280v-133.12c0-20.48 20.48-40.96 40.96-40.96h1198.08z m0-51.199999999999996h-1198.08c-51.2 0-92.16 40.96-92.16 92.16v184.32h1382.4v-184.32c0-51.2-40.96-92.16-92.16-92.16v0z m-1003.52 691.2v-76.8l256-117.76v76.8l-168.96 76.8 168.96 81.92v76.8l-256-117.76z m460.79999999999995-209.92000000000007h51.2l-158.72 343.04h-51.2l158.72-343.04z m358.4000000000001 133.12v71.68l-256 117.76v-76.8l168.96-81.92-168.96-76.8v-76.8l256 122.88z"/></svg>