<svg viewBox="0 0 1024 1051.5676" xmlns="http://www.w3.org/2000/svg"><path d="M942.08 421.6516h-51.2c-10.24-30.72-20.48-61.44-35.84-87.04l46.08-46.08c30.72-30.72 30.72-81.92 0-117.76l-30.72-30.72c-15.36-15.36-35.84-25.6-56.32-25.6s-40.96 10.24-56.32 25.6l-46.08 46.08c-30.72-15.36-61.44-30.72-92.16-40.96v-51.2c-5.12-46.08-40.96-81.92-87.04-81.92h-40.96c-46.08 0-81.92 35.84-81.92 81.92v56.32c-30.72 10.24-66.56 20.48-92.16 35.84l-46.08-46.08c-20.48-15.36-40.96-25.6-61.44-25.6s-40.96 10.24-56.32 25.6l-30.72 30.72c-30.72 30.72-30.72 81.92 0 117.76l46.08 46.08c-10.24 25.6-25.6 56.32-35.84 87.04h-51.2c-46.08 0-81.92 40.96-81.92 81.92v40.96c0 46.08 35.84 81.92 81.92 81.92h56.32c10.24 30.72 20.48 61.44 35.84 92.16l-51.2 51.2c-30.72 30.72-30.72 81.92 0 117.76l30.72 25.6c15.36 15.36 35.84 25.6 56.32 25.6s40.96-10.24 56.32-25.6l51.2-51.2c30.72 20.48 61.44 30.72 92.16 40.96v51.2c0 46.08 35.84 81.92 81.92 81.92h40.96c46.08 0 81.92-35.84 81.92-81.92v-51.2c30.72-10.24 61.44-20.48 92.16-35.84l51.2 51.2c15.36 15.36 35.84 25.6 56.32 25.6s40.96-10.24 56.32-25.6l30.72-30.72c30.72-30.72 30.72-81.92 0-117.76l-51.2-51.2c15.36-25.6 30.72-56.32 35.84-92.16h56.32c46.08 0 81.92-35.84 81.92-81.92v-40.96c0-40.96-35.84-81.92-81.92-81.92z m30.719999999999914 128.00000000000006c0 15.36-15.36 30.72-30.72 30.72h-97.28l-10.24 35.84c-5.12 25.6-20.48 56.32-30.72 76.8l-15.36 35.84 76.8 76.8c10.24 10.24 10.24 30.72 0 46.08l-30.72 30.72c-5.12 5.12-15.36 10.24-20.48 10.24s-15.36-5.12-20.48-10.24l-76.8-76.8-35.84 20.48c-25.6 15.36-51.2 25.6-76.8 30.72l-40.96 5.12v92.16c0 15.36-15.36 30.72-30.72 30.72h-40.96c-15.36 0-30.72-15.36-30.72-30.72v-92.16l-35.84-10.24c-25.6-5.12-56.32-20.48-76.8-30.72l-35.84-20.48-76.8 76.8c-5.12 5.12-15.36 10.24-20.48 10.24-10.24 0-15.36-5.12-20.48-10.24l-30.72-30.72c-10.24-10.24-10.24-30.72 0-46.08l71.68-71.68-20.48-35.84c-15.36-25.6-25.6-51.2-30.72-76.8l-10.24-35.84h-92.16c-15.36 0-30.72-15.36-30.72-30.72v-46.08c0-15.36 15.36-30.72 30.72-30.72h92.16l10.24-35.84c10.24-25.6 20.48-51.2 30.72-76.8l20.48-35.84-76.8-76.8c-10.24-10.24-10.24-30.72 0-40.96l30.72-30.72c5.12-5.12 15.36-10.24 20.48-10.24 10.24 0 15.36 5.12 20.48 10.24l76.8 76.8 35.84-20.48c25.6-15.36 51.2-25.6 81.92-35.84l35.84-10.24v-92.16c0-15.36 15.36-30.72 30.72-30.72h40.96c15.36 0 30.72 15.36 30.72 30.72v97.28l35.84 10.24c30.72 10.24 56.32 20.48 81.92 35.84l35.84 15.36 71.68-71.68c10.24-10.24 15.36-15.36 25.6-15.36s15.36 5.12 20.48 10.24l30.72 30.72c5.12 5.12 10.24 15.36 10.24 20.48 0 10.24-5.12 15.36-10.24 20.48l-71.68 71.68 20.48 35.84c15.36 25.6 25.6 51.2 30.72 76.8l5.12 40.96h92.16c15.36 0 30.72 15.36 30.72 30.72v46.08z m-460.79999999999995-194.56c-92.16 0-168.96 76.8-168.96 168.96s76.8 168.96 168.96 168.96c92.16 0 168.96-76.8 168.96-168.96s-76.8-168.96-168.96-168.96z m0 286.71999999999997c-66.56 0-117.76-51.2-117.76-117.76s51.2-117.76 117.76-117.76c66.56 0 117.76 51.2 117.76 117.76s-51.2 117.76-117.76 117.76z"/></svg>