<svg viewBox="0 0 24 24" xmlns="http://www.w3.org/2000/svg">
    <g fill="none">
        <path d="M0 0h24v24H0z"/>
        <path d="M12 22.5c-1.453 0-2.818-.276-4.095-.827a10.603 10.603 0 0 1-3.334-2.244 10.603 10.603 0 0 1-2.244-3.334A10.224 10.224 0 0 1 1.5 12c0-1.453.276-2.818.827-4.095A10.603 10.603 0 0 1 4.57 4.571a10.603 10.603 0 0 1 3.334-2.244A10.224 10.224 0 0 1 12 1.5c1.453 0 2.818.276 4.095.827 1.277.551 2.389 1.3 3.334 2.244a10.603 10.603 0 0 1 2.244 3.334c.551 1.277.827 2.642.827 4.095 0 1.453-.276 2.818-.827 4.095a10.603 10.603 0 0 1-2.244 3.334 10.603 10.603 0 0 1-3.334 2.244A10.224 10.224 0 0 1 12 22.5z" fill="#006C8E" fill-rule="evenodd"/>
        <path d="m3.81 10.11 5.04 5.04v1.05c0 .578.206 1.072.617 1.483.411.411.905.617 1.483.617v2.14a8.027 8.027 0 0 1-2.253-.603 8.605 8.605 0 0 1-2.712-1.822 8.605 8.605 0 0 1-1.822-2.712A8.226 8.226 0 0 1 3.5 12c0-.691.075-1.352.226-1.987l.084.097zm11.34-6.008.153.061a8.605 8.605 0 0 1 2.712 1.822 8.605 8.605 0 0 1 1.822 2.712A8.226 8.226 0 0 1 20.5 12a8.226 8.226 0 0 1-.663 3.303 8.742 8.742 0 0 1-1.336 2.182l-.264.297a.661.661 0 0 1-.042-.112 2.076 2.076 0 0 0-.761-1.063A2.027 2.027 0 0 0 16.2 16.2h-1.05v-3.15c0-.298-.1-.547-.302-.748A1.016 1.016 0 0 0 14.1 12H7.8V9.9h2.1c.297 0 .547-.1.748-.302.201-.201.302-.45.302-.748v-2.1h2.1c.577 0 1.072-.206 1.483-.617.411-.411.617-.905.617-1.483v-.548z" fill="#D3F4FF" fill-rule="evenodd"/>
    </g>
</svg>
