<svg viewBox="0 0 24 24" xmlns="http://www.w3.org/2000/svg">
    <g fill="none">
        <path d="M0 0h24v24H0z"/>
        <path d="M4.5 21.5c-.55 0-1.02-.196-1.413-.587A1.926 1.926 0 0 1 2.5 19.5v-15c0-.55.196-1.02.587-1.413A1.926 1.926 0 0 1 4.5 2.5h15c.55 0 1.02.196 1.413.587.391.392.587.863.587 1.413v15c0 .55-.196 1.02-.587 1.413a1.926 1.926 0 0 1-1.413.587h-15z" fill="#006C8E"/>
        <path fill="#D3F4FF" d="M4.5 19.5h15v-15h-15z"/>
        <path d="M8 18h1.5v-2h2v-1.5h-2v-2H8v2H6V16h2v2zm5-.75h5v-1.5h-5v1.5zm0-2.5h5v-1.5h-5v1.5zm1.1-3.8 1.4-1.4 1.4 1.4 1.05-1.05-1.4-1.45 1.4-1.4L16.9 6l-1.4 1.4L14.1 6l-1.05 1.05 1.4 1.4-1.4 1.45 1.05 1.05zM6.25 9.2h5V7.7h-5v1.5z" fill="#006C8E"/>
    </g>
</svg>
