<svg viewBox="0 0 1382.4 1051.5676" xmlns="http://www.w3.org/2000/svg"><path d="M1331.2 12.0516h-1280c-30.72 0-51.2 20.48-51.2 51.2v921.6c0 30.72 20.48 51.2 51.2 51.2h1280c30.72 0 51.2-20.48 51.2-51.2v-921.6c0-30.72-20.48-51.2-51.2-51.2z m-307.20000000000005 51.2v307.2h-256v-307.2h256z m-256 358.4h256v153.6h-256v-153.6z m0 204.8h256v153.6h-256v-153.6z m-51.200000000000045-563.1999999999999v307.2h-256v-307.2h256z m-255.99999999999994 358.3999999999999h256v153.6h-256v-153.6z m0 204.8h256v153.6h-256v-153.6z m-409.6-563.1999999999999h358.4v307.2h-358.4v-307.2z m1.4210854715202004e-14 358.3999999999999h358.4v153.6h-358.4v-153.6z m0 204.8h358.4v153.6h-358.4v-153.6z m0 358.4v-153.6h358.4v153.6h-358.4z m409.6 0v-153.6h256v153.6h-256z m307.2 0v-153.6h256v153.6h-256z m563.2 0h-256v-153.6h256v-51.2h-256v-153.6h256v-51.2h-256v-153.6h256v-51.2h-256v-307.2h256v921.6z m-204.79999999999995-870.4h153.6v204.8h-153.6v-204.8z m-307.20000000000005 1.4210854715202004e-14h153.6v204.8h-153.6v-204.8z m-307.20000000000005 0h153.6v204.8h-153.6v-204.8z m-409.6 0h256v204.8h-256v-204.8z"/></svg>