<svg viewBox="0 0 819 1051.5676" xmlns="http://www.w3.org/2000/svg"><path d="M714.3 41.6516h-607.6c-57.8 0-104.7 46.9-104.7 104.8v756.1c0 57.8 46.9 104.7 104.7 104.7h607.5c57.8 0 104.7-46.9 104.7-104.7v-756.1c0.1-57.9-46.8-104.8-104.6-104.8z m-526.1999999999999 802.8c-41 0-74.3-33.3-74.3-74.3s33.3-74.3 74.3-74.3c41 0 74.3 33.3 74.3 74.3s-33.3 74.3-74.3 74.3z m-2.842170943040401e-14-247.79999999999995c-41 0-74.3-33.3-74.3-74.3s33.3-74.3 74.3-74.3c41 0 74.3 33.3 74.3 74.3s-33.3 74.3-74.3 74.3z m0-249.8c-41 0-74.3-33.3-74.3-74.3s33.3-74.3 74.3-74.3c41 0 74.3 33.3 74.3 74.3s-33.3 74.3-74.3 74.3z m520.4 478.99999999999994h-372.4v-111.4h372.4v111.4z m0.10000000000002274-247.79999999999995h-372.6v-111.4h372.6v111.4z m0.1999999999999318-249.8h-373v-111.4h372.9v111.4z"/></svg>