<svg viewBox="0 0 1126 1051.5676" xmlns="http://www.w3.org/2000/svg"><path d="M1064.96 933.6516h-906.24c-25.6 0-35.84-10.24-35.84-10.24-10.24-10.24-15.36-30.72-15.36-40.96v-261.12c35.84-15.36 117.76-46.08 174.08-71.68 15.36 15.36 40.96 20.48 61.44 20.48 10.24 0 25.6 0 35.84-5.12l97.28 117.76c0 5.12 0 10.24 0 15.36 0 56.32 46.08 102.4 102.4 102.4s102.4-46.08 102.4-102.4c0-10.24 0-15.36-5.12-25.6l312.32-291.84c10.24 0 15.36 5.12 25.6 5.12 56.32 0 102.4-46.08 102.4-102.4s-46.08-102.4-102.4-102.4c-56.32 0-102.4 46.08-102.4 102.4 0 10.24 0 15.36 5.12 25.6l-312.32 291.84c-10.24 0-15.36-5.12-25.6-5.12s-20.48 0-30.72 5.12l-102.4-117.76c0-5.12 0-10.24 0-15.36 0-56.32-46.08-102.4-102.4-102.4-46.08 5.12-87.04 40.96-97.28 87.04-61.44 25.6-107.52 46.08-138.24 56.32v-430.08c0-30.72-20.48-51.2-51.2-51.2s-51.2 20.48-51.2 51.2v803.84c0 5.12 0 66.56 40.96 112.64 20.48 20.48 51.2 40.96 112.64 40.96h906.24c30.72 0 51.2-20.48 51.2-51.2s-25.6-51.2-51.2-51.2z m-56.32000000000005-701.44c25.6 0 51.2 20.48 51.2 51.2 0 25.6-20.48 51.2-51.2 51.2-25.6 0-51.2-20.48-51.2-51.2 5.12-25.6 25.6-51.2 51.2-51.2z m-378.88 465.9200000000001c0 25.6-20.48 51.2-51.2 51.2s-51.2-20.48-51.2-51.2c0-25.6 20.48-51.2 51.2-51.2s51.2 25.6 51.2 51.2z m-281.59999999999997-276.4800000000001c25.6 0 51.2 20.48 51.2 51.2 0 25.6-20.48 51.2-51.2 51.2s-51.2-20.48-51.2-51.2c0-30.72 20.48-51.2 51.2-51.2z"/></svg>