<svg viewBox="0 0 1024 1051.5676" xmlns="http://www.w3.org/2000/svg"><path d="M512 12.0516c-281.6 0-512 230.4-512 512s230.4 512 512 512 512-230.4 512-512-209.92-512-512-512z m363.52 250.88c5.12 0 5.12 5.12 10.24 10.24-5.12-5.12-10.24-10.24-10.24-10.24v0z m20.480000000000018 61.44c0 0 0-25.6-5.12-40.96 30.72 51.2 76.8 194.56 61.44 220.16-10.24-5.12-20.48-10.24-20.48-10.24h-61.44l35.84 40.96c0 0 15.36 25.6 40.96 25.6-15.36 189.44-174.08 312.32-174.08 312.32-25.6-25.6-10.24-46.08-10.24-46.08l5.12-35.84 5.12-61.44c0 0 0-40.96-30.72-40.96-5.12 0-15.36 0-30.72 10.24-66.56 15.36-35.84 15.36-102.4 20.48 0 0 0 0-5.12 0-61.44 0-35.84-122.88-35.84-122.88-5.12-56.32 5.12-40.96 5.12-81.92 0-20.48 30.72-25.6 61.44-25.6 35.84 0 76.8 5.12 76.8 5.12 25.6 15.36 46.08 25.6 61.44 25.6 35.84 0 40.96-35.84 40.96-35.84l66.56-25.6 5.12-30.72-35.84-40.96-56.32-25.6c0 0-25.6 15.36 0 56.32 0 0-5.12 35.84-20.48 35.84h-5.12l-56.32-71.68c0 0-20.48 30.72-51.2 51.2-10.24 5.12-20.48 10.24-35.84 10.24-25.6 0-46.08-10.24-46.08-10.24s-15.36-51.2 15.36-66.56l46.08 5.12c0 0-5.12-30.72 0-56.32 5.12-10.24 5.12-15.36 15.36-15.36 0 0 0 0 5.12 0s15.36 0 25.6-10.24c5.12-5.12 5.12-5.12 10.24-5.12 20.48 0 35.84 35.84 61.44 35.84h5.12c35.84-5.12 20.48-10.24 40.96-25.6 5.12 0 5.12 0 10.24 0 20.48 0 30.72 25.6 30.72 25.6l51.2 5.12z m-322.55999999999995-40.95999999999998c-5.12 0-20.48-10.24-25.6-20.48s15.36-20.48 15.36-20.48c30.72 10.24 20.48 25.6 10.24 40.96z m25.59999999999991-15.360000000000014c-10.24-10.24 5.12-51.2 5.12-51.2 5.12-10.24 15.36-15.36 25.6-20.48 5.12 0 0 20.48-5.12 35.84 0 15.36-5.12 20.48 10.24 35.84 15.36 5.12 10.24 10.24 5.12 10.24-10.24 0-30.72-5.12-40.96-10.24z m97.28000000000009-56.32000000000002l20.48-40.96c0 0 5.12-20.48 5.12-40.96 0 0 0 0 5.12 0 10.24 0 46.08 20.48 71.68 46.08-15.36 61.44-51.2 66.56-66.56 66.56-5.12 0-40.96 0-35.84-30.72z m-199.68000000000006-81.91999999999999c0 20.48-40.96 51.2-35.84 61.44 5.12 5.12 0 51.2-15.36 51.2-5.12 0-10.24-5.12-15.36-10.24-30.72-35.84-61.44-76.8-61.44-102.4 0-5.12 0-10.24 0-20.48 25.6-25.6 76.8-35.84 112.64-35.84 25.6 0 46.08 5.12 51.2 10.24-15.36 30.72-35.84 20.48-35.84 46.08z m-189.44 5.1200000000000045l10.24 46.08c0 0-15.36 5.12-25.6 5.12-5.12 0-10.24 0-10.24 0-10.24-5.12-20.48-5.12-20.48-5.12l-15.36 20.48c0 0-5.12 15.36-10.24 25.6 0 10.24 5.12 20.48 5.12 20.48s5.12 0 10.24 0 25.6 0 25.6-5.12c0-10.24-5.12-15.36-5.12-15.36l-10.24-10.24c0 0 15.36-10.24 51.2-10.24 5.12 0 15.36 0 25.6 0 56.32 5.12 35.84 40.96 56.32 51.2 25.6 10.24-20.48 46.08-25.6 61.44 0 5.12-5.12 5.12-5.12 5.12-10.24 0-15.36-25.6-15.36-25.6s10.24-15.36-15.36-20.48h-5.12c-15.36 0-20.48 20.48-10.24 20.48s10.24 15.36 10.24 25.6c0 10.24 0 25.6-15.36 51.2-5.12 25.6-51.2 25.6-51.2 25.6s5.12 10.24 15.36 25.6c5.12 15.36 0 46.08 0 56.32-5.12 0-25.6-20.48-30.72-40.96-5.12-15.36-10.24-15.36-20.48-15.36-5.12 0-10.24 0-15.36 5.12-5.12 0-15.36 5.12-25.6 5.12-5.12 0-15.36 0-15.36-5.12 0 0 0 0-5.12 0-10.24-10.24-40.96 15.36-51.2 20.48s-5.12 20.48 5.12 20.48c0 0 5.12 0 10.24 0 5.12-5.12 10.24-5.12 15.36-5.12 10.24 0 15.36 5.12 10.24 20.48s-20.48 5.12-20.48 15.36c0 10.24 20.48 20.48 25.6 40.96 0 5.12 5.12 5.12 15.36 5.12 15.36 0 35.84-5.12 46.08-10.24 5.12-5.12 20.48-5.12 35.84-5.12 10.24 0 20.48 5.12 25.6 10.24 5.12 20.48 46.08 25.6 61.44 30.72 15.36 0 46.08 5.12 66.56 20.48 20.48 20.48-15.36 51.2-15.36 61.44s-15.36 40.96-25.6 56.32c-10.24 20.48-15.36 25.6-25.6 35.84s-20.48 30.72-20.48 30.72v40.96c0 0 10.24 25.6 20.48 35.84 5.12 10.24-15.36 66.56-15.36 66.56-20.48-5.12-35.84-10.24-40.96-25.6-5.12-20.48-15.36-15.36-15.36-35.84s-30.72-46.08-40.96-56.32c-5.12-10.24-15.36-25.6-15.36-40.96 0-10.24-25.6-25.6-25.6-25.6s-46.08-20.48-51.2-30.72c-5.12-10.24-15.36-46.08-15.36-61.44s5.12-56.32 5.12-56.32 20.48-15.36 5.12-25.6c-10.24-10.24-15.36-40.96-15.36-40.96l-15.36-25.6c0 0-15.36-20.48-20.48-35.84 0-10.24 0-20.48 0-30.72s-5.12-30.72-5.12-40.96c87.04-209.92 230.4-256 230.4-256z m542.72 76.79999999999998l-5.12-10.24c5.12 5.12 10.24 10.24 10.24 10.24-5.12 0-5.12 0-5.12 0z"/></svg>