<svg viewBox="0 0 1113.043 1051.5676" xmlns="http://www.w3.org/2000/svg"><path d="M418.504 515.1476h62.33l75.687 75.687 75.687-75.687h62.33c57.878 0 106.852-44.522 106.852-102.4v-298.296c0-57.878-48.974-102.4-106.852-102.4h-276.035c-57.878 0-106.852 44.522-106.852 102.4v298.296c0 57.878 48.974 102.4 106.852 102.4z m-62.33000000000004-400.696c0-31.165 26.713-57.878 62.33-57.878h276.035c35.617 0 62.33 26.713 62.33 57.878v298.296c0 31.165-26.713 57.878-62.33 57.878h-80.139l-57.878 57.878-57.878-57.878h-80.139c-35.617 0-62.33-22.261-62.33-57.878v-298.296z m40.06900000000002 654.47h-396.243v133.565h396.243c-8.904-22.261-13.357-44.522-13.357-66.783s4.452-44.522 13.357-66.783z m320.55699999999996 0c8.904 22.261 13.357 44.522 13.357 66.783s-4.452 44.522-13.357 66.783h396.243v-133.565h-396.243z m-93.49599999999998-667.827h44.522v320.557h-44.522v-320.557z m-89.043-1.4210854715202004e-14h44.522v320.557h-44.522v-320.557z m-89.04399999999998 0h44.522v320.557h-44.522v-320.557z m227.06100000000004 734.609c0 63.931-51.826 115.757-115.757 115.757s-115.757-51.826-115.757-115.757c0-63.931 51.826-115.757 115.757-115.757s115.757 51.826 115.757 115.757z"/></svg>