<svg viewBox="0 0 819.2 1051.5676" xmlns="http://www.w3.org/2000/svg"><path d="M0 923.4116c0 61.44 51.2 112.64 112.64 112.64h593.92c61.44 0 112.64-51.2 112.64-112.64v-568.32h-819.2v568.32z m742.4 0c0 20.48-15.36 35.84-35.84 35.84h-35.84c-20.48 0-35.84-15.36-35.84-35.84v-153.6c0-20.48 15.36-35.84 35.84-35.84h35.84c20.48 0 35.84 15.36 35.84 35.84v153.6z m-71.67999999999995-496.64000000000004h35.84c20.48 0 35.84 15.36 35.84 35.84s-15.36 35.84-35.84 35.84h-35.84c-20.48 0-35.84-15.36-35.84-35.84 0-15.36 15.36-35.84 35.84-35.84z m0 148.48000000000008h35.84c20.48 0 35.84 15.36 35.84 35.84s-15.36 35.84-35.84 35.84h-35.84c-20.48 0-35.84-15.36-35.84-35.84 0-15.36 15.36-35.84 35.84-35.84z m-184.32000000000005-148.48000000000008h35.84c20.48 0 35.84 15.36 35.84 35.84s-15.36 35.84-35.84 35.84h-35.84c-20.48 0-35.84-15.36-35.84-35.84-5.12-15.36 15.36-35.84 35.84-35.84z m0 148.48000000000008h35.84c20.48 0 35.84 15.36 35.84 35.84s-15.36 35.84-35.84 35.84h-35.84c-20.48 0-35.84-15.36-35.84-35.84-5.12-15.36 15.36-35.84 35.84-35.84z m0 158.7199999999999h35.84c20.48 0 35.84 15.36 35.84 35.84s-15.36 35.84-35.84 35.84h-35.84c-20.48 0-35.84-15.36-35.84-35.84-5.12-20.48 15.36-35.84 35.84-35.84z m0 148.48000000000002h35.84c20.48 0 35.84 15.36 35.84 35.84s-15.36 35.84-35.84 35.84h-35.84c-20.48 0-35.84-15.36-35.84-35.84-5.12-15.36 15.36-35.84 35.84-35.84z m-189.44-455.68h35.84c20.48 0 35.84 15.36 35.84 35.84s-15.36 35.84-35.84 35.84h-35.84c-20.48 0-35.84-15.36-35.84-35.84 0-15.36 15.36-35.84 35.84-35.84z m0 148.48000000000008h35.84c20.48 0 35.84 15.36 35.84 35.84s-15.36 35.84-35.84 35.84h-35.84c-20.48 0-35.84-15.36-35.84-35.84 0-15.36 15.36-35.84 35.84-35.84z m0 158.7199999999999h35.84c20.48 0 35.84 15.36 35.84 35.84s-15.36 35.84-35.84 35.84h-35.84c-20.48 0-35.84-15.36-35.84-35.84s15.36-35.84 35.84-35.84z m0 148.48000000000002h35.84c20.48 0 35.84 15.36 35.84 35.84s-15.36 35.84-35.84 35.84h-35.84c-20.48 0-35.84-15.36-35.84-35.84 0-15.36 15.36-35.84 35.84-35.84z m-184.32-455.68h35.84c20.48 0 35.84 15.36 35.84 35.84s-15.36 35.84-35.84 35.84h-35.84c-20.48 0-35.84-15.36-35.84-35.84 0-15.36 15.36-35.84 35.84-35.84z m1.4210854715202004e-14 148.48000000000008h35.84c20.48 0 35.84 15.36 35.84 35.84s-15.36 35.84-35.84 35.84h-35.84c-20.48 0-35.84-15.36-35.84-35.84 0-15.36 15.36-35.84 35.84-35.84z m0 158.7199999999999h35.84c20.48 0 35.84 15.36 35.84 35.84s-15.36 35.84-35.84 35.84h-35.84c-20.48 0-35.84-15.36-35.84-35.84s15.36-35.84 35.84-35.84z m0 148.48000000000002h35.84c20.48 0 35.84 15.36 35.84 35.84s-15.36 35.84-35.84 35.84h-35.84c-20.48 0-35.84-15.36-35.84-35.84 0-15.36 15.36-35.84 35.84-35.84z m593.92-870.4h-593.92c-61.44 0-112.64 51.2-112.64 112.64v189.44h819.2v-189.44c0-61.44-51.2-112.64-112.64-112.64z m35.84000000000003 225.28h-665.6v-153.6h670.72v153.6z"/></svg>