<svg viewBox="0 0 1331.2 1051.5676" xmlns="http://www.w3.org/2000/svg"><path d="M962.56 63.2516c-5.12 10.24-5.12 25.6-5.12 35.84v194.56c0 46.08 35.84 97.28 97.28 97.28h179.2c5.12 0 10.24 0 15.36 0 10.24 0 20.48 0 25.6-5.12v558.08c0 25.6-20.48 40.96-40.96 40.96h-1146.88c-20.48 0-40.96-20.48-40.96-40.96v-839.68c0-25.6 20.48-40.96 40.96-40.96h875.52z m97.27999999999997-51.2h-967.68c-51.2 0-92.16 40.96-92.16 92.16v839.68c0 51.2 40.96 92.16 92.16 92.16h1146.88c51.2 0 92.16-40.96 92.16-92.16v-650.24l-271.36-281.6z m-5.119999999999891 322.56c-46.08 0-46.08-46.08-46.08-46.08v-194.56c0-25.6 5.12-35.84 10.24-35.84 10.24 0 25.6 20.48 25.6 20.48l220.16 225.28c25.6 30.72 0 30.72-15.36 30.72-10.24 0-15.36 0-15.36 0h-179.2z m-849.9200000000001-92.16h568.32v51.2h-568.32v-51.2z m5.684341886080802e-14 153.6h568.32v51.2h-568.32v-51.2z m0 153.60000000000002h921.6v51.2h-921.6v-51.2z m0 153.60000000000002h921.6v51.2h-921.6v-51.2z"/></svg>