<svg viewBox="0 0 1025.28 1051.5676" xmlns="http://www.w3.org/2000/svg"><path d="M931.84 63.2516c10.24 0 20.48 5.12 30.72 10.24 15.36 15.36 15.36 40.96 0 56.32l-56.32 56.32-56.32-56.32 56.32-56.32c5.12-5.12 15.36-10.24 25.6-10.24z m-209.92000000000007 138.24l138.24 138.24-5.12 5.12-138.24-133.12 5.12-10.24z m-81.91999999999996 133.12l56.32 56.32-450.56 450.56-56.32-56.32 450.56-450.56z m-532.48 568.3199999999999l20.48 20.48-35.84 15.36 15.36-35.84z m824.32-890.8799999999999c-25.6 0-46.08 10.24-66.56 25.6l-92.16 92.16 133.12 133.12 92.16-92.16c35.84-35.84 35.84-97.28 0-133.12-20.48-15.36-46.08-25.6-66.56-25.6v0z m-209.92000000000007 117.75999999999999l-76.8 76.8 184.32 184.32-225.28 225.28c-5.12 5.12-5.12 20.48 0 25.6s10.24 5.12 15.36 5.12c5.12 0 10.24 0 15.36-5.12l343.04-343.04c5.12-5.12 5.12-20.48 0-25.6-10.24 0-15.36-5.12-20.48-5.12s-10.24 0-15.36 5.12l-40.96 40.96-179.2-184.32z m-76.79999999999995 128l-527.36 527.36 133.12 133.12 522.24-527.36-128-133.12z m-552.96 552.96l-92.16 225.28 225.28-92.16-133.12-133.12z"/></svg>