<svg viewBox="0 0 1741 1051.5676" xmlns="http://www.w3.org/2000/svg"><path d="M1689.6 63.2516v921.6h-153.6v-921.6h153.6z m-358.39999999999986 0v921.6h-153.6v-921.6h153.6z m384-51.2h-204.8c-15.36 0-25.6 20.48-25.6 40.96v936.96c0 25.6 10.24 40.96 25.6 40.96h204.8c15.36 0 25.6-20.48 25.6-40.96v-936.96c0-20.48-15.36-40.96-25.6-40.96v0z m-358.4000000000001 0h-204.8c-15.36 0-25.6 20.48-25.6 40.96v936.96c0 25.6 10.24 40.96 25.6 40.96h204.8c15.36 0 25.6-20.48 25.6-40.96v-936.96c0-20.48-15.36-40.96-25.6-40.96v0z m-1305.6 71.68l803.84 440.32-803.84 440.32v-880.64z m-30.720000000000045-71.68c-10.24 0-20.48 10.24-20.48 25.6v972.8c0 15.36 10.24 25.6 20.48 25.6 5.12 0 10.24 0 15.36-5.12l885.76-486.4c20.48-10.24 20.48-30.72 0-40.96l-885.76-486.4c-5.12-5.12-10.24-5.12-15.36-5.12v0z"/></svg>