<svg viewBox="0 0 1024 1051.5676" xmlns="http://www.w3.org/2000/svg"><path d="M512 12.0516c-286.72 0-512 225.28-512 512s225.28 512 512 512c286.72 0 512-225.28 512-512s-225.28-512-512-512z m163.84000000000003 245.76c30.72 0 61.44 40.96 61.44 81.92 10.24 51.2-20.48 81.92-61.44 81.92s-61.44-30.72-61.44-81.92c0-51.2 30.72-81.92 61.44-81.92z m-337.92 0c30.72 0 61.44 40.96 61.44 81.92 0 51.2-20.48 81.92-61.44 81.92-30.72 0-61.44-30.72-61.44-81.92s30.72-81.92 61.44-81.92z m174.07999999999998 450.55999999999995c-194.56 0-256 102.4-256 102.4s51.2-184.32 256-184.32c204.8 0 256 184.32 256 184.32s-61.44-102.4-256-102.4z"/></svg>