<svg viewBox="0 0 1024 1051.5676" xmlns="http://www.w3.org/2000/svg"><path d="M512 12.0516c-281.6 0-512 230.4-512 512s230.4 512 512 512c281.6 0 512-230.4 512-512s-230.4-512-512-512z m0 972.8c-256 0-460.8-204.8-460.8-460.8s204.8-460.8 460.8-460.8c256 0 460.8 204.8 460.8 460.8s-204.8 460.8-460.8 460.8z m35.84000000000003-629.76c-138.24 0-343.04 66.56-343.04 409.6 51.2-102.4 102.4-163.84 204.8-163.84 35.84 0 81.92 10.24 138.24 25.6v138.24l271.36-276.48-271.36-271.36v138.24z m51.19999999999993 5.684341886080802e-14v-15.36l148.48 148.48-148.48 148.48v-46.08l-35.84-10.24c-61.44-20.48-107.52-30.72-153.6-30.72-51.2 0-92.16 10.24-122.88 35.84 56.32-148.48 179.2-179.2 261.12-179.2h51.2v-51.2z"/></svg>