<svg viewBox="0 0 1075.2 1051.5676" xmlns="http://www.w3.org/2000/svg"><path d="M778.24 12.0516c-122.88 0-204.8 51.2-240.64 81.92-35.84-30.72-112.64-81.92-204.8-81.92-174.08 0-332.8 92.16-332.8 92.16v931.84c0 0 174.08-92.16 348.16-92.16s189.44 92.16 189.44 92.16 20.48-92.16 199.68-92.16c10.24 0 25.6 0 40.96 0 174.08 15.36 296.96 92.16 296.96 92.16v-916.48c0 0-122.88-107.52-296.96-107.52z m-266.24 921.6c-35.84-20.48-87.04-35.84-163.84-35.84-112.64 0-225.28 35.84-296.96 61.44v-819.2c51.2-25.6 163.84-76.8 281.6-76.8 76.8 0 143.36 40.96 174.08 66.56l5.12 5.12v798.72z m512 20.480000000000018c-56.32-25.6-143.36-51.2-240.64-56.32-15.36 0-30.72 0-46.08 0-81.92 0-138.24 15.36-174.08 40.96v-803.84l5.12-5.12c30.72-25.6 102.4-66.56 209.92-66.56 117.76 0 209.92 56.32 245.76 81.92v808.96z"/></svg>