<svg viewBox="0 0 964 1051.5676" xmlns="http://www.w3.org/2000/svg"><path d="M707.765 909.5576h-63.247v-512h-129.506v512h-63.247v-512h-129.506v512h-66.259v-512h-126.494v608.376c0 18.071 15.059 33.129 33.129 33.129h641.506c18.071 0 33.129-15.059 33.129-33.129v-608.376h-129.506v512z m192.75300000000004-768h-256v-96.376c0-18.071-15.059-33.129-33.129-33.129h-256c-18.071 0-33.129 15.059-33.129 33.129v96.376h-259.012c-33.129 0-63.247 27.106-63.247 63.247v63.247c0 36.141 30.118 63.247 63.247 63.247h834.259c36.141 0 63.247-30.118 63.247-63.247v-63.247c3.012-36.141-27.106-63.247-60.235-63.247z m-322.259 2.842170943040401e-14h-192.753v-66.259h192.753v66.259z"/></svg>