<svg viewBox="0 0 1028.096 1051.5676" xmlns="http://www.w3.org/2000/svg"><path d="M163.84 12.0516h-139.264c-12.288 0-24.576 12.288-24.576 24.576v139.264c0 12.288 12.288 24.576 24.576 24.576s24.576-12.288 24.576-24.576v-114.688h114.688c12.288 0 24.576-12.288 24.576-24.576s-8.192-24.576-24.576-24.576z m282.624 974.848h-139.264c-12.288 0-24.576 12.288-24.576 24.576s12.288 24.576 24.576 24.576h139.264c12.288 0 24.576-12.288 24.576-24.576s-12.288-24.576-24.576-24.576z m-282.624 0h-114.688v-114.688c0-12.288-12.288-24.576-24.576-24.576s-24.576 12.288-24.576 24.576v139.264c0 12.288 12.288 24.576 24.576 24.576h139.264c12.288 0 24.576-12.288 24.576-24.576s-8.192-24.576-24.576-24.576z m-139.26400000000004-233.47199999999998c12.288 0 24.576-12.288 24.576-24.576v-139.264c0-12.288-12.288-24.576-24.576-24.576s-24.576 12.288-24.576 24.576v139.264c4.096 16.384 12.288 24.576 24.576 24.576z m700.4159999999999 233.47199999999998h-139.264c-12.288 0-24.576 12.288-24.576 24.576s12.288 24.576 24.576 24.576h139.264c12.288 0 24.576-12.288 24.576-24.576s-12.288-24.576-24.576-24.576z m-278.52799999999996-974.848h-139.264c-12.288 0-24.576 12.288-24.576 24.576s12.288 24.576 24.576 24.576h139.264c12.288 0 24.576-12.288 24.576-24.576s-12.288-24.576-24.576-24.576z m557.056-7.105427357601002e-15h-139.264c-12.288 0-24.576 12.288-24.576 24.576s12.288 24.576 24.576 24.576h114.688v114.688c0 12.288 12.288 24.576 24.576 24.576s24.576-12.288 24.576-24.576v-139.264c0-16.384-12.288-24.576-24.576-24.576z m0 278.528c-12.288 0-24.576 12.288-24.576 24.576v139.264c0 12.288 12.288 24.576 24.576 24.576s24.576-12.288 24.576-24.576v-139.264c0-16.384-12.288-24.576-24.576-24.576z m0 557.0559999999999c-12.288 0-24.576 12.288-24.576 24.576v114.688h-114.688c-12.288 0-24.576 12.288-24.576 24.576s12.288 24.576 24.576 24.576h139.264c12.288 0 24.576-12.288 24.576-24.576v-139.264c0-12.288-12.288-24.576-24.576-24.576z m0-278.5279999999999c-12.288 0-24.576 12.288-24.576 24.576v139.264c0 12.288 12.288 24.576 24.576 24.576s24.576-12.288 24.576-24.576v-139.264c0-12.288-12.288-24.576-24.576-24.576z m-278.528-557.056h-139.264c-12.288 0-24.576 12.288-24.576 24.576s12.288 24.576 24.576 24.576h139.264c12.288 0 24.576-12.288 24.576-24.576s-12.288-24.576-24.576-24.576z m-700.4159999999999 450.56c12.288 0 24.576-12.288 24.576-24.576v-139.264c0-12.288-12.288-24.576-24.576-24.576s-24.576 12.288-24.576 24.576v139.264c4.096 12.288 12.288 24.576 24.576 24.576z"/></svg>