<svg viewBox="0 0 1126 1051.5676" xmlns="http://www.w3.org/2000/svg"><path d="M1018.88 12.0516h-916.48c-56.32 0-102.4 46.08-102.4 102.4v578.56c0 56.32 46.08 102.4 102.4 102.4h174.08v235.52l266.24-235.52h476.16c56.32 0 102.4-46.08 102.4-102.4v-578.56c5.12-56.32-40.96-102.4-102.4-102.4z m56.32000000000005 680.96c0 30.72-25.6 51.2-51.2 51.2h-496.64l-15.36 15.36-184.32 163.84v-174.08h-225.28c-30.72 0-51.2-25.6-51.2-51.2v-583.68c0-30.72 25.6-51.2 51.2-51.2h916.48c30.72 0 51.2 25.6 51.2 51.2v578.56z"/></svg>