<svg viewBox="0 0 1541.12 1051.5676" xmlns="http://www.w3.org/2000/svg"><path d="M1443.84 780.0516h-993.28c-51.2 0-92.16 46.08-92.16 97.28v61.44c0 56.32 40.96 97.28 92.16 97.28h998.4c51.2 0 92.16-46.08 92.16-97.28v-61.44c-5.12-51.2-46.08-97.28-97.28-97.28z m40.960000000000036 158.72000000000003c0 25.6-15.36 46.08-40.96 46.08h-993.28c-25.6 0-40.96-20.48-40.96-46.08v-61.44c0-25.6 15.36-46.08 40.96-46.08h998.4c20.48 0 40.96 20.48 40.96 46.08v61.44z m-40.960000000000036-517.1200000000001h-993.28c-51.2 0-92.16 46.08-92.16 97.28v61.44c0 56.32 40.96 97.28 92.16 97.28h998.4c51.2 0 92.16-46.08 92.16-97.28v-61.44c-5.12-51.2-46.08-97.28-97.28-97.28z m40.960000000000036 158.72000000000003c0 25.6-15.36 46.08-40.96 46.08h-993.28c-25.6 0-40.96-20.48-40.96-46.08v-61.44c0-25.6 15.36-46.08 40.96-46.08h998.4c20.48 0 35.84 20.48 35.84 46.08v61.44z m-40.960000000000036-568.3199999999999h-993.28c-51.2 0-92.16 46.08-92.16 97.28v61.44c0 56.32 40.96 97.28 92.16 97.28h998.4c51.2 0 92.16-46.08 92.16-97.28v-61.44c-5.12-51.2-46.08-97.28-97.28-97.28z m40.960000000000036 158.72c0 25.6-15.36 46.08-40.96 46.08h-993.28c-25.6 0-40.96-20.48-40.96-46.08v-61.44c0-25.6 15.36-46.08 40.96-46.08h998.4c20.48 0 35.84 20.48 35.84 46.08v61.44z m-1336.32 609.28h-46.08c-56.32 0-102.4 46.08-102.4 102.4v51.2c0 56.32 46.08 102.4 102.4 102.4h46.08c56.32 0 102.4-46.08 102.4-102.4v-51.2c0-56.32-46.08-102.4-102.4-102.4z m51.19999999999999 153.60000000000002c0 30.72-20.48 51.2-51.2 51.2h-46.08c-30.72 0-51.2-20.48-51.2-51.2v-51.2c0-30.72 20.48-51.2 51.2-51.2h46.08c30.72 0 51.2 20.48 51.2 51.2v51.2z m-51.20000000000002-512h-46.08c-56.32 0-102.4 46.08-102.4 102.4v51.2c0 56.32 46.08 102.4 102.4 102.4h46.08c56.32 0 102.4-46.08 102.4-102.4v-51.2c0-56.32-46.08-102.4-102.4-102.4z m51.20000000000002 153.60000000000002c0 30.72-20.48 51.2-51.2 51.2h-46.08c-30.72 0-51.2-20.48-51.2-51.2v-51.2c0-30.72 20.48-51.2 51.2-51.2h46.08c30.72 0 51.2 20.48 51.2 51.2v51.2z m-51.20000000000002-563.2h-46.08c-56.32 0-102.4 46.08-102.4 102.4v51.2c0 56.32 46.08 102.4 102.4 102.4h46.08c56.32 0 102.4-46.08 102.4-102.4v-51.2c0-56.32-46.08-102.4-102.4-102.4z m51.20000000000002 153.6c0 30.72-20.48 51.2-51.2 51.2h-46.08c-30.72 0-51.2-20.48-51.2-51.2v-51.2c0-30.72 20.48-51.2 51.2-51.2h46.08c30.72 0 51.2 20.48 51.2 51.2v51.2z"/></svg>