<svg viewBox="0 0 1024 1051.5676" xmlns="http://www.w3.org/2000/svg"><path d="M512 12.0516c-281.6 0-512 230.4-512 512s230.4 512 512 512c281.6 0 512-230.4 512-512s-230.4-512-512-512z m0 972.8c-256 0-460.8-204.8-460.8-460.8s204.8-460.8 460.8-460.8c256 0 460.8 204.8 460.8 460.8s-204.8 460.8-460.8 460.8z m-35.839999999999975-629.76v-138.24l-271.36 271.36 271.36 271.36v-133.12c56.32-20.48 102.4-25.6 138.24-25.6 102.4 0 153.6 61.44 204.8 163.84 0-343.04-204.8-409.6-343.04-409.6z m138.23999999999995 194.56000000000006c-46.08 0-92.16 10.24-153.6 30.72l-35.84 10.24v51.2l-148.48-153.6 148.48-148.48v66.56h51.2c81.92 0 209.92 25.6 261.12 179.2-30.72-25.6-71.68-35.84-122.88-35.84z"/></svg>