<svg viewBox="0 0 1033.941 1051.5676" xmlns="http://www.w3.org/2000/svg"><path d="M258.486 966.4596c79.534 49.709 159.068 69.592 258.485 69.592 89.476 0 178.951-19.883 258.485-69.592s139.184-109.359 188.893-188.893c49.709-79.534 69.592-159.068 69.592-258.485 0-89.476-19.883-178.951-69.592-258.485-59.65-69.592-119.301-139.184-198.835-178.951-79.534-49.709-159.068-69.592-258.485-69.592-89.476 0-178.951 19.883-248.544 69.592-79.534 39.767-149.126 109.359-188.893 188.893-49.709 69.592-69.592 159.068-69.592 248.544s19.883 178.951 69.592 258.485c39.767 79.534 109.359 139.184 188.893 188.893z m-79.53399999999999-457.321l59.65-59.65c9.942-9.942 19.883-9.942 29.825-9.942s19.883 0 29.825 9.942l149.126 149.126 268.427-268.427c19.883-9.942 29.825-19.883 39.767-19.883s19.883 0 29.825 9.942l59.65 59.65c9.942 9.942 9.942 19.883 9.942 29.825s0 19.883-9.942 29.825l-367.845 367.845c0 9.942-9.942 9.942-29.825 9.942-9.942 0-19.883 0-29.825-9.942l-238.602-238.602c-9.942-9.942-9.942-19.883-9.942-29.825 0-19.883 0-29.825 9.942-29.825v0z"/></svg>