<svg viewBox="0 0 1033.941 1051.5676" xmlns="http://www.w3.org/2000/svg"><path d="M954.408 270.5366c-49.709-79.534-109.359-149.126-188.893-188.893-79.534-49.709-159.068-69.592-258.485-69.592-89.476 0-178.951 19.883-248.544 69.592-79.534 39.767-149.126 109.359-188.893 188.893-49.709 69.592-69.592 159.068-69.592 248.544s19.883 178.951 69.592 258.485c49.709 79.534 109.359 139.184 188.893 188.893s159.068 69.592 258.485 69.592c89.476 0 178.951-19.883 258.485-69.592s139.184-109.359 188.893-188.893c49.709-79.534 69.592-159.068 69.592-258.485-9.942-89.476-29.825-178.951-79.534-248.544z m-357.903-19.88300000000001c0 9.942 0 9.942-9.942 19.883 0 0-9.942 9.942-19.883 9.942h-119.301c-9.942 0-9.942 0-19.883-9.942 0 0-9.942-9.942-9.942-19.883v-109.359c0-9.942 0-9.942 9.942-19.883 0 0 9.942-9.942 19.883-9.942h129.243c9.942 0 9.942 0 19.883 9.942 0 9.942 0 9.942 0 19.883z m89.476 596.505c0 9.942 0 9.942-9.942 19.883 0 0-9.942 9.942-19.883 9.942h-298.252c-9.942 0-9.942 0-19.883-9.942 0 0-9.942-9.942-9.942-19.883v-109.359c0-9.942 0-9.942 9.942-19.883 0 0 9.942-9.942 19.883-9.942h59.65v-208.777h-59.65c-9.942 0-9.942 0-19.883-9.942 0 0-9.942-9.942-9.942-19.883v-99.417c0-9.942 0-9.942 9.942-19.883 0 0 9.942-9.942 19.883-9.942h208.777c9.942 0 9.942 0 19.883 9.942s9.942 19.883 9.942 19.883v338.019h59.65c9.942 0 9.942 0 19.883 9.942 0 0 9.942 9.942 9.942 19.883v109.359z"/></svg>