<svg viewBox="0 0 1024 1051.5676" xmlns="http://www.w3.org/2000/svg"><path d="M960 12.0516h-896c-35.2 0-64 28.8-64 64v896c0 35.2 28.8 64 64 64h896c35.2 0 64-28.8 64-64v-896c0-35.2-28.8-64-64-64z m-448 140.79999999999998l147.2 144h-92.8v128h-99.2v-128h-96l140.8-144z m-371.2 371.20000000000005l147.2-144v96h128v99.2h-128v92.8l-147.2-144z m371.2 371.20000000000005l-144-147.2h92.8v-128h99.2v128h96l-144 147.2z m227.20000000000005-227.20000000000005v-96h-128v-99.2h128v-92.8l144 147.2-144 140.8z"/></svg>