<svg viewBox="0 0 1133.714 1051.5676" xmlns="http://www.w3.org/2000/svg"><path d="M592.457 63.2516c-204.8 0-299.886 80.457-299.886 80.457l-102.4-102.4c0 0-58.514-58.514-58.514 0l-124.343 460.8c0 0-7.314 36.571 36.571 29.257l475.429-117.029c0 0 65.829 0 7.314-58.514 0 0-58.514-58.514-102.4-102.4 7.314 7.314 7.314-43.886 175.543-43.886 204.8 0 365.714 146.286 365.714 336.457s-160.914 329.143-365.714 329.143c-138.971 0-263.314-36.571-329.143-146.286-29.257-58.514-175.543-29.257-138.971 36.571 87.771 160.914 263.314 270.629 468.114 270.629 285.257 0 533.943-212.114 533.943-482.743-7.314-270.629-256-490.057-541.257-490.057z"/></svg>