<svg viewBox="0 0 1260.308 1051.5676" xmlns="http://www.w3.org/2000/svg"><path d="M1173.662 181.4056h-259.938c0 0 0-3.938 0-63.015s-47.262-106.338-110.277-106.338h-346.585c-59.077 0-110.277 47.262-110.277 106.338s0 63.015 0 63.015h-259.938c-47.262 0-86.646 39.385-86.646 86.646v681.354c0 47.262 39.385 86.646 86.646 86.646h1087.015c47.262 0 86.646-39.385 86.646-86.646v-681.354c0-47.262-39.385-86.646-86.646-86.646z m-543.508 681.354c-145.723 0-259.938-114.215-259.938-256s118.154-256 259.938-256c145.723 0 259.938 114.215 259.938 256 3.938 141.785-114.215 256-259.938 256z"/></svg>