<svg viewBox="0 0 1039 1051.5676" xmlns="http://www.w3.org/2000/svg"><path d="M190.171 524.0516l424.229-402.286c7.314-7.314 7.314-14.629 7.314-21.943s-7.314-14.629-7.314-21.943l-51.2-51.2c-7.314-7.314-14.629-7.314-21.943-7.314s-14.629 7.314-21.943 7.314l-497.371 475.429c-7.314 7.314-7.314 14.629-7.314 21.943s7.314 14.629 7.314 21.943l497.371 475.429c7.314 7.314 14.629 7.314 21.943 7.314s14.629-7.314 21.943-7.314l51.2-51.2c7.314-7.314 7.314-14.629 7.314-21.943s-7.314-14.629-7.314-21.943l-424.229-402.286z m409.59999999999997 0l424.229-402.286c7.314-7.314 7.314-14.629 7.314-21.943s-7.314-14.629-7.314-21.943l-51.2-51.2c-7.314-7.314-14.629-7.314-21.943-7.314s-14.629 7.314-21.943 7.314l-497.371 475.429c-7.314 7.314-7.314 14.629-7.314 21.943s7.314 14.629 7.314 21.943l497.371 475.429c7.314 7.314 14.629 7.314 21.943 7.314s14.629-7.314 21.943-7.314l51.2-51.2c7.314-7.314 7.314-14.629 7.314-21.943s-7.314-14.629-7.314-21.943l-424.229-402.286z"/></svg>