<svg viewBox="0 0 1039 1051.5676" xmlns="http://www.w3.org/2000/svg"><path d="M629.029 524.0516c0-7.314-7.314-14.629-7.314-21.943l-497.371-475.429c-7.314-7.314-14.629-7.314-21.943-7.314s-14.629 7.314-21.943 7.314l-51.2 51.2c-7.314 7.314-7.314 14.629-7.314 21.943s7.314 14.629 7.314 21.943l424.229 402.286-424.229 402.286c-7.314 7.314-7.314 14.629-7.314 21.943s7.314 14.629 7.314 21.943l51.2 51.2c7.314 7.314 14.629 7.314 21.943 7.314s14.629-7.314 21.943-7.314l497.371-475.429c0 0 7.314-14.629 7.314-21.943z m394.971-21.942999999999984l-497.371-475.429c-7.314-7.314-14.629-7.314-21.943-7.314s-14.629 7.314-21.943 7.314l-51.2 51.2c-7.314 7.314-7.314 14.629-7.314 21.943s7.314 14.629 7.314 21.943l424.229 402.286-424.229 402.286c-7.314 7.314-7.314 14.629-7.314 21.943s7.314 14.629 7.314 21.943l51.2 51.2c7.314 7.314 14.629 7.314 21.943 7.314s14.629-7.314 21.943-7.314l497.371-475.429c7.314-7.314 7.314-14.629 7.314-21.943 7.314-7.314 0-14.629-7.314-21.943z"/></svg>