<svg viewBox="0 0 1149.9522 1051.5676" xmlns="http://www.w3.org/2000/svg"><path d="M979.2852 467.1626c0 0 102.4-11.378 125.156-34.133 11.378-11.378 45.511-45.511 45.511-91.022 0-68.267-79.644-102.4-113.778-102.4-22.756 0-79.644-11.378-79.644-11.378-91.022-170.667-193.422-204.8-238.933-227.556-34.133-11.378 45.511 125.156 45.511 125.156-22.756-34.133-182.044-79.644-216.178-68.267-34.133 22.756 79.644 102.4 102.4 125.156 34.133 22.756 113.778 45.511 136.533 68.267s11.378 79.644 11.378 79.644c0 34.133-11.378 34.133-11.378 34.133-11.378 0-11.378 0-11.378 0-22.756-11.378-136.533-204.8-455.111-125.156-227.556 56.889-227.556 250.311-227.556 329.956-22.756 0-79.644-11.378-91.022 68.267-11.378 91.022 102.4 91.022 136.533 45.511l22.756 56.889c0 0 22.756 68.267 56.889 68.267 11.378 0 22.756 22.756 22.756 34.133s-11.378 34.133 0 45.511c22.756 22.756 56.889 34.133 147.911 45.511 11.378 0 34.133 0 68.267 0 0 11.378 11.378 45.511 22.756 45.511 0 11.378 125.156 45.511 113.778 22.756s-22.756-56.889-34.133-68.267c11.378 0 11.378 0 22.756 0 22.756 0 34.133-34.133 11.378-45.511-11.378 0-22.756-11.378-34.133-11.378 0 0 0 0 0 0 0-22.756 45.511-45.511 91.022-91.022 238.933 11.378 386.844-193.422 341.333-284.444-22.756-34.133-11.378-34.133-11.378-34.133z m-466.48900000000003 329.956c-11.378 22.756-34.133 22.756-45.511 45.511 0 11.378 0 11.378 0 22.756-22.756 0-45.511-11.378-45.511-11.378s-68.267-11.378-45.511-68.267c11.378-22.756 91.022-68.267 125.156-56.889 11.378 0 11.378 11.378 11.378 22.756 0 0 0 0 0 11.378s0 34.133 0 34.133z"/></svg>