<svg viewBox="0 0 1638.4 1051.5676" xmlns="http://www.w3.org/2000/svg"><path d="M235.52 124.6916l512 501.76 71.68 71.68 71.68-71.68 512-501.76 112.64 112.64-696.32 675.84-696.32-675.84 112.64-112.64z m1167.3600000000001-112.63999999999999c-20.48 0-30.72 10.24-40.96 20.48l-542.72 522.24-542.72-522.24c-10.24-10.24-20.48-20.48-40.96-20.48s-30.72 10.24-51.2 20.48l-163.84 163.84c-10.24 10.24-20.48 20.48-20.48 40.96s10.24 30.72 20.48 40.96l757.76 737.28c10.24 10.24 20.48 20.48 40.96 20.48s30.72-10.24 40.96-20.48l757.76-737.28c10.24-10.24 20.48-20.48 20.48-40.96s-10.24-30.72-20.48-40.96l-163.84-163.84c-20.48-10.24-30.72-20.48-51.2-20.48v0z"/></svg>