<svg viewBox="0 0 1638.4 1051.5676" xmlns="http://www.w3.org/2000/svg"><path d="M819.2 124.6916l696.32 675.84-112.64 112.64-512-491.52-71.68-71.68-71.68 71.68-512 501.76-112.64-112.64 696.32-686.08z m0-112.63999999999999c-20.48 0-30.72 10.24-51.2 20.48l-747.52 727.04c-10.24 20.48-20.48 30.72-20.48 51.2s10.24 30.72 20.48 40.96l163.84 163.84c20.48 10.24 30.72 20.48 51.2 20.48s30.72-10.24 40.96-20.48l542.72-522.24 542.72 522.24c10.24 10.24 30.72 20.48 40.96 20.48 20.48 0 30.72-10.24 40.96-20.48l163.84-163.84c20.48-10.24 30.72-30.72 30.72-40.96 0-20.48-10.24-30.72-20.48-40.96l-757.76-737.28c-10.24-10.24-20.48-20.48-40.96-20.48v0z"/></svg>