<svg viewBox="0 0 1603 1051.5676" xmlns="http://www.w3.org/2000/svg"><path d="M14.841 857.9646l163.246 163.246c14.841 14.841 29.681 14.841 44.522 14.841s29.681 0 44.522-14.841l534.261-534.261 534.261 534.261c0 14.841 14.841 14.841 44.522 14.841 14.841 0 29.681 0 44.522-14.841l163.246-163.246c14.841-14.841 14.841-29.681 14.841-44.522s0-29.681-14.841-44.522l-742.029-742.029c-14.841-14.841-29.681-14.841-44.522-14.841s-29.681 0-44.522 14.841l-742.029 742.029c-14.841 14.841-14.841 29.681-14.841 44.522s0 29.681 14.841 44.522v0z"/></svg>