<svg viewBox="0 0 1303.893 1051.5676" xmlns="http://www.w3.org/2000/svg"><path d="M907.947 80.3186c0 6.827 0 13.653 0 20.48v197.973c0 54.613 40.96 109.227 116.053 109.227h184.32c6.827 0 13.653 0 20.48 0s6.827 0 6.827 0v539.307c0 13.653-13.653 27.307-27.307 27.307h-1112.747c-13.653-6.827-27.307-20.48-27.307-34.133v-832.853c0-13.653 13.653-27.307 27.307-27.307h812.373z m116.053-68.267h-928.427c-54.613 0-95.573 40.96-95.573 95.573v839.68c0 47.787 40.96 88.747 95.573 88.747h1112.747c47.787 0 95.573-40.96 95.573-95.573v-648.533l-279.893-279.893z m-6.826999999999998 327.68c-47.787 0-47.787-40.96-47.787-40.96v-197.973c0-27.307 6.827-34.133 13.653-34.133 13.653 0 27.307 20.48 27.307 20.48l225.28 225.28c27.307 27.307 0 34.133-13.653 34.133-6.827 0-13.653 0-13.653 0h-191.147v-6.827z"/></svg>