<svg viewBox="0 0 1297 1051.5676" xmlns="http://www.w3.org/2000/svg"><path d="M93.298 1013.2956c-38.684 0-70.542-31.858-70.542-70.542v-837.404c0-38.684 31.858-70.542 70.542-70.542h919.324l261.689 266.24v641.707c0 38.684-31.858 70.542-70.542 70.542h-1110.471z m1110.471-653.0840000000001c2.276 0 9.102 0 15.929 0 27.307 0 43.236-6.827 50.062-22.756s0-31.858-15.929-47.787l-223.004-225.28c-6.827-9.102-22.756-25.031-40.96-25.031-9.102 0-15.929 2.276-22.756 9.102-11.378 9.102-15.929 25.031-15.929 50.062v195.698c0 27.307 18.204 65.991 68.267 65.991h184.32z"/></svg>