<svg viewBox="0 0 1299.343 1051.5676" xmlns="http://www.w3.org/2000/svg"><path d="M932.979 57.5626c-4.551 13.653-4.551 27.307-4.551 40.96v195.698c0 43.236 31.858 88.747 91.022 88.747h182.044c4.551 0 9.102 0 15.929 0 13.653 0 25.031-2.276 31.858-4.551v564.338c0 27.307-20.48 47.787-47.787 47.787h-1108.196c-27.307 0-47.787-20.48-47.787-47.787v-837.404c0-27.307 20.48-47.787 47.787-47.787h839.68z m88.74599999999998-45.511h-928.427c-52.338 0-93.298 40.96-93.298 93.298v837.404c0 52.338 40.96 93.298 93.298 93.298h1112.747c50.062 0 93.298-40.96 93.298-93.298v-650.809l-277.618-279.893z m-2.2749999999999773 325.404c-45.511 0-45.511-43.236-45.511-43.236v-195.698c0-27.307 4.551-36.409 11.378-36.409 11.378 0 25.031 18.204 25.031 18.204l225.28 225.28c27.307 29.582 2.276 31.858-15.929 31.858-6.827 0-13.653 0-13.653 0h-186.596z"/></svg>