<svg viewBox="0 0 1034.24 1051.5676" xmlns="http://www.w3.org/2000/svg"><path d="M983.04 247.5716l-184.32-184.32c-20.48-20.48-71.68-40.96-112.64-40.96h-614.4c-30.72 0-61.44 30.72-61.44 61.44v890.88c0 30.72 30.72 61.44 61.44 61.44h901.12c30.72 0 61.44-30.72 61.44-61.44v-614.4c-10.24-40.96-30.72-92.16-51.2-112.64z m-552.96-122.88c0-10.24 10.24-20.48 20.48-20.48h133.12c10.24 0 20.48 10.24 20.48 20.48v215.04c0 10.24-10.24 20.48-20.48 20.48h-133.12c-10.24 0-20.48-10.24-20.48-20.48v-215.04z m337.9200000000001 829.44h-512v-256h512v256z m174.08000000000004 0h-81.92v-276.48c0-30.72-30.72-61.44-61.44-61.44h-552.96c-30.72 0-61.44 30.72-61.44 61.44v276.48h-81.92v-849.92h81.92v276.48c0 30.72 30.72 61.44 61.44 61.44h389.12c30.72 0 61.44-30.72 61.44-61.44v-276.48c10.24 0 40.96 10.24 51.2 20.48l184.32 184.32c10.24 10.24 20.48 40.96 20.48 51.2v593.92z"/></svg>