<svg viewBox="0 0 640 1051.5676" xmlns="http://www.w3.org/2000/svg"><path d="M140.8 88.8516l422.4 435.2-422.4 435.2-70.4-70.4 313.6-320 44.8-44.8-44.8-44.8-313.6-320 70.4-70.4z m0-76.80000000000001c-12.8 0-19.2 6.4-25.6 12.8l-102.4 102.4c-6.4 12.8-12.8 19.2-12.8 32s6.4 19.2 12.8 25.6l326.4 339.2-326.4 339.2c-6.4 6.4-12.8 12.8-12.8 25.6s6.4 19.2 12.8 25.6l102.4 102.4c6.4 12.8 12.8 19.2 25.6 19.2s19.2-6.4 25.6-12.8l460.8-473.6c6.4-6.4 12.8-12.8 12.8-25.6s-6.4-19.2-12.8-25.6l-454.4-473.6c-12.8-6.4-19.2-12.8-32-12.8v0z"/></svg>