<svg viewBox="0 0 1025.4067 1051.5676" xmlns="http://www.w3.org/2000/svg"><path d="M1009.967 12.0516c-14.629 0-43.886 29.257-43.886 29.257l-95.086 117.029c0 0-138.971-131.657-336.457-131.657 0 0-7.314 0-7.314 0-285.257 0-526.629 219.429-526.629 504.686 0 0 0 58.514 80.457 58.514 0 0 80.457 0 80.457-58.514 0-197.486 153.6-351.086 358.4-351.086 182.857 0 234.057 80.457 241.371 80.457 0 0 0 0 0 0v0c0 0 0 0 0 0l-124.343 102.4c-58.514 58.514 0 58.514 7.314 58.514 0 0 0 0 0 0h351.086c0 0 7.314 0 7.314 0 29.257 0 21.943-29.257 21.943-29.257v-351.086c0-21.943-7.314-29.257-14.629-29.257v0z m-65.82799999999997 453.486c0 0-80.457 0-80.457 58.514 0 197.486-153.6 351.086-358.4 351.086-182.857 0-234.057-80.457-241.371-80.457 0 0 0 0 0 0v0c0 0 0 0 0 0l131.657-109.714c58.514-58.514-7.314-58.514-7.314-58.514s0 0 0 0h-351.086c0 0-7.314 0-7.314 0-36.571 0-29.257 29.257-29.257 29.257v351.086c0 21.943 7.314 29.257 14.629 29.257 14.629 0 43.886-29.257 43.886-29.257l95.086-117.029c0 0 138.971 131.657 336.457 131.657 0 0 7.314 0 7.314 0 285.257 0 519.314-226.743 519.314-504.686 7.314 7.314 7.314-51.2-73.143-51.2v0z"/></svg>