<svg viewBox="0 0 1055.031 1051.5676" xmlns="http://www.w3.org/2000/svg"><path d="M31.031 896.4156l124.121 124.121c0 15.515 15.515 15.515 46.545 15.515 15.515 0 46.545-15.515 62.061-31.03l248.242-248.242 263.758 263.758c15.515 15.515 31.03 31.03 62.061 31.03 15.515 0 46.545-15.515 62.061-31.03l124.121-124.121c15.515-15.515 31.03-31.03 31.03-62.061s-31.03-31.03-46.545-46.545l-263.758-263.758 248.242-248.242c15.515-15.515 31.03-31.03 31.03-62.061 0-15.515-15.515-46.545-31.03-62.061l-108.606-108.606c-15.515-15.515-31.03-31.03-62.061-31.03-15.515 0-31.03 15.515-46.545 31.03l-263.758 248.242-248.242-248.242c-15.515-15.515-46.545-31.03-62.061-31.03-31.03 0-46.545 15.515-62.061 31.03l-108.606 108.606c-15.515 15.515-31.03 31.03-31.03 62.061 0 15.515 15.515 46.545 31.03 62.061l248.242 248.242-248.242 263.758c-15.515 15.515-31.03 31.03-31.03 46.545s15.515 46.545 31.03 62.061v0z"/></svg>