<?xml version="1.0" encoding="utf-8"?>
<!-- Generator: Adobe Illustrator 19.0.0, SVG Export Plug-In . SVG Version: 6.00 Build 0)  -->
<svg version="1.1" id="Layer_1" xmlns="http://www.w3.org/2000/svg" xmlns:xlink="http://www.w3.org/1999/xlink" x="0px" y="0px"
	 width="21px" height="20px" viewBox="0 0 21 20" enable-background="new 0 0 21 20" xml:space="preserve">
<g id="XMLID_1_">
	<path id="XMLID_3_" fill="none" d="M11.1,2.3L11,2.4V18c0.7-0.4,1.8-0.8,3.4-0.8c0.3,0,0.6,0,0.9,0c2,0.1,3.6,0.7,4.7,1.1V2.6
		C19.3,2.1,17.5,1,15.2,1C13.2,1,11.8,1.8,11.1,2.3z"/>
	<path id="XMLID_12_" fill="none" d="M6.5,1C4.2,1,2,2,1,2.4v16c1.4-0.5,3.6-1.2,5.8-1.2c1.5,0,2.5,0.3,3.2,0.7V2.4L9.9,2.3
		C9.3,1.8,8,1,6.5,1z"/>
	<path id="XMLID_19_" fill="#102633" d="M15.2,0c-2.4,0-4,1-4.7,1.6C9.8,1,8.3,0,6.5,0C3.1,0,0,1.8,0,1.8V20c0,0,3.4-1.8,6.8-1.8
		c3.4,0,3.7,1.8,3.7,1.8s0.4-1.8,3.9-1.8c0.2,0,0.5,0,0.8,0C18.6,18.5,21,20,21,20V2.1C21,2.1,18.6,0,15.2,0z M10,18
		c-0.7-0.4-1.7-0.7-3.2-0.7c-2.2,0-4.4,0.7-5.8,1.2v-16C2,2,4.2,1,6.5,1C8,1,9.3,1.8,9.9,2.3L10,2.4V18z M20,18.4
		c-1.1-0.5-2.8-1-4.7-1.1c-0.3,0-0.6,0-0.9,0c-1.6,0-2.7,0.3-3.4,0.8V2.4l0.1-0.1c0.6-0.5,2-1.3,4.1-1.3c2.3,0,4.1,1.1,4.8,1.6V18.4
		z"/>
</g>
</svg>
