<?xml version="1.0" encoding="utf-8"?>
<!-- Generator: Adobe Illustrator 18.1.1, SVG Export Plug-In . SVG Version: 6.00 Build 0)  -->
<svg version="1.1" id="Layer_1" xmlns="http://www.w3.org/2000/svg" xmlns:xlink="http://www.w3.org/1999/xlink" x="0px" y="0px"
	 viewBox="0 0 25 23" enable-background="new 0 0 25 23" xml:space="preserve">
<g>
	<path fill="none" d="M9.4,10.3h1.4h0.4l0.3,0.3l1,1l1-1l0.3-0.3h0.4h1.4c0.8,0,1.4-0.6,1.4-1.3V2.3C17,1.6,16.4,1,15.6,1H9.4
		C8.6,1,8,1.6,8,2.3V9C8,9.8,8.6,10.3,9.4,10.3z M14,2h1v7.2h-1V2z M12,2h1v7.2h-1V2z M10,2h1v7.2h-1V2z"/>
	<path fill="#102633" d="M9.4,11.3h1.4l1.7,1.7l1.7-1.7h1.4c1.3,0,2.4-1,2.4-2.3V2.3C18,1,16.9,0,15.6,0H9.4C8.1,0,7,1,7,2.3V9
		C7,10.3,8.1,11.3,9.4,11.3z M8,2.3C8,1.6,8.6,1,9.4,1h6.2C16.4,1,17,1.6,17,2.3V9c0,0.7-0.6,1.3-1.4,1.3h-1.4h-0.4l-0.3,0.3l-1,1
		l-1-1l-0.3-0.3h-0.4H9.4C8.6,10.3,8,9.8,8,9V2.3z"/>
	<path fill="#102633" d="M8.9,17H0v3h8.9c-0.2-0.5-0.3-1-0.3-1.5C8.6,18,8.7,17.5,8.9,17z"/>
	<path fill="#102633" d="M16.1,17c0.2,0.5,0.3,1,0.3,1.5c0,0.5-0.1,1-0.3,1.5H25v-3H16.1z"/>
	<rect x="14" y="2" fill="#102633" width="1" height="7.2"/>
	<rect x="12" y="2" fill="#102633" width="1" height="7.2"/>
	<rect x="10" y="2" fill="#102633" width="1" height="7.2"/>
	<circle fill="#102633" cx="12.5" cy="18.5" r="2.6"/>
</g>
</svg>
