<?xml version="1.0" encoding="utf-8"?>
<!-- Generator: Adobe Illustrator 18.1.1, SVG Export Plug-In . SVG Version: 6.00 Build 0)  -->
<svg version="1.1" id="Layer_1" xmlns="http://www.w3.org/2000/svg" xmlns:xlink="http://www.w3.org/1999/xlink" x="0px" y="0px"
	 width="6.6px" height="6.6px" viewBox="0 0 6.6 6.6" enable-background="new 0 0 6.6 6.6" xml:space="preserve">
<path d="M0.2,5.7l0.8,0.8C1,6.6,1.1,6.6,1.3,6.6c0.1,0,0.3-0.1,0.4-0.2l1.6-1.6L5,6.5c0.1,0.1,0.2,0.2,0.4,0.2
	c0.1,0,0.3-0.1,0.4-0.2l0.8-0.8c0.1-0.1,0.2-0.2,0.2-0.4S6.6,5.1,6.5,5L4.8,3.3l1.6-1.6c0.1-0.1,0.2-0.2,0.2-0.4
	c0-0.1-0.1-0.3-0.2-0.4L5.7,0.2C5.6,0.1,5.5,0,5.3,0C5.2,0,5.1,0.1,5,0.2L3.3,1.8L1.7,0.2C1.6,0.1,1.4,0,1.3,0C1.1,0,1,0.1,0.9,0.2
	L0.2,0.9C0.1,1,0,1.1,0,1.3c0,0.1,0.1,0.3,0.2,0.4l1.6,1.6L0.2,5C0.1,5.1,0,5.2,0,5.3S0.1,5.6,0.2,5.7L0.2,5.7z" fill="#FFFFFF"/>
</svg>
