<?xml version="1.0" encoding="utf-8"?>
<!-- Generator: Adobe Illustrator 18.1.1, SVG Export Plug-In . SVG Version: 6.00 Build 0)  -->
<svg version="1.1" id="Layer_1" xmlns="http://www.w3.org/2000/svg" xmlns:xlink="http://www.w3.org/1999/xlink" x="0px" y="0px"
	 viewBox="0 0 22 20" enable-background="new 0 0 22 20" xml:space="preserve">
<g>
	<path fill="none" d="M19.9,1H2C1.5,1,1,1.5,1,2v11.3c0,0.6,0.5,1,1,1h3.4h1l0,1l0,2.4l3.6-3.2l0.3-0.3h0.4h9.3c0.6,0,1-0.5,1-1V2
		C21,1.5,20.5,1,19.9,1z"/>
	<path fill="#010101" d="M19.9,0H2C0.9,0,0,0.9,0,2v11.3c0,1.1,0.9,2,2,2h3.4l0,4.6l5.2-4.6h9.3c1.1,0,2-0.9,2-2V2
		C22,0.9,21.1,0,19.9,0z M21,13.3c0,0.6-0.5,1-1,1h-9.3h-0.4L10,14.6l-3.6,3.2l0-2.4l0-1h-1H2c-0.6,0-1-0.5-1-1V2c0-0.6,0.5-1,1-1
		h17.9c0.6,0,1,0.5,1,1V13.3z"/>
</g>
</svg>
