<?xml version="1.0" encoding="utf-8"?>
<!-- Generator: Adobe Illustrator 19.0.0, SVG Export Plug-In . SVG Version: 6.00 Build 0)  -->
<svg version="1.1" id="Layer_1" xmlns="http://www.w3.org/2000/svg" xmlns:xlink="http://www.w3.org/1999/xlink" x="0px" y="0px"
	 width="15px" height="15px" viewBox="0 0 15 15" enable-background="new 0 0 15 15" xml:space="preserve">
<g id="XMLID_2_">
	<path id="XMLID_8_" fill="none" d="M7.5,1C3.9,1,1,3.9,1,7.5S3.9,14,7.5,14S14,11.1,14,7.5S11.1,1,7.5,1z M8,11.3H6.9v-1.1H8V11.3z
		 M7.9,8.7v0.5h-1V8.6c0-1.7,1.9-1.9,1.9-3.2c0-0.6-0.5-1.1-1.3-1.1c-0.7,0-1.3,0.5-1.3,0.5L5.7,4.1c0,0,0.7-0.7,1.9-0.7
		c1.2,0,2.3,0.8,2.3,2C9.9,7.2,7.9,7.4,7.9,8.7z"/>
	<path id="XMLID_5_" fill="#FFFFFF" d="M7.5,0C3.4,0,0,3.4,0,7.5C0,11.6,3.4,15,7.5,15S15,11.6,15,7.5C15,3.4,11.6,0,7.5,0z M7.5,14
		C3.9,14,1,11.1,1,7.5S3.9,1,7.5,1S14,3.9,14,7.5S11.1,14,7.5,14z"/>
	<rect id="XMLID_4_" x="6.9" y="10.2" fill="#FFFFFF" width="1.1" height="1.1"/>
	<path id="XMLID_3_" fill="#FFFFFF" d="M7.6,3.4c-1.2,0-1.9,0.7-1.9,0.7l0.6,0.8c0,0,0.6-0.5,1.3-0.5c0.7,0,1.3,0.5,1.3,1.1
		c0,1.3-1.9,1.5-1.9,3.2v0.5h1V8.7c0-1.3,1.9-1.5,1.9-3.3C9.9,4.1,8.8,3.4,7.6,3.4z"/>
</g>
</svg>
