<?xml version="1.0" encoding="utf-8"?>
<!-- Generator: Adobe Illustrator 18.1.1, SVG Export Plug-In . SVG Version: 6.00 Build 0)  -->
<svg version="1.1" id="Layer_2" xmlns="http://www.w3.org/2000/svg" xmlns:xlink="http://www.w3.org/1999/xlink" x="0px" y="0px"
	 width="22px" height="20px" viewBox="0 0 22 20" enable-background="new 0 0 22 20" xml:space="preserve">
<path d="M20.8,18H3.1c-0.5,0-0.7-0.2-0.7-0.2c-0.2-0.2-0.3-0.6-0.3-0.8v-5.1c0.7-0.3,2.3-0.9,3.4-1.4c0.3,0.3,0.8,0.4,1.2,0.4
	c0.2,0,0.5,0,0.7-0.1l1.9,2.3c0,0.1,0,0.2,0,0.3c0,1.1,0.9,2,2,2s2-0.9,2-2c0-0.2,0-0.3-0.1-0.5l6.1-5.7c0.2,0,0.3,0.1,0.5,0.1
	c1.1,0,2-0.9,2-2s-0.9-2-2-2c-1.1,0-2,0.9-2,2c0,0.2,0,0.3,0.1,0.5l-6.1,5.7c-0.2,0-0.3-0.1-0.5-0.1c-0.2,0-0.4,0-0.6,0.1L8.7,9.2
	l0,0c0-0.1,0-0.2,0-0.3c0-1.1-0.9-2-2-2C5.8,7,5,7.7,4.8,8.6C3.6,9.1,2.7,9.5,2.1,9.7V1.3c0-0.6-0.4-1-1-1s-1,0.4-1,1l0,15.7
	c0,0.1,0,1.3,0.8,2.2c0.4,0.4,1,0.8,2.2,0.8h17.7c0.6,0,1-0.4,1-1S21.3,18,20.8,18z M19.7,4.3c0.5,0,1,0.4,1,1c0,0.5-0.4,1-1,1
	c-0.5,0-1-0.4-1-1C18.8,4.8,19.2,4.3,19.7,4.3z M12.3,13.4c0,0.5-0.4,1-1,1s-1-0.4-1-1c0-0.5,0.4-1,1-1S12.3,12.9,12.3,13.4z M6.8,8
	c0.5,0,1,0.4,1,1c0,0.5-0.4,1-1,1s-1-0.4-1-1C5.8,8.4,6.2,8,6.8,8z"/>
</svg>
