<?xml version="1.0" encoding="utf-8"?>
<!-- Generator: Adobe Illustrator 18.1.1, SVG Export Plug-In . SVG Version: 6.00 Build 0)  -->
<svg version="1.1" id="Layer_2" xmlns="http://www.w3.org/2000/svg" xmlns:xlink="http://www.w3.org/1999/xlink" x="0px" y="0px"
	 width="22px" height="20px" viewBox="0 0 22 20" enable-background="new 0 0 22 20" xml:space="preserve">
<path d="M452 917.2c-79-10.2-154.8-38-218.4-80.6-70.2-46.8-129.2-112-167.4-184.6-40-76.4-58.2-150.6-58.4-236 0-58.4 7-102 25.4-158 19.2-58.4 53-119.2 92.4-166 32.4-38.8 81.2-81.2 122.6-106.6 19-11.8 24.6-13 36.6-7.6 16.4 7.2 21.6 27.4 11 41.2-2.4 2.8-15 12.4-27.8 21-107 71.6-176 177.2-198.2 303-6.2 34.6-6.6 103.8-1.2 138.4 17.6 110.4 72 207.2 155.2 276.8 67.2 56.2 144.8 90.2 232.2 102 27.6 3.8 89.8 3.2 119-1 95.2-13.8 180.4-55.4 247.8-121 43.8-42.8 76.6-89 99.4-140.8 49-110.2 52-233 8.4-335-36.6-86.2-102.6-155.2-185.4-194.4-42.6-20.2-73.4-28.6-105.2-28.8-22.2-0.2-23.6 0-36.6 6.4-23.6 11.8-37 33.6-45.4 74-4.6 22.8-5 39.8-1.2 44.8 1.4 1.8 7 5.2 12.4 7.2 44.4 17.6 80.2 58.4 92.8 105.6 3.4 12.6 4.4 24.4 5.4 57.8 0.6 23.2 2 43.2 3.2 44.6 1 1.2 4.8 2.4 8.6 2.4 12.6 0 12.8 0.6 12.8 59 0 50.2-0.2 53-3.8 55-2.2 1-16.8 2-33.2 2h-29l-2 5.2c-1.2 3-2 35.8-2 78.8v73.6l-5 6.2c-9.6 11.2-26.6 12.8-38 3.8-10.6-8.4-11-11.2-11-91.4 0-65.4-0.4-74-3.2-75-1.8-0.6-27.2-1.2-56.6-1.2-38.8 0-54 0.6-55.8 2.4s-2.4 21.6-2.4 76.6c0 68-0.4 74.6-3.6 80.8-9.2 17-34 18.6-46 3.2-4.4-5.4-4.4-6.6-4.4-80.4 0-47.8-0.8-76.2-2-78.8-2-3.4-4.6-3.8-32-3.8-24.4 0-30.2-0.6-32.8-3.2-2.8-2.6-3.2-10.4-3.2-54.6 0-47.4 0.2-51.8 3.6-54.8 2-2 6.4-3.4 9.6-3.4 11.8 0 11.6 0 13-48.4 1.4-47.8 3-57 13.8-81 7.6-16.8 16.2-29.2 30.8-44.2 21.2-22 43.4-35 73.2-42.6 9.6-2.4 16.2-5.4 18.2-8 1.8-2.4 4-12.6 5.4-25.4 3.2-29.2 10.6-55.8 21.8-78.4 16.2-33.2 45.4-57.6 80.6-67.2 9.8-2.8 19.6-3.6 40-3.4 23.2 0.2 30.4 1 50.4 6.2 72.2 18.8 142.2 59.2 196.6 113.4 64.8 65 106 144.8 122.4 237 4.6 25.8 5.2 34.8 5.4 81 0.2 53.4-1 68.2-9 109-10.2 51.6-38.2 118.4-68.8 164-19.4 29-32.8 45.6-58 71.8-77 80-171 129.6-281 148.4-32 5.4-109.6 7-142 3z"/>
</svg>
