<?xml version="1.0" encoding="UTF-8"?>
<!DOCTYPE svg PUBLIC "-//W3C//DTD SVG 1.1//EN" "http://www.w3.org/Graphics/SVG/1.1/DTD/svg11.dtd">
<svg version="1.1" xmlns="http://www.w3.org/2000/svg" xmlns:xlink="http://www.w3.org/1999/xlink" x="0" y="0" width="32" height="32" viewBox="0, 0, 32, 32">
  <g id="Layer_1">
    <path d="M30,0 L2,0 C0.9,0 0,0.9 0,2 L0,30 C0,31.1 0.9,32 2,32 L30,32 C31.1,32 32,31.1 32,30 L32,2 C32,0.9 31.1,0 30,0 z M16,4.4 L20.6,8.9 L17.7,8.9 L17.7,12.9 L14.6,12.9 L14.6,8.9 L11.6,8.9 L16,4.4 z M4.4,16 L9,11.5 L9,14.5 L13,14.5 L13,17.6 L9,17.6 L9,20.5 L4.4,16 z M16,27.6 L11.5,23 L14.4,23 L14.4,19 L17.5,19 L17.5,23 L20.5,23 L16,27.6 z M23.1,20.5 L23.1,17.5 L19.1,17.5 L19.1,14.4 L23.1,14.4 L23.1,11.5 L27.6,16.1 L23.1,20.5 z" fill="#FFFFFF"/>
  </g>
</svg>
