<?xml version="1.0" standalone="no"?>
<!DOCTYPE svg PUBLIC "-//W3C//DTD SVG 1.1//EN" "http://www.w3.org/Graphics/SVG/1.1/DTD/svg11.dtd" >
<svg xmlns="http://www.w3.org/2000/svg">
<metadata></metadata>
<defs>
<font id="icomoon2regular" horiz-adv-x="1024" >
<font-face units-per-em="1024" ascent="960" descent="-64" />
<missing-glyph horiz-adv-x="512" />
<glyph horiz-adv-x="0" />
<glyph horiz-adv-x="0" />
<glyph horiz-adv-x="0" />
<glyph unicode=" "  horiz-adv-x="512" />
<glyph unicode="&#x09;" horiz-adv-x="512" />
<glyph unicode="&#xa0;" horiz-adv-x="512" />
<glyph unicode="1" horiz-adv-x="1382" d="M1331 960q23 0 37 -14t14 -37v-922q0 -23 -14 -37t-37 -14h-1280q-23 0 -37 14t-14 37v922q0 23 14 37t37 14h1280zM410 909h-359v-307h359v307zM717 909h-256v-307h256v307zM1024 909h-256v-307h256v307zM1331 909h-256v-307h256v307zM358 653h-256v205h256v-205z M666 653h-154v205h154v-205zM973 653h-154v205h154v-205zM1280 653h-154v205h154v-205zM410 550h-359v-153h359v153zM717 550h-256v-153h256v153zM1024 550h-256v-153h256v153zM1331 550h-256v-153h256v153zM410 346h-359v-154h359v154zM717 346h-256v-154h256v154z M1024 346h-256v-154h256v154zM1331 346h-256v-154h256v154zM410 141h-359v-154h359v154zM717 141h-256v-154h256v154zM1024 141h-256v-154h256v154zM1331 141h-256v-154h256v154z" />
<glyph unicode="2" horiz-adv-x="819" d="M717 960q42 0 72 -30t30 -72v-820q0 -42 -30 -72t-72 -30h-615q-42 0 -72 30t-30 72v820q0 42 30 72t72 30h615zM717 806q0 23 -14 37.5t-37 14.5h-512q-23 0 -37.5 -14.5t-14.5 -37.5v-716q0 -23 14.5 -37.5t37.5 -14.5h512q23 0 37 14.5t14 37.5v716zM154 806h512v-716 h-512v716zM256 653h51v51h-51v-51zM358 653h205v51h-205v-51zM256 499h51v51h-51v-51zM358 499h205v51h-205v-51zM256 346h51v51h-51v-51zM358 346h205v51h-205v-51zM256 192h51v51h-51v-51zM358 192h205v51h-205v-51z" />
<glyph unicode="3" horiz-adv-x="1126" d="M159 38q-19 0 -27 6l-9 5q-6 6 -10.5 18.5t-4.5 22.5v261l79 32q49 17 95 39q9 -9 26 -14.5t35 -5.5q24 0 36 5l97 -118v-15q0 -42 30 -72t73 -30q42 0 72 30t30 72q0 12 -5 26l312 291q5 0 13 -2q4 -3 13 -3q42 0 72 30t30 73q0 42 -30 72t-72 30t-72.5 -30t-30.5 -72 q0 -11 5 -26l-312 -292q-8 0 -13 3q-8 2 -12 2q-19 0 -31 -5l-103 118v15q0 43 -30 73t-72 30q-35 -4 -62.5 -28.5t-34.5 -58.5q-91 -40 -138 -57v430q0 23 -14.5 37.5t-37.5 14.5t-37 -14.5t-14 -37.5v-803l5 -41q5 -33 26 -59t51 -41q25 -13 72 -13h906q23 0 37 14t14 37 q0 21 -15 36t-36 15h-906zM1045 725q15 -15 15 -36t-15 -36.5t-36 -15.5q-22 0 -37 14.5t-15 37.5q4 21 19 36t33 15q21 0 36 -15zM384 535q15 -15 15 -36t-15 -36t-36 -15q-23 0 -37 14t-14 37t14 37t37 14q21 0 36 -15zM615 238q-15 -15 -36 -15q-23 0 -37.5 14t-14.5 37 q0 21 15.5 36t36.5 15t36 -15t15 -36t-15 -36z" />
<glyph unicode="4" d="M316 921q-93 -39 -165 -111t-111.5 -165.5t-39.5 -196.5t39.5 -197t111.5 -164q70 -72 164 -111.5t197 -39.5t196.5 39.5t165.5 111.5t111 165t39 196q0 105 -37 198.5t-105 163.5q-70 72 -165 111t-205 39q-103 0 -196 -39zM477 808q-20 -20 -16 -27q2 -2 2 -10 q0 -15 -5 -28t-13 -13q-5 0 -15 10q-61 70 -61 102v21q17 17 48.5 26.5t63.5 9.5q19 0 34 -3q15 -5 17 -8q-11 -23 -23 -25q-12 -1 -12 -21q0 -14 -20 -34zM717 801l3 13l2 28h5q9 0 31.5 -14t40.5 -32q-12 -46 -33 -56t-35 -10q-16 0 -27 6.5t-8 23.5zM317 791l-8 -2 q-9 -3 -17 -3h-10q-6 4 -14 5h-7l-15 -20l-3 -9l-7 -17q0 -8 3 -14l2 -7h10q7 0 16 1.5t9 4.5t-2 11l-3 4l-10 10l12 5q15 5 39 5h26q42 -3 42 -23v-3q0 -17 14 -25q9 -3 9 -10q0 -8 -10 -18q-21 -22 -24 -33q0 -4 -2 -4l-3 -1q-6 0 -11 10t-5 15l2 9v1q0 6 -17 11h-5 q-7 0 -11.5 -5t-3.5 -10q0 -6 4 -6q11 0 11 -25l-2 -20q-2 -14 -14 -32q-4 -19 -36 -23l-15 -2l4 -7l11 -19q3 -6 3 -17q0 -16 -1 -23l-2 -16q-4 0 -15.5 14.5t-14.5 26.5q-3 10 -7 12.5t-14 2.5t-15 -5l-11 -2q-7 -3 -15 -3q-15 0 -15 5h-5q-3 3 -8 3q-8 0 -18 -7l-25 -16 q-6 -3 -6 -9q0 -12 11 -12h10q5 5 15 5q13 0 13 -10q0 -5 -3.5 -13.5t-10.5 -6.5h-3q-6 0 -6 -6q0 -7 11 -16t15 -24q0 -4 3 -5t12 -1q21 0 46 11q7 5 36 5q15 0 26 -10q3 -16 27 -21q16 -4 23.5 -6.5l10.5 -3.5q17 0 35.5 -5.5t31.5 -15.5q8 -8 8 -16q0 -7 -8 -18 q-16 -19 -16 -27q0 -7 -8 -25t-17 -31q-8 -16 -13 -22.5t-13 -13.5q-6 -6 -14 -19l-6 -12v-41l6 -14q6 -14 14 -22q4 -8 -15 -66q-18 3 -27.5 8.5t-13.5 16.5q-4 16 -10 19q-6 2 -6 17q0 12 -12.5 27.5t-28.5 28.5q-6 14 -9 19q-6 11 -6 22q0 8 -13 17l-13 9q-11 5 -29.5 15 t-21.5 16q-4 7 -9.5 28.5t-5.5 32.5q0 16 5 56l9 9q3 3 3 7q0 6 -7 10q-6 6 -10 19t-5 22l-16 26l-8 12q-7 10 -12 23v31l-2 21q-3 12 -3 20q56 134 148 207q35 29 59 39l23 10zM595 717q0 9 3 21.5t6 16.5q3 6 10 11t16 10q2 0 2 -4l-1 -8l-6 -24q0 -15 -1 -18v-1 q0 -6 11 -17q12 -5 10 -7q-1 -3 -5 -3q-17 0 -41 10q-4 4 -4 13zM845 771l7 -7l3 -4h-5zM560 696q-9 7 -12 13q-1 1 -1 4q0 5 6 10.5t10 6.5q21 -7 21 -19q0 -6 -11 -22q-4 0 -13 7zM881 706q1 -3 5 -7l-10 10q4 0 5 -3zM896 663q-1 17 -5 26q12 -22 25.5 -55t22.5 -65 q16 -57 16 -84q0 -11 -3 -17l-13 8l-7 3h-62l36 -41l11 -13q10 -13 30 -13q-11 -122 -92 -227q-31 -40 -57 -63q-17 -14 -27 -14q-13 0 -13 16q0 7 1 9l4 13l5 36l5 61l-4 21q-5 20 -27 20q-8 0 -11 -1q-8 -1 -19 -9q-49 -12 -51 -14q-3 -3 -52 -7h-5q-41 0 -41 71 q0 27 5 52l-2 30q0 15 3 18q4 4 4 34q0 26 62 26l52 -2l25 -3q41 -26 61 -26q27 0 34 18l7 18l67 26l5 30l-36 41l-56 26l-10 -13q-3 -4 -3 -11q0 -13 13 -32q0 -9 -6 -22.5t-15 -13.5h-5l-56 71l-14 -17q-11 -15 -38 -34q-17 -10 -35 -10q-16 0 -33 5l-13 5q-4 12 -4 28 q0 29 19 39l46 -5l-2 19l-1 13q0 11 3.5 22.5t6.5 14.5q2 2 8 2h5q15 0 26 11l5 4q1 1 5 1q17 0 30 -18q14 -18 32 -18h5q27 5 26 9v1q0 6 15 15h10q16 0 23 -12l8 -13l51 -5v15z" />
<glyph unicode="5" horiz-adv-x="1113" d="M481 457l76 -76l75 76h63q43 0 74.5 30t31.5 72v299q0 42 -31.5 72t-74.5 30h-276q-44 0 -75.5 -29.5t-31.5 -72.5v-299q0 -43 31.5 -72.5t75.5 -29.5h62zM356 858q0 24 18 40.5t45 16.5h276q26 0 44 -17t18 -40v-299q0 -24 -18 -41t-44 -17h-81l-57 -57l-58 57h-80 q-27 0 -45 16t-18 42v299zM490 871v-321h-45v321h45zM579 871v-321h-45v321h45zM668 871v-321h-45v321h45zM638 54.5q-34 -33.5 -81 -33.5q-48 0 -82 33.5t-34 81.5t34 82t82 34q47 0 81 -34t34 -82t-34 -81.5zM0 203v-133h396q-13 33 -13 66q0 31 13 67h-396zM717 203 q13 -36 13 -67q0 -33 -13 -66h396v133h-396z" />
<glyph unicode="6" horiz-adv-x="819" d="M113 960q-46 0 -79.5 -33.5t-33.5 -79.5v-189h819v189q0 46 -33 79.5t-79 33.5h-594zM77 735v153h671v-153h-671zM0 49q0 -46 33.5 -79.5t79.5 -33.5h594q46 0 79 33.5t33 79.5v568h-819v-568zM148 545q16 0 26 -10t10 -26q0 -15 -10 -25t-26 -10h-35q-16 0 -26 10 t-10 25q0 13 10.5 24.5t25.5 11.5h35zM333 545q15 0 25.5 -10t10.5 -26q0 -15 -10.5 -25t-25.5 -10h-36q-15 0 -25.5 10t-10.5 25q0 13 11 24.5t25 11.5h36zM522 545q16 0 26 -10t10 -26q0 -15 -10 -25t-26 -10h-36q-15 0 -25 10t-10 25q-4 12 8 24t27 12h36zM707 545 q15 0 25 -10t10 -26q0 -15 -10 -25t-25 -10h-36q-16 0 -26 10t-10 25q0 13 10.5 24.5t25.5 11.5h36zM148 397q16 0 26 -10.5t10 -25.5t-10 -25.5t-26 -10.5h-35q-16 0 -26 10.5t-10 25.5q0 13 11 24.5t25 11.5h35zM333 397q15 0 25.5 -10.5t10.5 -25.5t-10.5 -25.5 t-25.5 -10.5h-36q-15 0 -25.5 10.5t-10.5 25.5q0 13 11 24.5t25 11.5h36zM522 397q16 0 26 -10.5t10 -25.5t-10 -25.5t-26 -10.5h-36q-15 0 -25 10.5t-10 25.5q-4 11 8 23.5t27 12.5h36zM707 397q15 0 25 -10.5t10 -25.5t-10 -25.5t-25 -10.5h-36q-16 0 -26 10.5t-10 25.5 q0 13 11 24.5t25 11.5h36zM148 238q16 0 26 -10t10 -26q0 -15 -10 -25.5t-26 -10.5h-35q-16 0 -26 10.5t-10 25.5q0 16 10 26t26 10h35zM333 238q15 0 25.5 -10t10.5 -26q0 -15 -10.5 -25.5t-25.5 -10.5h-36q-15 0 -25.5 10.5t-10.5 25.5q0 16 10.5 26t25.5 10h36zM522 238 q16 0 26 -10t10 -26q0 -15 -10 -25.5t-26 -10.5h-36q-15 0 -25 10.5t-10 25.5q-4 15 7.5 25.5t27.5 10.5h36zM742 49q0 -16 -10 -26t-25 -10h-36q-16 0 -26 10t-10 26v153q0 16 10 26t26 10h36q15 0 25 -10t10 -26v-153zM148 90q16 0 26 -10.5t10 -25.5q0 -16 -10 -26 t-26 -10h-35q-16 0 -26 10t-10 26q0 13 11 24.5t25 11.5h35zM333 90q15 0 25.5 -10.5t10.5 -25.5q0 -16 -10.5 -26t-25.5 -10h-36q-15 0 -25.5 10t-10.5 26q0 13 11 24.5t25 11.5h36zM522 90q16 0 26 -10.5t10 -25.5q0 -16 -10 -26t-26 -10h-36q-15 0 -25 10t-10 26 q-4 11 8 23.5t27 12.5h36z" />
<glyph unicode="7" horiz-adv-x="1382" d="M1290 960q39 0 65.5 -27t26.5 -65v-830q0 -42 -30 -72t-72 -30h-1178q-42 0 -72 30t-30 72v830q0 38 27 65t65 27h1198zM92 909q-15 0 -28 -13t-13 -28v-10q0 23 14 37t37 14h-10zM1331 868q0 15 -12.5 28t-28.5 13h-10q23 0 37 -14t14 -37v10zM51 704h1280v31h-1280v-31 zM1331 684h-1280v-646q0 -23 14 -37t37 -14h1178q23 0 37 14t14 37v646zM640 136h-51l159 343h51zM1106 274l-256 -118v77l169 82l-169 77v76l256 -122v-72zM543 151l-256 118v77l256 117v-76l-169 -77l169 -82v-77z" />
<glyph unicode="8" horiz-adv-x="1331" d="M92 960q-38 0 -65 -27t-27 -65v-840q0 -38 27 -65t65 -27h1147q38 0 65 27t27 65v650l-271 282h-968zM1015 661l-6 23v194q0 19 3 28q3 8 7 8q9 0 25 -21l221 -225q11 -13 11 -21q0 -6 -6.5 -8t-20.5 -2h-194q-35 0 -40 24zM963 909q-6 -13 -6 -36v-195q0 -24 12.5 -46 t34.5 -36q23 -15 51 -15h194q21 0 26 5v-558q0 -17 -12.5 -29t-28.5 -12h-1147q-15 0 -28 13t-13 28v840q0 17 12.5 29t28.5 12h876zM773 730v-52h-568v52h568zM773 576v-51h-568v51h568zM1126 422v-51h-921v51h921zM1126 269v-51h-921v51h921z" />
<glyph unicode="A" horiz-adv-x="1297" d="M93 -41q-29 0 -49.5 20.5t-20.5 49.5v838q0 29 20.5 49.5t49.5 20.5h920l261 -266v-642q0 -29 -20.5 -49.5t-49.5 -20.5h-1111zM1270 635q3 6 3 12q0 16 -19 35l-223 226q-22 25 -41 25q-14 0 -23 -9q-16 -13 -16 -50v-196q0 -27 18 -46.5t50 -19.5h201q39 0 50 23z" />
<glyph unicode="B" horiz-adv-x="1297" d="M93 960q-39 0 -66 -27t-27 -66v-838q0 -39 27 -66t66 -27h1113q38 0 65.5 27t27.5 66v651l-277 280h-929zM933 914q-5 -18 -5 -40v-196q0 -37 25 -63t66 -26h198q19 0 32 5v-565q0 -20 -13.5 -33.5t-34.5 -13.5h-1108q-20 0 -33.5 13.5t-13.5 33.5v838q0 20 13.5 33.5 t33.5 13.5h840zM980 657l-6 21v196q0 21 3 28q3 8 8 8q6 0 13.5 -6.5t11.5 -11.5l226 -226q12 -13 12 -20q0 -11 -28 -11h-201q-35 0 -39 22z" />
<glyph unicode="C" horiz-adv-x="1297" d="M93 -41q-29 0 -49.5 20.5t-20.5 49.5v838q0 29 20.5 49.5t49.5 20.5h920l261 -266v-642q0 -29 -20.5 -49.5t-49.5 -20.5h-1111zM1270 635q3 6 3 12q0 16 -19 35l-223 226q-22 25 -41 25q-14 0 -23 -9q-16 -13 -16 -50v-196q0 -27 18 -46.5t50 -19.5h201q39 0 50 23z" />
<glyph unicode="D" horiz-adv-x="1297" d="M93 960q-39 0 -66 -27t-27 -66v-838q0 -39 27 -66t66 -27h1113q38 0 65.5 27t27.5 66v651l-277 280h-929zM933 914q-5 -18 -5 -40v-196q0 -37 25 -63t66 -26h198q19 0 32 5v-565q0 -20 -13.5 -33.5t-34.5 -13.5h-1108q-20 0 -33.5 13.5t-13.5 33.5v838q0 20 13.5 33.5 t33.5 13.5h840zM980 657l-6 21v196q0 21 3 28q3 8 8 8q6 0 13.5 -6.5t11.5 -11.5l226 -226q12 -13 12 -20q0 -11 -28 -11h-201q-35 0 -39 22z" />
<glyph unicode="E" horiz-adv-x="1297" d="M96 -30q-26 0 -44 18t-18 44v832q0 26 18 44t44 18h860q-9 -8 -11.5 -19.5t-2.5 -35.5v-198q0 -32 21 -53.5t61 -21.5h198q27 0 41 14v-580q0 -26 -18 -44t-44 -18h-1105z" />
<glyph unicode="F" horiz-adv-x="1297" d="M96 960q-41 0 -68.5 -27.5t-27.5 -68.5v-839q0 -37 27.5 -63t68.5 -26h1112q37 0 66.5 28.5t29.5 67.5v648l-280 280h-928zM1017 632q-36 0 -42 21l-6 20v198q0 20 5 28q4 6 9 6q7 0 17 -8.5t10 -11.5l226 -225q11 -13 11 -20q0 -8 -7.5 -11.5t-17.5 -3.5h-205v7z M908 673q0 -46 32 -77.5t84 -31.5h212v-539q0 -10 -8.5 -19t-19.5 -9h-1112q-28 15 -28 35v832q0 11 8.5 19.5t19.5 8.5h812v-219z" />
<glyph unicode="H" horiz-adv-x="1297" d="M96 -30q-26 0 -44 18t-18 44v832q0 26 18 44t44 18h860q-9 -8 -11.5 -19.5t-2.5 -35.5v-198q0 -32 21 -53.5t61 -21.5h198q27 0 41 14v-580q0 -26 -18 -44t-44 -18h-1105z" />
<glyph unicode="I" horiz-adv-x="1297" d="M96 960q-41 0 -68.5 -27.5t-27.5 -68.5v-839q0 -37 27.5 -63t68.5 -26h1112q37 0 66.5 28.5t29.5 67.5v648l-280 280h-928zM1017 632q-36 0 -42 21l-6 20v198q0 20 5 28q4 6 9 6q7 0 17 -8.5t10 -11.5l226 -225q11 -13 11 -20q0 -8 -7.5 -11.5t-17.5 -3.5h-205v7z M908 673q0 -46 32 -77.5t84 -31.5h212v-539q0 -10 -8.5 -19t-19.5 -9h-1112q-28 15 -28 35v832q0 11 8.5 19.5t19.5 8.5h812v-219z" />
<glyph unicode="J" horiz-adv-x="973" d="M102 960q-42 0 -72 -30t-30 -72v-820q0 -42 30 -72t72 -30l768 410q43 0 73 30t30 72t-30 72t-73 30z" />
<glyph unicode="K" horiz-adv-x="1126" d="M366 869q-36 -16 -55 -28l-18 -13l-103 103l-29 22q-7 7 -16 7q-13 0 -13 -29l-125 -461l2 -17q1 -13 20 -13q12 0 15 1l475 117l26 7q9 3 9 10q0 14 -27 41l-103 103q6 -6 28 19t148 25q75 0 141.5 -25.5t118.5 -71.5q50 -46 77.5 -108t27.5 -132q0 -69 -27 -130 t-78 -106t-117 -69t-143 -24q-244 0 -329 146q-8 15 -26 23.5t-40 8.5q-32 0 -55.5 -14t-23.5 -34q0 -9 6 -20q68 -125 192.5 -198t275.5 -73q105 0 201.5 36.5t172.5 103.5q76 68 118 156.5t42 186.5q-3 98 -46.5 188t-120.5 159q-77 68 -174 105.5t-201 37.5 q-130 0 -226 -40z" />
<glyph unicode="M" horiz-adv-x="1039" d="M614 850q8 8 8 22q0 8 -4 12t-4 10l-51 51q-5 5 -9 6.5t-13 1.5q-6 0 -10 -4t-12 -4l-497 -475q-7 -7 -7 -22q0 -6 4 -10q3 -6 3 -12l497 -475q8 -8 22 -8q8 0 12 4t10 4l51 51q5 5 6.5 9t1.5 13q0 7 -4 11t-4 11l-424 402zM1024 850q7 7 7 22q0 6 -3 12q-4 4 -4 10 l-51 51q-8 8 -22 8q-7 0 -11 -4t-11 -4l-497 -475q-8 -8 -8 -22q0 -6 4 -10t4 -12l497 -475q5 -5 9 -6.5t13 -1.5q7 0 11 4t11 4l51 51q5 5 6 10.5t1 11.5q0 5 -3 11q-4 4 -4 11l-424 402z" />
<glyph unicode="N" horiz-adv-x="1039" d="M626 459q-4 4 -4 11l-498 475q-5 5 -9 6.5t-13 1.5q-6 0 -10 -4t-12 -4l-51 -51q-5 -5 -6 -10.5t-1 -11.5t4 -10q3 -6 3 -12l424 -402l-424 -402q-7 -7 -7 -22q0 -7 4 -11q3 -6 3 -11l51 -51q8 -8 22 -8q8 0 12 4t10 4l498 475l4 9q3 8 3 13t-3 11zM527 945q-8 8 -22 8 q-7 0 -11 -4t-11 -4l-51 -51q-5 -5 -6.5 -9t-1.5 -13q0 -6 4 -10t4 -12l424 -402l-424 -402q-8 -8 -8 -22q0 -7 4 -11t4 -11l51 -51q5 -5 9 -6.5t13 -1.5q7 0 11 4t11 4l497 475q7 7 7 22q3 3 3 6q0 6 -10 16z" />
<glyph unicode="O" horiz-adv-x="1138" d="M1033 514q33 4 52.5 14t28 20.5t22.5 31.5q13 20 13 50q0 29 -19 53t-48 37q-27 12 -47 12q-13 0 -38.5 4.5t-40.5 7.5q-71 129 -137 169q-68 40 -102 58q-2 1 -5 1q-6 0 -6 -7q0 -13 21 -52l35 -67q-8 12 -37 26.5t-66 25.5q-61 18 -96 18q-13 0 -19 -3.5t-6 -11.5 q0 -17 38 -49q61 -51 73 -63q27 -18 72 -34q49 -18 65 -35t13 -47l-3 -32q0 -24 -5 -29l-6 -5h-11q-9 5 -36 36q-34 38 -88.5 65.5t-128.5 39.5q-33 5 -59 5q-77 0 -157 -24.5t-118 -60.5q-43 -40 -66 -88t-26 -100q-4 -39 -4 -78l-20 1q-30 0 -47.5 -15t-23.5 -54 q-1 -3 -1 -13q0 -30 19 -46t49 -16q22 0 41 8t29 22l22 -57l16 -34q16 -34 41 -34q8 0 15.5 -12.5t7.5 -22.5q0 -11 -4 -22l-2 -10q0 -8 6 -13q17 -17 49 -27q26 -10 99 -19h68q0 -11 7.5 -28t15.5 -17q0 -7 40 -19t62 -12q17 0 12 8q-7 13 -17 39q-9 21 -17 29h22 q10 0 17 8t7 18q0 13 -12 20q-9 0 -17 6q-12 5 -17 5q0 18 28 37q29 19 63 54q81 -4 153.5 24.5t123.5 79.5q34 34 53 72t19 71q0 22 -8 38q-17 26 -14 30l2 4zM489 152q-14 -6 -23 -23v-22q-17 0 -31 6l-14 5q-22 4 -39 20q-12 11 -12 27q0 6 5 21q10 17 48.5 38t64.5 21 q19 0 22 -7q2 -8 2 -18v-45q-9 -17 -23 -23z" />
<glyph unicode="P" horiz-adv-x="2048" d="M2040 583l-9 2h-34q-69 -41 -113 -56q-49 -16 -75 -30q-32 96 -93.5 180t-145.5 147q-86 64 -186.5 99t-205.5 35q-95 0 -186 -26.5t-170 -77.5q-80 -51 -141.5 -120t-100.5 -151q-57 12 -64 48q-4 12 -4 37q0 50 -18.5 94t-51.5 77q-34 33 -81.5 50.5t-104.5 17.5 t-104 -18t-81 -52t-52.5 -82t-18.5 -104q0 -13 10.5 -23.5t23.5 -10.5h68q13 -64 49.5 -124t87.5 -98q37 -29 80.5 -45.5t120.5 -35.5l21 -5q0 -36 22.5 -62.5t62.5 -39.5l-51 -102q-13 -25 -13 -60q0 -34 13.5 -59.5t38.5 -38.5t63 -13h52q33 0 65 20t52 52q19 31 19 65 v119h751v-119q0 -33 20 -64.5t52 -52.5q32 -20 65 -20h51q29 0 60 14.5t42 36.5q20 42 20 70q0 30 -20 50l-51 85q24 0 48 15t39 39q15 23 15 48v35q128 65 156 132q19 44 19 79q0 18 -4 27q0 13 -8 16z" />
<glyph unicode="Q" horiz-adv-x="658" d="M244 765v-293h-49v293h49zM341 765v-293h-48v293h48zM439 765v-293h-49v293h49z" />
<glyph unicode="R" horiz-adv-x="896" d="M128 960v-1024h-128v1024h128zM512 960v-1024h-128v1024h128zM896 960v-1024h-128v1024h128z" />
<glyph unicode="S" d="M313.5 921.5q-93.5 -38.5 -164.5 -109.5q-72 -72 -110.5 -165.5t-38.5 -198.5t38.5 -199t110.5 -164q70 -72 164 -110.5t199 -38.5t198.5 38.5t165.5 110.5q71 71 109.5 164.5t38.5 198.5q0 104 -38.5 198t-109.5 166q-72 71 -166 109.5t-198 38.5q-105 0 -198.5 -38.5z M380 688.5q19 -25.5 19 -56.5q0 -39 -15.5 -60.5t-45.5 -21.5q-25 0 -43.5 23t-18.5 59t18.5 59t43.5 23q23 0 42 -25.5zM718 688.5q19 -25.5 19 -56.5q2 -10 2 -20q0 -27 -18 -44.5t-45 -17.5q-30 0 -46 21.5t-16 60.5q0 36 18.5 59t43.5 23q23 0 42 -25.5zM311 213 l-55 -52l11 29q12 33 43 67t76 60q50 29 126 29q127 0 205 -92q29 -35 40 -64l11 -29l-55 52q-55 51 -201 51q-145 0 -201 -51z" />
<glyph unicode="T" d="M378.5 -47.5q61.5 -16.5 138.5 -16.5q151 0 258 70q116 72 189 188q37 59 53.5 120.5t16.5 138.5q0 151 -70 258q-63 74 -105.5 114.5t-92.5 64.5q-59 37 -120.5 53.5t-138.5 16.5q-152 0 -249 -70q-59 -29 -109 -79t-79 -109q-70 -97 -70 -249q0 -150 70 -259 q50 -102 188 -188q59 -37 120.5 -53.5zM239 523q10 10 29 10q20 0 30 -10l149 -150l269 269q16 8 24 14t16 6q19 0 29 -10l60 -60q10 -9 10 -25v-10q0 -15 -10 -24l-368 -368q0 -8 -7 -9q-3 -1 -23 -1h-4q-16 0 -25 10l-239 238q-10 10 -10 26q0 23 1 27q1 7 9 7z" />
<glyph unicode="U" d="M766 890q-59 37 -120.5 53.5t-138.5 16.5q-152 0 -249 -70q-59 -29 -109 -79t-79 -109q-70 -97 -70 -249q0 -145 68.5 -258.5t189.5 -188.5q59 -37 120.5 -53.5t138.5 -16.5q151 0 258 70q116 72 189 188q37 59 53.5 120.5t16.5 138.5q-11 84 -29 143.5t-51 105.5 q-86 138 -188 188zM595.5 711.5q-1.5 -2.5 -8.5 -9.5l-6 -5q-8 -5 -14 -5h-124q-7 0 -16 10l-4 6q-5 8 -5 13v110q0 6 1.5 10t7.5 10l7 5q8 5 13 5h130q8 0 15 -5l5 -5v-130q0 -7 -1.5 -9.5zM686 125q0 -8 -1.5 -10.5t-8.5 -9.5l-6 -5q-8 -5 -14 -5h-298q-8 0 -10.5 1.5 t-9.5 8.5l-5 6q-5 8 -5 14v109q0 8 1.5 10.5t8.5 9.5l6 5q8 5 14 5h60v209h-64q-5 0 -8.5 2.5t-7.5 7.5l-5 6q-5 8 -5 14v99q0 8 1.5 10.5t8.5 9.5l6 5q8 5 14 5h209q8 0 15 -5l5 -5q7 -7 9 -13l1 -7v-338h63q5 0 8.5 -2.5t7.5 -7.5l5 -6q5 -8 5 -14v-109z" />
<glyph unicode="V" d="M799 909q-16 16 -50 28.5t-63 12.5h-614q-23 0 -42.5 -19.5t-19.5 -42.5v-891q0 -23 19.5 -42t42.5 -19h901q23 0 42 19t19 42v615q-7 32 -21.5 64.5t-29.5 47.5zM860 18v276q0 23 -19 42.5t-42 19.5h-553q-23 0 -42.5 -19.5t-19.5 -42.5v-276h-82v850h82v-277 q0 -23 19.5 -42t42.5 -19h389q23 0 42 19t19 42v277q10 0 27 -6.5t25 -14.5l184 -184q8 -8 14 -24.5t6 -26.5v-594h-92zM430 847q0 8 6.5 14.5t14.5 6.5h133q7 0 13.5 -6.5t6.5 -14.5v-215q0 -7 -6.5 -13.5t-13.5 -6.5h-133q-8 0 -14.5 6.5t-6.5 13.5v215zM256 18v256h512 v-256h-512z" />
<glyph unicode="W" horiz-adv-x="882" d="M444 935l93 -135q-132 -90 -242 -231t-165 -325q-57 -9 -93.5 -52t-36.5 -102q0 -42 20 -77.5t56 -55.5q35 -21 78 -21q42 0 77.5 20t56.5 56q20 35 20 78q0 36 -16.5 67.5t-44.5 49.5q53 164 144.5 279t213.5 203l98 -148l179 419z" />
<glyph unicode="X" d="M20 960q-9 0 -16.5 -7.5t-7.5 -17.5v-139q0 -9 7.5 -16.5t16.5 -7.5q10 0 17.5 7.5t7.5 16.5v115h115q9 0 16.5 7.5t7.5 16.5q0 10 -6.5 17.5t-17.5 7.5h-140zM303 960q-9 0 -16.5 -7.5t-7.5 -17.5q0 -9 7.5 -16.5t16.5 -7.5h139q10 0 17.5 7.5t7.5 16.5q0 10 -7.5 17.5 t-17.5 7.5h-139zM582 960q-10 0 -17.5 -7.5t-7.5 -17.5q0 -9 7.5 -16.5t17.5 -7.5h139q9 0 16.5 7.5t7.5 16.5q0 10 -7.5 17.5t-16.5 7.5h-139zM860 960q-9 0 -16.5 -7.5t-7.5 -17.5q0 -9 7.5 -16.5t16.5 -7.5h115v-115q0 -9 7.5 -16.5t16.5 -7.5q10 0 17.5 7.5t7.5 16.5 v139q0 12 -7 18.5t-18 6.5h-139zM37.5 517q7.5 8 7.5 17v139q0 9 -7.5 17t-17.5 8q-9 0 -16.5 -8t-7.5 -17v-139q7 -25 24 -25q10 0 17.5 8zM982.5 673.5q-7.5 -7.5 -7.5 -16.5v-139q0 -10 7.5 -17.5t16.5 -7.5q10 0 17.5 7.5t7.5 17.5v139q0 11 -7.5 17.5t-17.5 6.5 q-9 0 -16.5 -7.5zM37.5 226.5q7.5 7.5 7.5 16.5v139q0 10 -7.5 17.5t-17.5 7.5q-9 0 -16.5 -7.5t-7.5 -17.5v-139q6 -24 24 -24q10 0 17.5 7.5zM982.5 395.5q-7.5 -7.5 -7.5 -17.5v-139q0 -9 7.5 -16.5t16.5 -7.5q10 0 17.5 7.5t7.5 16.5v139q0 10 -7.5 17.5t-17.5 7.5 q-9 0 -16.5 -7.5zM45 -15v115q0 9 -7.5 16.5t-17.5 7.5q-9 0 -16.5 -7.5t-7.5 -16.5v-139q0 -10 7.5 -17.5t16.5 -7.5h140q9 0 16.5 7.5t7.5 17.5t-6.5 17t-17.5 7h-115zM982.5 116.5q-7.5 -7.5 -7.5 -16.5v-115h-115q-9 0 -16.5 -7.5t-7.5 -16.5q0 -10 7.5 -17.5t16.5 -7.5 h139q10 0 17.5 7.5t7.5 17.5v139q0 9 -7.5 16.5t-17.5 7.5q-9 0 -16.5 -7.5zM303 -15q-9 0 -16.5 -7.5t-7.5 -16.5q0 -10 7.5 -17.5t16.5 -7.5h139q10 0 17.5 7.5t7.5 17.5q0 9 -7.5 16.5t-17.5 7.5h-139zM582 -15q-10 0 -17.5 -7.5t-7.5 -16.5q0 -10 7.5 -17.5t17.5 -7.5 h139q9 0 16.5 7.5t7.5 17.5q0 9 -7.5 16.5t-16.5 7.5h-139z" />
<glyph unicode="Y" horiz-adv-x="689" d="M50 926h252v-926h-252v926zM387 926h252v-926h-252v926z" />
<glyph unicode="Z" horiz-adv-x="692" d="M642 351v-177h-201l-92 -174l-106 174h-193v177h592z" />
<glyph unicode="a" d="M316 921q-93 -39 -165 -111t-111.5 -165.5t-39.5 -196.5t39.5 -197t111.5 -164q70 -72 164 -111.5t197 -39.5t196.5 39.5t165.5 111.5t111 165t39 196t-39 196.5t-111 165.5t-165.5 111t-196.5 39t-196 -39zM334 22q-84 35 -148 100q-65 64 -100 148t-35 178 q0 93 35.5 178t99.5 149t148.5 99t177.5 35t178 -35t149 -99t99 -149t35 -178t-35 -177.5t-99 -148.5t-149 -99.5t-178 -35.5q-94 0 -178 35zM476 755l-271 -271l271 -272v134q69 25 138 25q70 0 115.5 -38t89.5 -126q0 229 -119 334q-46 39 -103.5 57.5t-120.5 18.5v138z M461 392l-36 -11v-51l-149 154l149 148v-66h51q90 0 160 -41.5t101 -137.5q-44 35 -123 35q-61 0 -153 -30z" />
<glyph unicode="b" d="M316 921q-93 -39 -165 -111t-111.5 -165.5t-39.5 -196.5t39.5 -197t111.5 -164q70 -72 164 -111.5t197 -39.5t196.5 39.5t165.5 111.5t111 165t39 196t-39 196.5t-111 165.5t-165.5 111t-196.5 39t-196 -39zM334 22q-84 35 -148 100q-65 64 -100 148t-35 178 q0 93 35.5 178t99.5 149t148.5 99t177.5 35t178 -35t149 -99t99 -149t35 -178t-35 -177.5t-99 -148.5t-149 -99.5t-178 -35.5q-94 0 -178 35zM548 617q-63 0 -120.5 -18.5t-102.5 -57.5q-120 -103 -120 -334q44 88 89.5 126t115.5 38q47 0 138 -25v-139l271 277l-271 271 v-138zM748 484l-149 -149v46l-36 11q-92 30 -153 30q-79 0 -123 -35q36 93 105 136t156 43h51v66z" />
<glyph unicode="c" horiz-adv-x="1536" d="M102 960q-42 0 -72 -30t-30 -72v-52q0 -42 30 -72t72 -30h46q43 0 73 30t30 72v52q0 42 -30 72t-73 30h-46zM451 960q-38 0 -65.5 -29t-27.5 -68v-62q0 -42 27 -69.5t66 -27.5h998q38 0 65 29t27 68v62q-4 39 -32.5 68t-64.5 29h-993zM200 806q0 -23 -14 -37t-38 -14h-46 q-23 0 -37 14t-14 37v52q0 23 14 37t37 14h46q24 0 38 -14t14 -37v-52zM1485 801q0 -19 -11.5 -32.5t-29.5 -13.5h-993q-19 0 -30 13t-11 33v62q0 20 11 33t30 13h998q15 0 25.5 -13.5t10.5 -32.5v-62zM102 550q-42 0 -72 -30t-30 -72v-51q0 -42 30 -72.5t72 -30.5h46 q43 0 73 30.5t30 72.5v51q0 42 -30 72t-73 30h-46zM451 550q-39 0 -66 -29t-27 -68v-61q0 -42 27 -70t66 -28h998q38 0 65 29.5t27 68.5v61q-4 40 -31.5 68.5t-65.5 28.5h-993zM200 397q0 -23 -14 -37t-38 -14h-46q-23 0 -37 14t-14 37v51q0 23 14 37t37 14h46q24 0 38 -14 t14 -37v-51zM1485 392q0 -20 -11 -33t-30 -13h-993q-20 0 -30.5 12.5t-10.5 33.5v61q0 20 11 33t30 13h998q15 0 25.5 -13.5t10.5 -32.5v-61zM102 192q-42 0 -72 -30t-30 -72v-52q0 -42 30 -72t72 -30h46q43 0 73 30t30 72v52q0 42 -30 72t-73 30h-46zM451 192 q-38 0 -65.5 -29t-27.5 -68v-62q0 -42 27 -69.5t66 -27.5h998q38 0 65 29t27 68v62q-4 39 -32.5 68t-64.5 29h-993zM200 38q0 -23 -14 -37t-38 -14h-46q-23 0 -37 14t-14 37v52q0 23 14 37t37 14h46q24 0 38 -14t14 -37v-52zM1485 33q0 -19 -11.5 -32.5t-29.5 -13.5h-993 q-19 0 -30 13t-11 33v62q0 20 11 33t30 13h998q15 0 28 -14t13 -32v-62h-5z" />
<glyph unicode="d" horiz-adv-x="1075" d="M640 936.5q-62 -23.5 -102 -58.5q-41 35 -95 58.5t-110 23.5q-112 0 -232 -46q-44 -16 -73 -31l-28 -15v-932l30 15q72 34 162.5 55.5t155.5 21.5q131 0 161 -46l29 -46l33 46q31 46 166 46h41q112 -11 214 -52q37 -15 61 -28l22 -12v916l-22 17q-25 19 -65.5 39 t-88.5 35q-59 17 -121 17q-76 0 -138 -23.5zM512 38q-61 36 -164 36q-70 0 -135 -14t-162 -47v819q61 32 136 54.5t146 22.5q47 0 92 -19t82 -48l5 -5v-799zM1024 18q-51 23 -113.5 38t-127.5 18h-46q-115 0 -174 -41v804l5 5q36 29 90 48t120 19q128 0 246 -82v-809z" />
<glyph unicode="e" d="M891 550l-13 38q-12 34 -23 49l46 47q23 23 23 57q0 31 -23 60l-31 31q-11 12 -26 19t-30 7t-30 -7t-26 -19l-46 -46l-46 22q-26 12 -46 19v51q-4 36 -28.5 59t-59.5 23h-40q-35 0 -58.5 -23.5t-23.5 -58.5v-56l-22 -7q-26 -8 -39.5 -13.5t-31.5 -15.5l-46 46 q-34 26 -61 26q-15 0 -30 -7t-26 -19l-31 -31q-23 -23 -23 -57t23 -60l46 -47q-5 -15 -18 -41q-7 -16 -18 -46h-51q-33 0 -57.5 -24.5t-24.5 -57.5v-40q0 -35 23.5 -58.5t58.5 -23.5h56l14 -37q13 -36 22 -56l-51 -51q-23 -23 -23 -57q0 -32 23 -61l31 -25q11 -12 26 -19 t30 -7t30 7t26 19l51 51q19 -12 36 -19.5t57 -21.5v-51q0 -35 23.5 -58.5t58.5 -23.5h40q35 0 58.5 23.5t23.5 58.5v51l47 16q23 8 46 20l51 -51q11 -12 26 -19t30 -7t30 7t26 19l31 30q23 26 23 58q0 31 -23 60l-51 51q16 28 24.5 49t11.5 44h56q35 0 58.5 23.5t23.5 58.5 v40q0 33 -24.5 57.5t-57.5 24.5h-51zM973 422q0 -11 -9.5 -20.5t-21.5 -9.5h-97l-10 -36q-6 -34 -31 -77l-16 -36l77 -77q8 -8 8 -20t-8 -26l-30 -30q-4 -4 -10.5 -7.5t-10.5 -3.5t-10.5 3.5t-9.5 7.5l-77 76l-36 -20q-36 -24 -77 -31l-41 -5v-92q0 -12 -9.5 -21.5 t-21.5 -9.5h-40q-12 0 -21.5 9.5t-9.5 21.5v92l-36 10q-31 7 -77 31l-36 21l-76 -77q-4 -4 -10.5 -7.5t-10.5 -3.5q-11 0 -20 11l-31 30q-8 8 -8 22q0 11 8 25l72 71l-21 36q-24 41 -31 77l-10 36h-92q-12 0 -21.5 9.5t-9.5 20.5v46q0 12 9.5 21.5t21.5 9.5h92l10 36l16 39 l15 38l21 36l-77 76q-8 8 -8 21q0 12 8 20l30 31q4 4 10.5 7t10.5 3q13 0 20 -10l77 -77l36 21q29 17 82 36l36 10v92q0 12 9.5 21.5t21.5 9.5h40q12 0 21.5 -9.5t9.5 -21.5v-97l36 -10q53 -19 82 -36l36 -16l71 72q10 10 14 12.5t12 2.5q11 0 21 -10l30 -31q4 -3 7.5 -9.5 t3.5 -10.5q0 -10 -11 -21l-71 -71l20 -36q24 -36 31 -77l5 -41h92q12 0 21.5 -9.5t9.5 -21.5v-46zM428 594q-39 -23 -62 -62q-23 -40 -23 -84q0 -45 23 -84t62 -62q40 -23 84 -23q45 0 84 23t62 62q23 40 23 84q0 45 -23 84t-62 62q-40 23 -84 23q-45 0 -84 -23zM428 364 q-34 34 -34 84t34 84t84 34t84 -34t34 -84t-34 -84t-84 -34t-84 34z" />
<glyph unicode="f" d="M865 934l-92 -92l133 -133l92 92q27 27 27 67q0 41 -27 66q-15 12 -33 19t-33 7q-32 0 -67 -26zM948 906q2 -2 15 -7q11 -14 11 -28q0 -15 -11 -29l-57 -56l-56 56l56 57q13 10 26 10q9 0 16 -3zM645 765l184 -184l-225 -225q-4 -4 -4 -13q0 -8 4 -12.5t8 -4.5q2 -1 8 -1 q10 0 15 5l343 343q4 4 4 13t-4 13q-7 0 -12 3l-9 2q-10 0 -15 -5l-41 -41l-179 184zM860 632l-5 -5l-138 133l5 11zM118 187l133 -133l522 527l-128 133zM696 581l-450 -450l-57 56l451 450zM0 -64l225 92l-133 133zM128 49l-36 -16l16 36z" />
<glyph unicode="g" horiz-adv-x="1741" d="M6.5 952.5q-6.5 -7.5 -6.5 -18.5v-972q0 -11 6.5 -18.5t13.5 -7.5q11 0 16 5l886 487q15 8 15 20q0 13 -15 20l-886 487q-5 5 -16 5q-7 0 -13.5 -7.5zM1152 960q-11 0 -18.5 -12.5t-7.5 -28.5v-937q0 -19 7 -30t19 -11h205q11 0 18 12.5t7 28.5v937q0 14 -9 27.5 t-16 13.5h-205zM1510 960q-11 0 -18 -12.5t-7 -28.5v-937q0 -19 7 -30t18 -11h205q11 0 18.5 12.5t7.5 28.5v937q0 15 -8.5 28t-17.5 13h-205zM1331 -13h-153v922h153v-922zM1690 -13h-154v922h154v-922zM855 448l-804 -440v880z" />
<glyph unicode="h" d="M315 921q-94 -39 -165 -110q-72 -72 -111 -165.5t-39 -197.5t39 -198t111 -164q70 -72 164 -111t198 -39t197.5 39t165.5 111q71 71 110 165t39 197t-39 197t-110 166q-72 71 -166 110t-197 39t-197 -39zM552 333h-74v41q0 87 64 118t64 97q0 11 -3 18q-3 6 -3 16 q-25 34 -75 34q-35 0 -61 -17l-26 -17l-7 7l-34 47l34 24q35 23 94 23q66 0 110.5 -37t44.5 -98q0 -90 -64 -123t-64 -99v-34zM478 192v74h74v-74h-74z" />
<glyph unicode="i" horiz-adv-x="1638" d="M1597 530q-223 270 -470 373q-144 59 -291 59q-69 0 -135 -12q64 -21 114.5 -65.5t78.5 -104.5t28 -127q0 -61 -23.5 -117.5t-66.5 -99.5t-99.5 -66.5t-118.5 -23.5t-118 23.5t-98 66.5q-43 43 -67 99t-24 118q0 67 36 148q-114 -79 -213 -176q-38 -38 -58 -61l-21 -24 q-56 -59 -56 -108q0 -23 14 -46l42 -66q166 -196 349.5 -288.5t379.5 -92.5q127 0 262.5 39.5t255.5 108.5q108 62 189.5 125.5t120.5 107.5q38 46 38 90q0 27 -13 52z" />
<glyph unicode="j" d="M64 960q-26 0 -45 -19t-19 -45v-896q0 -26 19 -45t45 -19h896q26 0 45 19t19 45v896q0 26 -19 45t-45 19h-896zM659 675h-93v-128h-99v128h-96l141 144zM288 592v-96h128v-99h-128v-93l-147 144zM739 400h-128v99h128v93l144 -147l-144 -141v96zM368 224h93v128h99v-128 h96l-144 -147z" />
<glyph unicode="l" horiz-adv-x="1260" d="M914 791v63q0 45 -31.5 75.5t-79.5 30.5h-346q-45 0 -77.5 -31t-32.5 -75v-63h-260q-36 0 -61.5 -26t-25.5 -61v-681q0 -36 25.5 -61.5t61.5 -25.5h1087q35 0 60.5 25.5t25.5 61.5v681q0 35 -25.5 61t-60.5 26h-260zM529.5 128.5q-47.5 19.5 -83.5 55.5q-37 37 -56.5 83 t-19.5 98q0 51 20.5 98.5t56.5 83.5q36 35 83.5 54.5t99.5 19.5q54 0 101.5 -19t83.5 -55q36 -35 55.5 -82t19.5 -100q2 -51 -17 -97.5t-56 -83.5q-36 -36 -84.5 -55.5t-102.5 -19.5q-53 0 -100.5 19.5z" />
<glyph unicode="m" horiz-adv-x="1059" d="M565.5 932.5q-65.5 -27.5 -114.5 -76.5q-51 -49 -78 -113t-27 -136q0 -60 18 -113.5t53 -94.5l-53 -53q30 -26 49 -50l53 53q51 -45 111 -68.5t126 -23.5q72 0 137.5 27.5t114.5 76.5t76.5 114t27.5 135t-27 133.5t-77 113.5q-49 49 -114.5 76t-137.5 27t-137.5 -27.5z M602.5 366.5q-49.5 20.5 -85.5 56.5q-37 37 -58 85.5t-21 101.5t21 101.5t58 85.5t86 57.5t103 20.5t103.5 -20t86.5 -56q37 -37 58 -86t21 -103q-2 -54 -23.5 -102.5t-57.5 -84.5q-37 -36 -86 -56.5t-102 -20.5q-54 0 -103.5 20.5zM385 264q-22 28 -50 50l-28 -25 q-19 10 -39 10q-29 0 -46 -20l-201 -198q-21 -21 -21 -49q0 -29 21 -50l25 -25q21 -21 51 -21q29 0 48 21l201 198q20 20 20 47q0 19 -9 38z" />
<glyph unicode="n" horiz-adv-x="1130" d="M1112 961q-20 0 -62 -24q-63 -37 -139 -108q-43 -37 -150 -134l-48 -44q-16 -13 -30 -27l-125 -112l145 -152l199 248q9 13 57 71l54 69q71 90 97 142q19 37 19 56q0 7 -3 10q-5 5 -14 5zM572 197q18 20 46 56q25 34 60 75l-152 155l-27 -25l-100 -91zM94 9 q-29 -10 -58 -10q-19 0 -25 1h-11l71 -29q84 -34 173 -34q72 0 129 18t102 68t69 143l-177 173l-32 -5q-34 -7 -66 -28t-55 -54q-27 -37 -27 -101q0 -110 -93 -142z" />
<glyph unicode="o" horiz-adv-x="981" d="M751 948q-14 14 -32 14q-21 0 -38 -17l-34 -37l37 -34l-34 -37l-37 34l-30 -34l73 -67l-34 -37l-70 71l-34 -37l37 -34l-34 -37l-37 34l-33 -37l70 -70l-37 -40l-70 70l-34 -36l37 -34l-34 -37l-37 34l-33 -34l70 -67l-33 -37l-71 67l-34 -33l37 -34l-34 -37l-33 34 l-34 -34l73 -67l-33 -37l-71 67l-34 -33l34 -34l-34 -37l-33 34l-34 -37l74 -67l-34 -37l-77 67l-11 -22q-3 -7 -3 -14q0 -17 17 -34l215 -206q14 -14 32 -14q21 0 38 17l669 721q13 13 13 33q0 24 -16 37z" />
<glyph unicode="p" horiz-adv-x="965" d="M607 931l71 -98q-192 -136 -355.5 -318.5t-237.5 -379.5q-37 -5 -61 -32t-24 -66q0 -41 28 -69.5t70 -28.5q41 0 69.5 28.5t28.5 69.5q0 33 -20 59q69 184 218.5 349.5t342.5 309.5l72 -98l156 303z" />
<glyph unicode="q" d="M683 277v342h-342v341h-341v-1024h1024v341h-341z" />
<glyph unicode="r" horiz-adv-x="1638" d="M1370 947l-8 -7l-543 -523l-543 523q-11 11 -19.5 15.5t-20.5 4.5q-15 0 -26 -6q-8 -7 -26 -14l-164 -164q-13 -13 -17 -24q-3 -7 -3 -17q0 -13 4.5 -21t15.5 -20l758 -738q13 -13 24 -17q8 -3 17 -3q18 0 33 13l8 7l758 738q20 17 20 41q0 13 -4.5 21.5t-15.5 19.5 l-164 164q-10 5 -25 14q-11 6 -26 6q-18 0 -33 -13zM748 346l71 -72l72 72l512 501l113 -112l-697 -676l-696 676l113 112z" />
<glyph unicode="s" horiz-adv-x="1638" d="M794 954l-26 -14l-748 -728l-13 -25q-7 -10 -7 -26q0 -18 13 -33l7 -8l164 -164l26 -13q10 -7 26 -7q12 0 21 5t19 15l543 523l543 -523q9 -8 21 -14t20 -6q18 0 33 13l8 7l164 164q13 6 21.5 19t8.5 22q0 24 -20 41l-758 738q-13 13 -23 17q-8 3 -18 3q-14 0 -25 -6z M1516 172l-113 -113l-512 491l-72 72l-71 -72l-512 -501l-113 112l696 686z" />
<glyph unicode="t" horiz-adv-x="1603" d="M757 -49q9 -9 18.5 -12t25.5 -3q17 0 26.5 3t18.5 12l742 742q9 9 12 18.5t3 25.5q0 17 -3 26.5t-12 18.5l-163 163q-9 9 -19 12t-26 3q-15 0 -33 -2q-11 -2 -11 -13l-535 -534l-534 534q0 11 -11 13q-18 2 -33 2q-16 0 -26 -3t-19 -12l-163 -163q-9 -9 -12 -18.5 t-3 -26.5q0 -15 2 -33q2 -11 13 -11z" />
<glyph unicode="u" horiz-adv-x="1603" d="M178 -49q9 -9 19 -12t26 -3t25.5 3t18.5 12l534 534l535 -534q0 -11 11 -13q18 -2 33 -2q16 0 26 3t19 12l163 163q9 9 12 19t3 26t-3 25.5t-12 18.5l-742 742q-9 9 -18.5 12t-26.5 3q-16 0 -25.5 -3t-18.5 -12l-742 -742q-9 -9 -12 -18.5t-3 -25.5t3 -26t12 -19z" />
<glyph unicode="v" horiz-adv-x="640" d="M484 956q-13 -7 -17 -9l-454 -467l-9 -16q-4 -4 -4 -16q0 -8 3 -13.5t10 -12.5l461 -473q9 -13 25 -13q8 0 13.5 3t12.5 10l102 102q2 4 9 17q4 4 4 15q0 8 -3 13.5t-10 12.5l-326 339l326 339q7 7 10 12.5t3 13.5q0 9 -4 16l-9 16l-102 102q-5 5 -13 9t-13 4 q-11 0 -15 -4zM570 813l-314 -320l-45 -45l45 -45l314 -320l-71 -70l-429 435l429 435z" />
<glyph unicode="w" horiz-adv-x="640" d="M127.5 957q-5.5 -3 -12.5 -10l-102 -102l-9 -16q-4 -7 -4 -16q0 -8 3 -13.5t10 -12.5l326 -339l-326 -339q-7 -7 -10 -12.5t-3 -13.5q0 -16 13 -25l102 -103q6 -10 11.5 -14.5t14.5 -4.5q16 0 25 13l461 473q7 7 10 12.5t3 13.5t-3 13.5t-10 12.5l-454 473l-16 9 q-7 4 -16 4q-8 0 -13.5 -3zM563 448l-422 -435l-71 70l314 320l45 45l-45 45l-314 320l71 70z" />
<glyph unicode="x" d="M982 946l-17 -15l-95 -117l-24 21q-58 49 -176 90q-65 20 -136 20h-7q-105 0 -201.5 -38t-169.5 -107q-75 -70 -115.5 -162.5t-40.5 -196.5l10 -29q10 -30 70 -30l41 8q40 7 40 51q0 72 26.5 136.5t75.5 113.5q49 48 115.5 74.5t140.5 26.5q138 0 187 -40q50 -41 55 -41 l-125 -102q-29 -29 -29 -42q0 -6 8 -9q26 -8 29 -8h358q22 0 22 15v366q0 16 -4 23q-4 6 -11 6q-10 0 -27 -14zM904 500q-41 -8 -41 -52q0 -72 -26.5 -136.5t-75.5 -112.5q-49 -49 -115 -75.5t-141 -26.5q-137 0 -186 40t-56 40l132 110q28 28 28 42q0 7 -9 10l-26 7h-359 q-26 0 -28 -15l-1 -15v-351q0 -14 5 -22q4 -7 10 -7q12 0 28 15l16 14l95 117l25 -20q28 -24 73 -48t102 -42q61 -21 136 -21h7q104 0 198.5 38.5t168.5 109.5q73 70 113 162t40 194l1 -1q1 0 1 2q0 5 -6 23q-9 28 -69 28z" />
<glyph unicode="y" d="M155 -48q0 -13 12 -14q18 -2 35 -2q11 0 30.5 9.5t31.5 21.5l248 248l264 -263q17 -17 29.5 -24.5t32.5 -7.5q11 0 30.5 10t31.5 22l124 124q16 16 23.5 29t7.5 33q0 23 -17 29q-15 6 -30 17l-263 264l248 248q17 17 24 29.5t7 32.5q0 12 -9.5 31.5t-21.5 30.5l-109 109 q-16 16 -29 23.5t-33 7.5q-18 0 -46 -31l-264 -248l-248 248q-12 12 -31.5 21.5t-30.5 9.5q-20 0 -33 -7.5t-29 -23.5l-109 -109q-16 -16 -23.5 -29t-7.5 -33q0 -11 9.5 -30.5t21.5 -31.5l248 -248l-248 -264q-31 -28 -31 -46q0 -12 9.5 -31.5t21.5 -30.5z" />
<glyph unicode="z" horiz-adv-x="4805" d="M197 -64q-89 0 -143 54t-54 143v630q0 89 54 143t143 54h4411q89 0 143 -54t54 -143v-630q0 -89 -54 -143t-143 -54h-4411z" />
<glyph unicode="&#x2000;" horiz-adv-x="486" />
<glyph unicode="&#x2001;" horiz-adv-x="972" />
<glyph unicode="&#x2002;" horiz-adv-x="486" />
<glyph unicode="&#x2003;" horiz-adv-x="972" />
<glyph unicode="&#x2004;" horiz-adv-x="324" />
<glyph unicode="&#x2005;" horiz-adv-x="243" />
<glyph unicode="&#x2006;" horiz-adv-x="162" />
<glyph unicode="&#x2007;" horiz-adv-x="162" />
<glyph unicode="&#x2008;" horiz-adv-x="121" />
<glyph unicode="&#x2009;" horiz-adv-x="194" />
<glyph unicode="&#x200a;" horiz-adv-x="54" />
<glyph unicode="&#x202f;" horiz-adv-x="194" />
<glyph unicode="&#x205f;" horiz-adv-x="243" />
<glyph unicode="&#x25fc;" horiz-adv-x="960" d="M0 960h960v-960h-960v960z" />
<glyph unicode="&#xe609;" horiz-adv-x="1126" d="M102 960q-42 0 -72 -30t-30 -72v-579q0 -42 30 -72t72 -30h174v-236l267 236h476q42 0 72 30t30 72v579q4 42 -26 72t-76 30h-917zM1075 279q0 -22 -15.5 -36.5t-35.5 -14.5h-497l-15 -16l-184 -163v174h-226q-22 0 -36.5 15.5t-14.5 35.5v584q0 22 15.5 36.5t35.5 14.5 h917q22 0 36.5 -15.5t14.5 -35.5v-579h5z" />
<glyph unicode="&#xe629;" horiz-adv-x="964" d="M645 830v97q0 13 -10 23t-24 10h-256q-13 0 -23 -10t-10 -23v-97h-259q-25 0 -44 -18.5t-19 -44.5v-63q0 -26 19 -44.5t44 -18.5h835q26 0 44.5 19t18.5 44v63q2 26 -16.5 44.5t-43.5 18.5h-256zM386 830v67h192v-67h-192zM645 62v512h-130v-512h-63v512h-130v-512h-66 v512h-126v-608q0 -13 9.5 -23t23.5 -10h641q14 0 23.5 10t9.5 23v608h-129v-512h-63z" />
<glyph horiz-adv-x="512" />
<glyph />
</font>
</defs>
</svg>
