<?xml version="1.0" standalone="no"?>
<!DOCTYPE svg PUBLIC "-//W3C//DTD SVG 1.1//EN" "http://www.w3.org/Graphics/SVG/1.1/DTD/svg11.dtd" >
<svg xmlns="http://www.w3.org/2000/svg">
<metadata></metadata>
<defs>
<font id="icomoon2regular" horiz-adv-x="2048" >
<font-face units-per-em="2048" ascent="1920" descent="-128" />
<missing-glyph horiz-adv-x="1024" />
<glyph horiz-adv-x="0" />
<glyph horiz-adv-x="682" />
<glyph unicode=" "  horiz-adv-x="1024" />
<glyph unicode="&#x09;" horiz-adv-x="1024" />
<glyph unicode="&#xa0;" horiz-adv-x="1024" />
<glyph unicode="1" horiz-adv-x="2764" d="M0 -26v1844q0 46 28 74t74 28h2560q46 0 74 -28t28 -74v-1844q0 -46 -28 -74t-74 -28h-2560q-46 0 -74 28t-28 74zM102 -26h718v308h-718v-308zM102 384h718v308h-718v-308zM102 794h718v306h-718v-306zM102 1204h718v614h-718v-614zM204 1306v410h512v-410h-512z M922 -26h512v308h-512v-308zM922 384h512v308h-512v-308zM922 794h512v306h-512v-306zM922 1204h512v614h-512v-614zM1024 1306v410h308v-410h-308zM1536 -26h512v308h-512v-308zM1536 384h512v308h-512v-308zM1536 794h512v306h-512v-306zM1536 1204h512v614h-512v-614z M1638 1306v410h308v-410h-308zM2150 -26h512v308h-512v-308zM2150 384h512v308h-512v-308zM2150 794h512v306h-512v-306zM2150 1204h512v614h-512v-614zM2252 1306v410h308v-410h-308z" />
<glyph unicode="2" horiz-adv-x="1638" d="M0 76v1640q0 84 60 144t144 60h1230q84 0 144 -60t60 -144v-1640q0 -84 -60 -144t-144 -60h-1230q-84 0 -144 60t-60 144zM204 180q0 -46 29 -75t75 -29h1024q46 0 74 29t28 75v1432q0 46 -28 75t-74 29h-1024q-46 0 -75 -29t-29 -75v-1432zM308 180v1432h1024v-1432 h-1024zM512 384h102v102h-102v-102zM512 692h102v102h-102v-102zM512 998h102v102h-102v-102zM512 1306h102v102h-102v-102zM716 384h410v102h-410v-102zM716 692h410v102h-410v-102zM716 998h410v102h-410v-102zM716 1306h410v102h-410v-102z" />
<glyph unicode="3" horiz-adv-x="2252" d="M10 180l10 -82q10 -66 52 -118t102 -82q50 -26 144 -26h1812q46 0 74 28t28 74q0 42 -30 72t-72 30h-1812q-38 0 -54 12l-18 10q-12 12 -21 37t-9 45v522l158 64q98 34 190 78q18 -18 52 -29t70 -11q48 0 72 10l194 -236v-30q0 -84 60 -144t146 -60q84 0 144 60t60 144 q0 24 -10 52l624 582q10 0 26 -4q8 -6 26 -6q84 0 144 60t60 146q0 84 -60 144t-144 60t-145 -60t-61 -144q0 -22 10 -52l-624 -584q-16 0 -26 6q-16 4 -24 4q-38 0 -62 -10l-206 236v30q0 86 -60 146t-144 60q-70 -8 -125 -57t-69 -117q-182 -80 -276 -114v860q0 46 -29 75 t-75 29t-74 -29t-28 -75v-1606zM594 998q0 46 28 74t74 28q42 0 72 -30t30 -72t-30 -72t-72 -30q-46 0 -74 28t-28 74zM1054 548q0 42 31 72t73 30t72 -30t30 -72t-30 -72t-72 -30q-46 0 -75 28t-29 74zM1914 1378q8 42 38 72t66 30q42 0 72 -30t30 -72t-30 -73t-72 -31 q-44 0 -74 29t-30 75z" />
<glyph unicode="4" d="M0 896q0 -206 79 -394t223 -328q140 -144 328 -223t394 -79t393 79t331 223t222 330t78 392q0 210 -74 397t-210 327q-140 144 -330 222t-410 78q-206 0 -392 -78t-330 -222t-223 -331t-79 -393zM154 1162q112 268 296 414q70 58 118 78l46 20l20 -92l-16 -4 q-18 -6 -34 -6h-20q-12 8 -28 10h-14l-30 -40l-6 -18l-14 -34q0 -16 6 -28l4 -14h20q14 0 32 3t18 9t-4 22l-6 8l-20 20l24 10q30 10 78 10h52q84 -6 84 -46v-6q0 -34 28 -50q18 -6 18 -20q0 -16 -20 -36q-42 -44 -48 -66q0 -8 -4 -8l-6 -2q-12 0 -22 20t-10 30l4 18v2 q0 12 -34 22h-10q-14 0 -23 -10t-7 -20q0 -12 8 -12q22 0 22 -50l-4 -40q-4 -28 -28 -64q-8 -38 -72 -46l-30 -4l8 -14l22 -38q6 -12 6 -34q0 -32 -2 -46l-4 -32q-8 0 -31 29t-29 53q-6 20 -14 25t-28 5t-30 -10l-22 -4q-14 -6 -30 -6q-30 0 -30 10h-10q-6 6 -16 6 q-16 0 -36 -14l-50 -32q-12 -6 -12 -18q0 -24 22 -24h20q10 10 30 10q26 0 26 -20q0 -10 -7 -27t-21 -13h-6q-12 0 -12 -12q0 -14 22 -32t30 -48q0 -8 6 -10t24 -2q42 0 92 22q14 10 72 10q30 0 52 -20q6 -32 54 -42q32 -8 47 -13l21 -7q34 0 71 -11t63 -31q16 -16 16 -32 q0 -14 -16 -36q-32 -38 -32 -54q0 -14 -16 -50t-34 -62q-16 -32 -26 -45t-26 -27q-12 -12 -28 -38l-12 -24v-82l12 -28q12 -28 28 -44q8 -16 -30 -132q-36 6 -55 17t-27 33q-8 32 -20 38q-12 4 -12 34q0 24 -25 55t-57 57q-12 28 -18 38q-12 22 -12 44q0 16 -26 34l-26 18 q-22 10 -59 30t-43 32q-8 14 -19 57t-11 65q0 32 10 112l18 18q6 6 6 14q0 12 -14 20q-12 12 -20 38t-10 44l-32 52l-16 24q-14 20 -24 46v62l-4 42q-6 24 -6 40zM738 1684v42q34 34 97 53t127 19q38 0 68 -6q30 -10 34 -16q-22 -46 -46 -50q-24 -2 -24 -42q0 -28 -40 -68 t-32 -54q4 -4 4 -20q0 -30 -10 -56t-26 -26q-10 0 -30 20q-122 140 -122 204zM1094 1426q0 10 12 21t20 13q42 -14 42 -38q0 -12 -22 -44q-8 0 -26 14t-24 26q-2 2 -2 8zM1126 648q0 54 10 104l-4 60q0 30 6 36q8 8 8 68q0 52 124 52l104 -4l50 -6q82 -52 122 -52 q54 0 68 36l14 36l134 52l10 60l-72 82l-112 52l-20 -26q-6 -8 -6 -22q0 -26 26 -64q0 -18 -12 -45t-30 -27h-10l-112 142l-28 -34q-22 -30 -76 -68q-34 -20 -70 -20q-32 0 -66 10l-26 10q-8 24 -8 56q0 58 38 78l92 -10l-4 38l-2 26q0 22 7 45t13 29q4 4 16 4h10 q30 0 52 22l10 8q2 2 10 2q34 0 60 -36q28 -36 64 -36h10q54 10 52 18v2q0 12 30 30h20q32 0 46 -24l16 -26l102 -10v30q-2 34 -10 52q24 -44 51 -110t45 -130q32 -114 32 -168q0 -22 -6 -34l-26 16l-14 6h-124l72 -82l22 -26q20 -26 60 -26q-22 -244 -184 -454 q-62 -80 -114 -126q-34 -28 -54 -28q-26 0 -26 32q0 14 2 18l8 26l10 72l10 122l-8 42q-10 40 -54 40q-16 0 -22 -2q-16 -2 -38 -18q-98 -24 -102 -28q-6 -6 -104 -14h-10q-82 0 -82 142zM1190 1434q0 18 6 43t12 33q6 12 20 22t32 20q4 0 4 -8l-2 -16l-12 -48q0 -30 -2 -36 v-2q0 -12 22 -34q24 -10 20 -14q-2 -6 -10 -6q-34 0 -82 20q-8 8 -8 26zM1392 1520l42 82l6 26l4 56h10q18 0 63 -28t81 -64q-24 -92 -66 -112t-70 -20q-32 0 -54 13t-16 47zM1690 1542l14 -14l6 -8h-10zM1752 1418q8 0 10 -6t10 -14z" />
<glyph unicode="5" horiz-adv-x="2226" d="M0 140h792q-26 66 -26 132q0 62 26 134h-792v-266zM624 1118q0 -86 63 -145t151 -59h124l152 -152l150 152h126q86 0 149 60t63 144v598q0 84 -63 144t-149 60h-552q-88 0 -151 -59t-63 -145v-598zM712 1118v598q0 48 36 81t90 33h552q52 0 88 -34t36 -80v-598 q0 -48 -36 -82t-88 -34h-162l-114 -114l-116 114h-160q-54 0 -90 32t-36 84zM882 272q0 96 68 164t164 68q94 0 162 -68t68 -164t-68 -163t-162 -67q-96 0 -164 67t-68 163zM890 1100v642h90v-642h-90zM1068 1100v642h90v-642h-90zM1246 1100v642h90v-642h-90zM1434 140h792 v266h-792q26 -72 26 -134q0 -66 -26 -132z" />
<glyph unicode="6" horiz-adv-x="1638" d="M0 98q0 -92 67 -159t159 -67h1188q92 0 158 67t66 159v1136h-1638v-1136zM0 1316h1638v378q0 92 -66 159t-158 67h-1188q-92 0 -159 -67t-67 -159v-378zM154 108q0 26 22 49t50 23h70q32 0 52 -21t20 -51q0 -32 -20 -52t-52 -20h-70q-32 0 -52 20t-20 52zM154 404 q0 32 20 52t52 20h70q32 0 52 -20t20 -52q0 -30 -20 -51t-52 -21h-70q-32 0 -52 21t-20 51zM154 722q0 26 22 49t50 23h70q32 0 52 -21t20 -51t-20 -51t-52 -21h-70q-32 0 -52 21t-20 51zM154 1018q0 26 21 49t51 23h70q32 0 52 -20t20 -52q0 -30 -20 -50t-52 -20h-70 q-32 0 -52 20t-20 50zM154 1470v306h1342v-306h-1342zM522 108q0 26 22 49t50 23h72q30 0 51 -21t21 -51q0 -32 -21 -52t-51 -20h-72q-30 0 -51 20t-21 52zM522 404q0 32 21 52t51 20h72q30 0 51 -20t21 -52q0 -30 -21 -51t-51 -21h-72q-30 0 -51 21t-21 51zM522 722 q0 26 22 49t50 23h72q30 0 51 -21t21 -51t-21 -51t-51 -21h-72q-30 0 -51 21t-21 51zM522 1018q0 26 22 49t50 23h72q30 0 51 -20t21 -52q0 -30 -21 -50t-51 -20h-72q-30 0 -51 20t-21 50zM902 108q-8 22 16 47t54 25h72q32 0 52 -21t20 -51q0 -32 -20 -52t-52 -20h-72 q-30 0 -50 20t-20 52zM902 404q-8 30 15 51t55 21h72q32 0 52 -20t20 -52q0 -30 -20 -51t-52 -21h-72q-30 0 -50 21t-20 51zM902 722q-8 22 16 47t54 25h72q32 0 52 -21t20 -51t-20 -51t-52 -21h-72q-30 0 -50 21t-20 51zM902 1018q-8 24 16 48t54 24h72q32 0 52 -20t20 -52 q0 -30 -20 -50t-52 -20h-72q-30 0 -50 20t-20 50zM1270 98v306q0 32 20 52t52 20h72q30 0 50 -20t20 -52v-306q0 -32 -20 -52t-50 -20h-72q-32 0 -52 20t-20 52zM1270 722q0 26 22 49t50 23h72q30 0 50 -21t20 -51t-20 -51t-50 -21h-72q-32 0 -52 21t-20 51zM1270 1018 q0 26 21 49t51 23h72q30 0 50 -20t20 -52q0 -30 -20 -50t-50 -20h-72q-32 0 -52 20t-20 50z" />
<glyph unicode="7" horiz-adv-x="2764" d="M0 76v1660q0 76 54 130t130 54h2396q78 0 131 -54t53 -130v-1660q0 -84 -60 -144t-144 -60h-2356q-84 0 -144 60t-60 144zM102 76q0 -46 28 -74t74 -28h2356q46 0 74 28t28 74v1292h-2560v-1292zM102 1408h2560v62h-2560v-62zM102 1716q0 46 28 74t74 28h-20 q-30 0 -56 -26t-26 -56v-20zM574 538v154l512 234v-152l-338 -154l338 -164v-154zM1178 272l318 686h102l-318 -686h-102zM1700 312v154l338 164l-338 154v152l512 -244v-144zM2560 1818q46 0 74 -28t28 -74v20q0 30 -25 56t-57 26h-20z" />
<glyph unicode="8" horiz-adv-x="2662" d="M0 56q0 -76 54 -130t130 -54h2294q76 0 130 54t54 130v1300l-542 564h-1936q-76 0 -130 -54t-54 -130v-1680zM92 56v1680q0 34 25 58t57 24h1752q-12 -26 -12 -72v-390q0 -48 25 -92t69 -72q46 -30 102 -30h388q42 0 52 10v-1116q0 -34 -25 -58t-57 -24h-2294 q-30 0 -56 26t-26 56zM410 436v102h1842v-102h-1842zM410 742v102h1842v-102h-1842zM410 1050v102h1136v-102h-1136zM410 1356v104h1136v-104h-1136zM2018 1368v388q0 38 6 56q6 16 14 16q18 0 50 -42l442 -450q22 -26 22 -42q0 -12 -13 -16t-41 -4h-388q-70 0 -80 48z" />
<glyph unicode="A" horiz-adv-x="2594" d="M46 58v1676q0 58 41 99t99 41h1840l522 -532v-1284q0 -58 -41 -99t-99 -41h-2222q-58 0 -99 41t-41 99zM1902 1356q0 -54 36 -93t100 -39h402q78 0 100 46q6 12 6 24q0 32 -38 70l-446 452q-44 50 -82 50q-28 0 -46 -18q-32 -26 -32 -100v-392z" />
<glyph unicode="B" horiz-adv-x="2594" d="M0 58q0 -78 54 -132t132 -54h2226q76 0 131 54t55 132v1302l-554 560h-1858q-78 0 -132 -54t-54 -132v-1676zM92 58v1676q0 40 27 67t67 27h1680q-10 -36 -10 -80v-392q0 -74 50 -126t132 -52h396q38 0 64 10v-1130q0 -40 -27 -67t-69 -27h-2216q-40 0 -67 27t-27 67z M1948 1356v392q0 42 6 56q6 16 16 16q12 0 27 -13t23 -23l452 -452q24 -26 24 -40q0 -22 -56 -22h-402q-70 0 -78 44z" />
<glyph unicode="C" horiz-adv-x="2594" d="M46 58v1676q0 58 41 99t99 41h1840l522 -532v-1284q0 -58 -41 -99t-99 -41h-2222q-58 0 -99 41t-41 99zM1902 1356q0 -54 36 -93t100 -39h402q78 0 100 46q6 12 6 24q0 32 -38 70l-446 452q-44 50 -82 50q-28 0 -46 -18q-32 -26 -32 -100v-392z" />
<glyph unicode="D" horiz-adv-x="2594" d="M0 58q0 -78 54 -132t132 -54h2226q76 0 131 54t55 132v1302l-554 560h-1858q-78 0 -132 -54t-54 -132v-1676zM92 58v1676q0 40 27 67t67 27h1680q-10 -36 -10 -80v-392q0 -74 50 -126t132 -52h396q38 0 64 10v-1130q0 -40 -27 -67t-69 -27h-2216q-40 0 -67 27t-27 67z M1948 1356v392q0 42 6 56q6 16 16 16q12 0 27 -13t23 -23l452 -452q24 -26 24 -40q0 -22 -56 -22h-402q-70 0 -78 44z" />
<glyph unicode="E" horiz-adv-x="2594" d="M68 64v1664q0 52 36 88t88 36h1720q-18 -16 -23 -39t-5 -71v-396q0 -64 42 -107t122 -43h396q54 0 82 28v-1160q0 -52 -36 -88t-88 -36h-2210q-52 0 -88 36t-36 88z" />
<glyph unicode="F" horiz-adv-x="2594" d="M0 50q0 -74 55 -126t137 -52h2224q74 0 133 57t59 135v1296l-560 560h-1856q-82 0 -137 -55t-55 -137v-1678zM136 64v1664q0 22 17 39t39 17h1624v-438q0 -92 64 -155t168 -63h424v-1078q0 -20 -17 -38t-39 -18h-2224q-56 30 -56 70zM1938 1346v396q0 40 10 56 q8 12 18 12q14 0 34 -17t20 -23l452 -450q22 -26 22 -40q0 -16 -15 -23t-35 -7h-410v14q-72 0 -84 42z" />
<glyph unicode="H" horiz-adv-x="2594" d="M68 64v1664q0 52 36 88t88 36h1720q-18 -16 -23 -39t-5 -71v-396q0 -64 42 -107t122 -43h396q54 0 82 28v-1160q0 -52 -36 -88t-88 -36h-2210q-52 0 -88 36t-36 88z" />
<glyph unicode="I" horiz-adv-x="2594" d="M0 50q0 -74 55 -126t137 -52h2224q74 0 133 57t59 135v1296l-560 560h-1856q-82 0 -137 -55t-55 -137v-1678zM136 64v1664q0 22 17 39t39 17h1624v-438q0 -92 64 -155t168 -63h424v-1078q0 -20 -17 -38t-39 -18h-2224q-56 30 -56 70zM1938 1346v396q0 40 10 56 q8 12 18 12q14 0 34 -17t20 -23l452 -450q22 -26 22 -40q0 -16 -15 -23t-35 -7h-410v14q-72 0 -84 42z" />
<glyph unicode="J" horiz-adv-x="1946" d="M0 76q0 -84 60 -144t144 -60l1536 820q86 0 146 60t60 144t-60 144t-146 60l-1536 820q-84 0 -144 -60t-60 -144v-1640z" />
<glyph unicode="K" horiz-adv-x="2252" d="M14 940l4 -34q2 -26 40 -26q24 0 30 2l950 234l52 14q18 6 18 20q0 28 -54 82l-206 206q2 -2 6 -2q15 0 50 40q44 50 296 50q150 0 283 -51t237 -143q100 -92 155 -216t55 -264q0 -138 -54 -260t-156 -212t-234 -138t-286 -48q-488 0 -658 292q-16 30 -52 47t-80 17 q-64 0 -111 -28t-47 -68q0 -18 12 -40q136 -250 385 -396t551 -146q210 0 403 73t345 207q152 136 236 313t84 373q-6 196 -93 376t-241 318q-154 136 -348 211t-402 75q-260 0 -452 -80q-72 -32 -110 -56l-36 -26l-206 206l-58 44q-14 14 -32 14q-26 0 -26 -58z" />
<glyph unicode="M" horiz-adv-x="2078" d="M30 896q0 -12 8 -20q6 -12 6 -24l994 -950q16 -16 44 -16q16 0 24 8t20 8l102 102q10 10 13 18t3 26q0 14 -8 22t-8 22l-848 804l848 804q16 16 16 44q0 16 -8 24t-8 20l-102 102q-10 10 -18 13t-26 3q-12 0 -20 -8t-24 -8l-994 -950q-14 -14 -14 -44zM848 896 q0 -12 8 -20t8 -24l994 -950q10 -10 18 -13t26 -3q14 0 22 8t22 8l102 102q10 10 12 21t2 23q0 10 -6 22q-8 8 -8 22l-848 804l848 804q14 14 14 44q0 12 -6 24q-8 8 -8 20l-102 102q-16 16 -44 16q-14 0 -22 -8t-22 -8l-994 -950q-16 -16 -16 -44z" />
<glyph unicode="N" horiz-adv-x="2078" d="M44 48q0 -14 8 -22q6 -12 6 -22l102 -102q16 -16 44 -16q16 0 24 8t20 8l996 950l8 18q6 16 6 26t-6 22q-8 8 -8 22l-996 950q-10 10 -18 13t-26 3q-12 0 -20 -8t-24 -8l-102 -102q-10 -10 -12 -21t-2 -23t8 -20q6 -12 6 -24l848 -804l-848 -804q-14 -14 -14 -44zM848 48 q0 -14 8 -22t8 -22l102 -102q10 -10 18 -13t26 -3q14 0 22 8t22 8l994 950q14 14 14 44q6 6 6 12q0 12 -20 32l-994 950q-16 16 -44 16q-14 0 -22 -8t-22 -8l-102 -102q-10 -10 -13 -18t-3 -26q0 -12 8 -20t8 -24l848 -804l-848 -804q-16 -16 -16 -44z" />
<glyph unicode="O" horiz-adv-x="2276" d="M-2 642q0 -60 38 -92t98 -32q44 0 82 16t58 44l44 -114l32 -68q32 -68 82 -68q16 0 31 -25t15 -45q0 -22 -8 -44l-4 -20q0 -16 12 -26q34 -34 98 -54q52 -20 198 -38h136q0 -22 15 -56t31 -34q0 -14 80 -38t124 -24q34 0 24 16q-14 26 -34 78q-18 42 -34 58h44 q20 0 34 16t14 36q0 26 -24 40q-18 0 -34 12q-24 10 -34 10q0 36 56 74q58 38 126 108q20 -1 40 -1q140 0 267 50q145 57 247 159q68 68 106 144t38 142q0 44 -16 76q-29 44 -29 57q0 2 1 3l4 8l110 18q66 8 105 28t56 41t45 63q26 40 26 100q0 58 -38 106t-96 74 q-54 24 -94 24q-26 0 -77 9t-81 15q-142 258 -274 338q-136 80 -204 116q-4 2 -10 2q-12 0 -12 -14q0 -26 42 -104l70 -134q-16 24 -74 53t-132 51q-122 36 -192 36q-26 0 -38 -7t-12 -23q0 -34 76 -98q122 -102 146 -126q54 -36 144 -68q98 -36 130 -70q27 -29 27 -76 q0 -9 -1 -18l-6 -64q0 -48 -10 -58l-12 -10h-22q-18 10 -72 72q-68 76 -177 131t-257 79q-66 10 -118 10q-154 0 -314 -49t-236 -121q-86 -80 -132 -176t-52 -200q-8 -78 -8 -156l-40 2q-60 0 -95 -30t-47 -108q-2 -6 -2 -26zM740 330q0 12 10 42q20 34 97 76t129 42 q38 0 44 -14q4 -16 4 -36v-90q-18 -34 -46 -46t-46 -46v-44q-34 0 -62 12l-28 10q-44 8 -78 40q-24 22 -24 54z" />
<glyph unicode="P" horiz-adv-x="4096" d="M0 1306q0 -26 21 -47t47 -21h136q26 -128 99 -248t175 -196q74 -58 161 -91t241 -71l42 -10q0 -72 45 -125t125 -79l-102 -204q-26 -50 -26 -120q0 -68 27 -119t77 -77t126 -26h104q66 0 130 40t104 104q38 62 38 130v238h1502v-238q0 -66 40 -129t104 -105 q64 -40 130 -40h102q58 0 120 29t84 73q40 84 40 140q0 60 -40 100l-102 170q48 0 96 30t78 78q30 46 30 96v70q256 130 312 264q38 88 38 158q0 36 -8 54q0 26 -16 32l-18 4h-68q-138 -82 -226 -112q-98 -32 -150 -60q-64 192 -187 360t-291 294q-172 128 -373 198t-411 70 q-190 0 -372 -53t-340 -155q-160 -102 -283 -240t-201 -302q-114 24 -128 96q-8 24 -8 74q0 100 -37 188t-103 154q-68 66 -163 101t-209 35t-208 -36t-162 -104t-105 -164t-37 -208z" />
<glyph unicode="Q" horiz-adv-x="1316" d="M390 944v586h98v-586h-98zM586 944v586h96v-586h-96zM780 944v586h98v-586h-98z" />
<glyph unicode="R" horiz-adv-x="1792" d="M0 -128v2048h256v-2048h-256zM768 -128v2048h256v-2048h-256zM1536 -128v2048h256v-2048h-256z" />
<glyph unicode="S" d="M0 896q0 -210 77 -398t221 -328q140 -144 328 -221t398 -77t397 77t331 221q142 142 219 329t77 397q0 208 -77 396t-219 332q-144 142 -332 219t-396 77q-210 0 -397 -77t-329 -219q-144 -144 -221 -331t-77 -397zM512 322l22 58q24 66 86 134t152 120q100 58 252 58 q254 0 410 -184q58 -70 80 -128l22 -58l-110 104q-110 102 -402 102q-290 0 -402 -102zM552 1264q0 72 37 118t87 46q46 0 84 -51t38 -113q0 -78 -31 -121t-91 -43q-50 0 -87 46t-37 118zM1228 1264q0 72 37 118t87 46q46 0 84 -51t38 -113q4 -20 4 -40q0 -54 -36 -89 t-90 -35q-60 0 -92 43t-32 121z" />
<glyph unicode="T" d="M0 906q0 -300 140 -518q100 -204 376 -376q118 -74 241 -107t277 -33q302 0 516 140q232 144 378 376q74 118 107 241t33 277q0 302 -140 516q-126 148 -211 229t-185 129q-118 74 -241 107t-277 33q-304 0 -498 -140q-118 -58 -218 -158t-158 -218q-140 -194 -140 -498z M338 858q0 46 2 54q2 14 18 14l120 120q20 20 58 20q40 0 60 -20l298 -300l538 538q32 16 48 28t32 12q38 0 58 -20l120 -120q20 -18 20 -50v-20q0 -30 -20 -48l-736 -736q0 -16 -14 -18q-6 -2 -46 -2h-8q-32 0 -50 20l-478 476q-20 20 -20 52z" />
<glyph unicode="U" d="M0 906q0 -290 137 -517t379 -377q118 -74 241 -107t277 -33q302 0 516 140q232 144 378 376q74 118 107 241t33 277q-22 168 -58 287t-102 211q-172 276 -376 376q-118 74 -241 107t-277 33q-304 0 -498 -140q-118 -58 -218 -158t-158 -218q-140 -194 -140 -498zM656 250 v218q0 16 3 21t17 19l12 10q16 10 28 10h120v418h-128q-10 0 -17 5t-15 15l-10 12q-10 16 -10 28v198q0 16 3 21t17 19l12 10q16 10 28 10h418q16 0 30 -10l10 -10q14 -14 18 -26l2 -14v-676h126q10 0 17 -5t15 -15l10 -12q10 -16 10 -28v-218q0 -16 -3 -21t-17 -19l-12 -10 q-16 -10 -28 -10h-596q-16 0 -21 3t-19 17l-10 12q-10 16 -10 28zM836 1442v220q0 12 3 20t15 20l14 10q16 10 26 10h260q16 0 30 -10l10 -10v-260q0 -14 -3 -19t-17 -19l-12 -10q-16 -10 -28 -10h-248q-14 0 -32 20l-8 12q-10 16 -10 26z" />
<glyph unicode="V" d="M20 -6q0 -46 39 -84t85 -38h1802q46 0 84 38t38 84v1230q-14 64 -43 129t-59 95l-368 370q-32 32 -100 57t-126 25h-1228q-46 0 -85 -39t-39 -85v-1782zM204 36v1700h164v-554q0 -46 39 -84t85 -38h778q46 0 84 38t38 84v554q20 0 54 -13t50 -29l368 -368q16 -16 28 -49 t12 -53v-1188h-184v552q0 46 -38 85t-84 39h-1106q-46 0 -85 -39t-39 -85v-552h-164zM512 36v512h1024v-512h-1024zM860 1264v430q0 16 13 29t29 13h266q14 0 27 -13t13 -29v-430q0 -14 -13 -27t-27 -13h-266q-16 0 -29 13t-13 27z" />
<glyph unicode="W" horiz-adv-x="1764" d="M0 180q0 -84 40 -155t112 -111q70 -42 156 -42q84 0 155 40t113 112q40 70 40 156q0 72 -33 135t-89 99q106 328 289 558t427 406l196 -296l358 838l-876 -50l186 -270q-264 -180 -484 -462t-330 -650q-114 -18 -187 -104t-73 -204z" />
<glyph unicode="X" d="M-8 -78q0 -20 15 -35t33 -15h280q18 0 33 15t15 35t-13 34t-35 14h-230v230q0 18 -15 33t-35 15q-18 0 -33 -15t-15 -33v-278zM-8 486q12 -48 48 -48q20 0 35 15t15 33v278q0 20 -15 35t-35 15q-18 0 -33 -15t-15 -35v-278zM-8 1068q14 -50 48 -50q20 0 35 16t15 34v278 q0 18 -15 34t-35 16q-18 0 -33 -16t-15 -34v-278zM-8 1592q0 -18 15 -33t33 -15q20 0 35 15t15 33v230h230q18 0 33 15t15 33q0 20 -13 35t-35 15h-280q-18 0 -33 -15t-15 -35v-278zM558 -78q0 -20 15 -35t33 -15h278q20 0 35 15t15 35q0 18 -15 33t-35 15h-278 q-18 0 -33 -15t-15 -33zM558 1870q0 -18 15 -33t33 -15h278q20 0 35 15t15 33q0 20 -15 35t-35 15h-278q-18 0 -33 -15t-15 -35zM1114 -78q0 -20 15 -35t35 -15h278q18 0 33 15t15 35q0 18 -15 33t-33 15h-278q-20 0 -35 -15t-15 -33zM1114 1870q0 -18 15 -33t35 -15h278 q18 0 33 15t15 33q0 20 -15 35t-33 15h-278q-20 0 -35 -15t-15 -35zM1672 -78q0 -20 15 -35t33 -15h278q20 0 35 15t15 35v278q0 18 -15 33t-35 15q-18 0 -33 -15t-15 -33v-230h-230q-18 0 -33 -15t-15 -33zM1672 1870q0 -18 15 -33t33 -15h230v-230q0 -18 15 -33t33 -15 q20 0 35 15t15 33v278q0 24 -14 37t-36 13h-278q-18 0 -33 -15t-15 -35zM1950 478q0 -18 15 -33t33 -15q20 0 35 15t15 33v278q0 20 -15 35t-35 15q-18 0 -33 -15t-15 -35v-278zM1950 1036q0 -20 15 -35t33 -15q20 0 35 15t15 35v278q0 22 -15 35t-35 13q-18 0 -33 -15 t-15 -33v-278z" />
<glyph unicode="Y" horiz-adv-x="1378" d="M100 0v1852h504v-1852h-504zM774 0v1852h504v-1852h-504z" />
<glyph unicode="Z" horiz-adv-x="1384" d="M100 348v354h1184v-354h-402l-184 -348l-212 348h-386z" />
<glyph unicode="a" d="M0 896q0 -206 79 -394t223 -328q140 -144 328 -223t394 -79t393 79t331 223t222 330t78 392t-78 393t-222 331t-331 222t-393 78t-392 -78t-330 -222t-223 -331t-79 -393zM102 896q0 186 71 356t199 298t297 198t355 70t356 -70t298 -198t198 -298t70 -356t-70 -355 t-198 -297t-298 -199t-356 -71q-188 0 -356 70t-296 200q-130 128 -200 296t-70 356zM410 968l542 -544v268q138 50 276 50q140 0 231 -76t179 -252q0 458 -238 668q-92 78 -207 115t-241 37v276zM552 968l298 296v-132h102q180 0 320 -83t202 -275q-88 70 -246 70 q-122 0 -306 -60l-72 -22v-102z" />
<glyph unicode="b" d="M0 896q0 -206 79 -394t223 -328q140 -144 328 -223t394 -79t393 79t331 223t222 330t78 392t-78 393t-222 331t-331 222t-393 78t-392 -78t-330 -222t-223 -331t-79 -393zM102 896q0 186 71 356t199 298t297 198t355 70t356 -70t298 -198t198 -298t70 -356t-70 -355 t-198 -297t-298 -199t-356 -71q-188 0 -356 70t-296 200q-130 128 -200 296t-70 356zM410 414q88 176 179 252t231 76q94 0 276 -50v-278l542 554l-542 542v-276q-126 0 -241 -37t-205 -115q-240 -206 -240 -668zM574 774q72 186 210 272t312 86h102v132l298 -296l-298 -298 v92l-72 22q-184 60 -306 60q-158 0 -246 -70z" />
<glyph unicode="c" horiz-adv-x="3072" d="M0 76q0 -84 60 -144t144 -60h92q86 0 146 60t60 144v104q0 84 -60 144t-146 60h-92q-84 0 -144 -60t-60 -144v-104zM0 794q0 -84 60 -145t144 -61h92q86 0 146 61t60 145v102q0 84 -60 144t-146 60h-92q-84 0 -144 -60t-60 -144v-102zM0 1612q0 -84 60 -144t144 -60h92 q86 0 146 60t60 144v104q0 84 -60 144t-146 60h-92q-84 0 -144 -60t-60 -144v-104zM102 76v104q0 46 28 74t74 28h92q48 0 76 -28t28 -74v-104q0 -46 -28 -74t-76 -28h-92q-46 0 -74 28t-28 74zM102 794v102q0 46 28 74t74 28h92q48 0 76 -28t28 -74v-102q0 -46 -28 -74 t-76 -28h-92q-46 0 -74 28t-28 74zM102 1612v104q0 46 28 74t74 28h92q48 0 76 -28t28 -74v-104q0 -46 -28 -74t-76 -28h-92q-46 0 -74 28t-28 74zM716 66q0 -84 54 -139t132 -55h1996q76 0 130 58t54 136v124q-8 78 -65 136t-129 58h-1986q-76 0 -131 -58t-55 -136v-124z M716 784q0 -84 54 -140t132 -56h1996q76 0 130 59t54 137v122q-8 80 -63 137t-131 57h-1986q-78 0 -132 -58t-54 -136v-122zM716 1602q0 -84 54 -139t132 -55h1996q76 0 130 58t54 136v124q-8 78 -65 136t-129 58h-1986q-76 0 -131 -58t-55 -136v-124zM820 66v124 q0 40 22 66t60 26h1996q30 0 56 -28t26 -64v-124h-10q0 -38 -23 -65t-59 -27h-1986q-38 0 -60 26t-22 66zM820 784v122q0 40 22 66t60 26h1996q30 0 51 -27t21 -65v-122q0 -40 -22 -66t-60 -26h-1986q-40 0 -61 25t-21 67zM820 1602v124q0 40 22 66t60 26h1996q30 0 51 -27 t21 -65v-124q0 -38 -23 -65t-59 -27h-1986q-38 0 -60 26t-22 66z" />
<glyph unicode="d" horiz-adv-x="2150" d="M0 -128l60 30q144 68 325 111t311 43q262 0 322 -92l58 -92l66 92q62 92 332 92h82q224 -22 428 -104q74 -30 122 -56l44 -24v1832l-44 34q-50 38 -131 78t-177 70q-118 34 -242 34q-152 0 -276 -47t-204 -117q-82 70 -190 117t-220 47q-224 0 -464 -92q-88 -32 -146 -62 l-56 -30v-1864zM102 26v1638q122 64 272 109t292 45q94 0 184 -38t164 -96l10 -10v-1598q-122 72 -328 72q-140 0 -270 -28t-324 -94zM1126 66v1608l10 10q72 58 180 96t240 38q256 0 492 -164v-1618q-102 46 -227 76t-255 36h-92q-230 0 -348 -82z" />
<glyph unicode="e" d="M0 856q0 -70 47 -117t117 -47h112l28 -74q26 -72 44 -112l-102 -102q-46 -46 -46 -114q0 -64 46 -122l62 -50q22 -24 52 -38t60 -14t60 14t52 38l102 102q38 -24 72 -39t114 -43v-102q0 -70 47 -117t117 -47h80q70 0 117 47t47 117v102l94 32q46 16 92 40l102 -102 q22 -24 52 -38t60 -14t60 14t52 38l62 60q46 52 46 116q0 62 -46 120l-102 102q32 56 49 98t23 88h112q70 0 117 47t47 117v80q0 66 -49 115t-115 49h-102l-26 76q-24 68 -46 98l92 94q46 46 46 114q0 62 -46 120l-62 62q-22 24 -52 38t-60 14t-60 -14t-52 -38l-92 -92 l-92 44q-52 24 -92 38v102q-8 72 -57 118t-119 46h-80q-70 0 -117 -47t-47 -117v-112l-44 -14q-52 -16 -79 -27t-63 -31l-92 92q-68 52 -122 52q-30 0 -60 -14t-52 -38l-62 -62q-46 -46 -46 -114t46 -120l92 -94q-10 -30 -36 -82q-14 -32 -36 -92h-102q-66 0 -115 -49 t-49 -115v-80zM102 844v92q0 24 19 43t43 19h184l20 72l32 78l30 76l42 72l-154 152q-16 16 -16 42q0 24 16 40l60 62q8 8 21 14t21 6q26 0 40 -20l154 -154l72 42q58 34 164 72l72 20v184q0 24 19 43t43 19h80q24 0 43 -19t19 -43v-194l72 -20q106 -38 164 -72l72 -32 l142 144q20 20 28 25t24 5q22 0 42 -20l60 -62q8 -6 15 -19t7 -21q0 -20 -22 -42l-142 -142l40 -72q48 -72 62 -154l10 -82h184q24 0 43 -19t19 -43v-92q0 -22 -19 -41t-43 -19h-194l-20 -72q-12 -68 -62 -154l-32 -72l154 -154q16 -16 16 -40t-16 -52l-60 -60 q-8 -8 -21 -15t-21 -7t-21 7t-19 15l-154 152l-72 -40q-72 -48 -154 -62l-82 -10v-184q0 -24 -19 -43t-43 -19h-80q-24 0 -43 19t-19 43v184l-72 20q-62 14 -154 62l-72 42l-152 -154q-8 -8 -21 -15t-21 -7q-22 0 -40 22l-62 60q-16 16 -16 44q0 22 16 50l144 142l-42 72 q-48 82 -62 154l-20 72h-184q-24 0 -43 19t-19 41zM686 896q0 -90 46 -168t124 -124q80 -46 168 -46q90 0 168 46t124 124q46 80 46 168q0 90 -46 168t-124 124q-80 46 -168 46q-90 0 -168 -46t-124 -124q-46 -80 -46 -168zM788 896q0 100 68 168t168 68t168 -68t68 -168 t-68 -168t-168 -68t-168 68t-68 168z" />
<glyph unicode="f" d="M0 -128l450 184l-266 266zM184 66l32 72l40 -40zM236 374l266 -266l1044 1054l-256 266zM378 374l902 900l112 -112l-900 -900zM1200 686q0 -16 8 -25t16 -9q4 -2 16 -2q20 0 30 10l686 686q8 8 8 26t-8 26q-14 0 -24 6l-18 4q-20 0 -30 -10l-82 -82l-358 368l-154 -154 l368 -368l-450 -450q-8 -8 -8 -26zM1434 1520l10 22l276 -278l-10 -10zM1546 1684l266 -266l184 184q54 54 54 134q0 82 -54 132q-30 24 -66 38t-66 14q-64 0 -134 -52zM1700 1684l112 114q26 20 52 20q18 0 32 -6q4 -4 30 -14q22 -28 22 -56q0 -30 -22 -58l-114 -112z" />
<glyph unicode="g" horiz-adv-x="3482" d="M0 -76q0 -22 13 -37t27 -15q22 0 32 10l1772 974q30 16 30 40q0 26 -30 40l-1772 974q-10 10 -32 10q-14 0 -27 -15t-13 -37v-1944zM102 16v1760l1608 -880zM2252 -36q0 -38 14 -60t38 -22h410q22 0 36 25t14 57v1874q0 28 -18 55t-32 27h-410q-22 0 -37 -25t-15 -57 v-1874zM2356 -26v1844h306v-1844h-306zM2970 -36q0 -38 14 -60t36 -22h410q22 0 37 25t15 57v1874q0 30 -17 56t-35 26h-410q-22 0 -36 -25t-14 -57v-1874zM3072 -26v1844h308v-1844h-308z" />
<glyph unicode="h" d="M0 896q0 -208 78 -396t222 -328q140 -144 328 -222t396 -78t395 78t331 222q142 142 220 330t78 394t-78 394t-220 332q-144 142 -332 220t-394 78t-394 -78t-330 -220q-144 -144 -222 -331t-78 -395zM794 1354l68 48q70 46 188 46q132 0 221 -74t89 -196 q0 -180 -128 -246t-128 -198v-68h-148v82q0 174 128 236t128 194q0 22 -6 36q-6 12 -6 32q-50 68 -150 68q-70 0 -122 -34l-52 -34l-14 14zM956 384v148h148v-148h-148z" />
<glyph unicode="i" horiz-adv-x="3276" d="M-10 864q0 -46 28 -92l84 -132q332 -392 699 -577t759 -185q254 0 525 79t511 217q216 124 379 251t241 215q76 92 76 180q0 54 -26 104l-72 136q-446 540 -940 746q-288 118 -582 118q-138 0 -270 -24q128 -42 229 -131t157 -209t56 -254q0 -122 -47 -235t-133 -199 t-199 -133t-237 -47t-236 47t-196 133q-86 86 -134 198t-48 236q0 134 72 296q-228 -158 -426 -352q-76 -76 -116 -122l-42 -48q-112 -118 -112 -216z" />
<glyph unicode="j" d="M0 0q0 -52 38 -90t90 -38h1792q52 0 90 38t38 90v1792q0 52 -38 90t-90 38h-1792q-52 0 -90 -38t-38 -90v-1792zM282 896l294 288v-192h256v-198h-256v-186zM736 448h186v256h198v-256h192l-288 -294zM742 1350l282 288l294 -288h-186v-256h-198v256h-192zM1222 800v198 h256v186l288 -294l-288 -282v192h-256z" />
<glyph unicode="l" horiz-adv-x="2520" d="M0 46q0 -72 51 -123t123 -51h2174q70 0 121 51t51 123v1362q0 70 -51 122t-121 52h-520v126q0 90 -63 151t-159 61h-692q-90 0 -155 -62t-65 -150v-126h-520q-72 0 -123 -52t-51 -122v-1362zM740 730q0 102 41 197t113 167q72 70 167 109t199 39q108 0 203 -38t167 -110 q72 -70 111 -164t39 -200v-19q0 -92 -34 -176q-38 -93 -112 -167q-72 -72 -169 -111t-205 -39q-106 0 -201 39t-167 111q-74 74 -113 166t-39 196z" />
<glyph unicode="m" horiz-adv-x="2118" d="M0 64q0 -58 42 -100l50 -50q42 -42 102 -42q58 0 96 42l402 396q40 40 40 94q0 38 -18 76l56 48q-44 56 -100 100l-56 -50q-38 20 -78 20q-58 0 -92 -40l-402 -396q-42 -42 -42 -98zM692 1214q0 -120 36 -227t106 -189l-106 -106q60 -52 98 -100l106 106 q102 -90 222 -137t252 -47q144 0 275 55t229 153t153 228t55 270t-54 267t-154 227q-98 98 -229 152t-275 54t-275 -55t-229 -153q-102 -98 -156 -226t-54 -272zM876 1220q0 106 42 203t116 171t172 115t206 41t207 -40t173 -112q74 -74 116 -172t42 -206q-4 -108 -47 -205 t-115 -169q-74 -72 -172 -113t-204 -41q-108 0 -207 41t-171 113q-74 74 -116 171t-42 203z" />
<glyph unicode="n" horiz-adv-x="2260" d="M0 0l142 -58q168 -68 346 -68q144 0 258 36t204 136t138 286l-354 346l-64 -10q-68 -14 -132 -56t-110 -108q-54 -74 -54 -202q0 -220 -186 -284q-58 -20 -116 -20q-38 0 -50 2h-22zM798 734l346 -340q36 40 92 112q50 68 120 150l-304 310l-54 -50zM1116 1024l290 -304 l398 496q18 26 114 142l108 138q142 180 194 284q38 74 38 112q0 14 -6 20q-10 10 -28 10q-40 0 -124 -48q-126 -74 -278 -216q-86 -74 -300 -268l-96 -88q-32 -26 -60 -54z" />
<glyph unicode="o" horiz-adv-x="1962" d="M-4 376q0 -34 34 -68l430 -412q28 -28 64 -28q42 0 76 34l1338 1442q26 26 26 66q0 48 -32 74l-430 412q-28 28 -64 28q-42 0 -76 -34l-68 -74l74 -68l-68 -74l-74 68l-60 -68l146 -134l-68 -74l-140 142l-68 -74l74 -68l-68 -74l-74 68l-66 -74l140 -140l-74 -80 l-140 140l-68 -72l74 -68l-68 -74l-74 68l-66 -68l140 -134l-66 -74l-142 134l-68 -66l74 -68l-68 -74l-66 68l-68 -68l146 -134l-66 -74l-142 134l-68 -66l68 -68l-68 -74l-66 68l-68 -74l148 -134l-68 -74l-154 134l-22 -44q-6 -14 -6 -28z" />
<glyph unicode="p" horiz-adv-x="1930" d="M0 74q0 -82 56 -139t140 -57q82 0 139 57t57 139q0 66 -40 118q138 368 437 699t685 619l144 -196l312 606l-716 -58l142 -196q-384 -272 -711 -637t-475 -759q-74 -10 -122 -64t-48 -132z" />
<glyph unicode="q" d="M0 -128h2048v682h-682v684h-684v682h-682v-2048z" />
<glyph unicode="r" horiz-adv-x="3276" d="M0 1470q0 -26 9 -42t31 -40l1516 -1476q26 -26 48 -34q16 -6 34 -6q36 0 66 26l16 14l1516 1476q40 34 40 82q0 26 -9 43t-31 39l-328 328q-20 10 -50 28q-22 12 -52 12q-36 0 -66 -26l-16 -14l-1086 -1046l-1086 1046q-22 22 -39 31t-41 9q-30 0 -52 -12 q-16 -14 -52 -28l-328 -328q-26 -26 -34 -48q-6 -14 -6 -34zM246 1470l226 224l1024 -1002l142 -144l144 144l1024 1002l226 -224l-1394 -1352z" />
<glyph unicode="s" horiz-adv-x="3276" d="M0 322q0 -36 26 -66l14 -16l328 -328l52 -26q20 -14 52 -14q24 0 42 10t38 30l1086 1046l1086 -1046q18 -16 42 -28t40 -12q36 0 66 26l16 14l328 328q26 12 43 38t17 44q0 48 -40 82l-1516 1476q-26 26 -46 34q-16 6 -36 6q-28 0 -50 -12l-52 -28l-1496 -1456l-26 -50 q-14 -20 -14 -52zM246 322l1392 1372l1394 -1350l-226 -226l-1024 982l-144 144l-142 -144l-1024 -1002z" />
<glyph unicode="t" horiz-adv-x="3206" d="M0 1474q0 -30 4 -66q4 -22 26 -22l1484 -1484q18 -18 37 -24t51 -6q34 0 53 6t37 24l1484 1484q18 18 24 37t6 51q0 34 -6 53t-24 37l-326 326q-18 18 -38 24t-52 6q-30 0 -66 -4q-22 -4 -22 -26l-1070 -1068l-1068 1068q0 22 -22 26q-36 4 -66 4q-32 0 -52 -6t-38 -24 l-326 -326q-18 -18 -24 -37t-6 -53z" />
<glyph unicode="u" horiz-adv-x="3206" d="M0 318q0 -32 6 -52t24 -38l326 -326q18 -18 38 -24t52 -6t51 6t37 24l1068 1068l1070 -1068q0 -22 22 -26q36 -4 66 -4q32 0 52 6t38 24l326 326q18 18 24 38t6 52t-6 51t-24 37l-1484 1484q-18 18 -37 24t-53 6q-32 0 -51 -6t-37 -24l-1484 -1484q-18 -18 -24 -37 t-6 -51z" />
<glyph unicode="v" horiz-adv-x="1280" d="M0 896q0 -16 6 -27t20 -25l922 -946q18 -26 50 -26q16 0 27 6t25 20l204 204q4 8 18 34q8 8 8 30q0 16 -6 27t-20 25l-652 678l652 678q14 14 20 25t6 27q0 18 -8 32l-18 32l-204 204q-10 10 -26 18t-26 8q-22 0 -30 -8q-26 -14 -34 -18l-908 -934l-18 -32q-8 -8 -8 -32z M140 896l858 870l142 -140l-628 -640l-90 -90l90 -90l628 -640l-142 -140z" />
<glyph unicode="w" horiz-adv-x="1280" d="M0 166q0 -32 26 -50l204 -206q12 -20 23 -29t29 -9q32 0 50 26l922 946q14 14 20 25t6 27t-6 27t-20 25l-908 946l-32 18q-14 8 -32 8q-16 0 -27 -6t-25 -20l-204 -204l-18 -32q-8 -14 -8 -32q0 -16 6 -27t20 -25l652 -678l-652 -678q-14 -14 -20 -25t-6 -27zM140 166 l628 640l90 90l-90 90l-628 640l142 140l844 -870l-844 -870z" />
<glyph unicode="x" d="M0 -70q0 -28 10 -44q8 -14 20 -14q24 0 56 30l32 28l190 234l50 -40q56 -48 146 -96t204 -84q122 -42 272 -42h14q208 0 397 77t337 219q146 140 226 324t80 388l2 -2q2 0 2 4q0 10 -12 46q-18 56 -138 56l-80 -14q-82 -16 -82 -104q0 -144 -53 -273t-151 -225 q-98 -98 -230 -151t-282 -53q-274 0 -372 80t-112 80l264 220q56 56 56 84q0 14 -18 20l-52 14h-718q-52 0 -56 -30l-2 -30v-702zM0 882l20 -58q20 -60 140 -60l82 16q80 14 80 102q0 144 53 273t151 227q98 96 231 149t281 53q276 0 374 -80q100 -82 110 -82l-250 -204 q-58 -58 -58 -84q0 -12 16 -18q52 -16 58 -16h716q44 0 44 30v732q0 32 -8 46q-8 12 -22 12q-20 0 -54 -28l-34 -30l-190 -234l-48 42q-116 98 -352 180q-130 40 -272 40h-14q-210 0 -403 -76t-339 -214q-150 -140 -231 -325t-81 -393z" />
<glyph unicode="y" d="M0 276q0 -24 19 -63t43 -61l248 -248q0 -26 24 -28q36 -4 70 -4q22 0 61 19t63 43l496 496l528 -526q34 -34 59 -49t65 -15q22 0 61 20t63 44l248 248q32 32 47 58t15 66q0 46 -34 58q-30 12 -60 34l-526 528l496 496q34 34 48 59t14 65q0 24 -19 63t-43 61l-218 218 q-32 32 -58 47t-66 15q-36 0 -92 -62l-528 -496l-496 496q-24 24 -63 43t-61 19q-40 0 -66 -15t-58 -47l-218 -218q-32 -32 -47 -58t-15 -66q0 -22 19 -61t43 -63l496 -496l-496 -528q-62 -56 -62 -92z" />
<glyph unicode="z" horiz-adv-x="9610" d="M0 266v1260q0 178 108 286t286 108h8822q178 0 286 -108t108 -286v-1260q0 -178 -108 -286t-286 -108h-8822q-178 0 -286 108t-108 286z" />
<glyph unicode="&#x2000;" horiz-adv-x="972" />
<glyph unicode="&#x2001;" horiz-adv-x="1944" />
<glyph unicode="&#x2002;" horiz-adv-x="972" />
<glyph unicode="&#x2003;" horiz-adv-x="1944" />
<glyph unicode="&#x2004;" horiz-adv-x="648" />
<glyph unicode="&#x2005;" horiz-adv-x="486" />
<glyph unicode="&#x2006;" horiz-adv-x="324" />
<glyph unicode="&#x2007;" horiz-adv-x="324" />
<glyph unicode="&#x2008;" horiz-adv-x="243" />
<glyph unicode="&#x2009;" horiz-adv-x="388" />
<glyph unicode="&#x200a;" horiz-adv-x="108" />
<glyph unicode="&#x202f;" horiz-adv-x="388" />
<glyph unicode="&#x205f;" horiz-adv-x="486" />
<glyph unicode="&#x25fc;" horiz-adv-x="1920" d="M0 0v1920h1920v-1920h-1920z" />
</font>
</defs>
</svg>
