<?xml version="1.0" encoding="UTF-8"?>
<svg width="108px" height="48px" viewBox="0 0 108 48" version="1.1" xmlns="http://www.w3.org/2000/svg" xmlns:xlink="http://www.w3.org/1999/xlink">
    <title>CODAP Logo Focus Ring</title>
    <g id="CODAP-LOGO-FOCUS" stroke="none" fill="none" fill-rule="nonzero">
        <rect id="Rectangle" x="0" y="0" width="108" height="48"></rect>
        <path d="M14,0 C18.0752787,0 21.8789297,1.76644366 24.512486,4.76890869 C26.1109061,4.30896006 27.7739024,4.05386836 29.4814215,4.00687382 L30,4 L78,4 C88.3726991,4 96.9010942,11.8964038 97.8989352,22.0513042 C102.025496,23.8898502 104.859483,27.9724466 104.995849,32.6912627 L105,33 C105,39.627417 99.627417,45 93,45 C90.3124682,45 87.7440953,44.103872 85.6610303,42.4726833 C83.4036857,43.4152843 80.976629,43.9316753 78.470342,43.9943427 L78,44 L30,44 C20.1863249,44 11.9679952,36.9128804 10.3215366,27.5002123 C4.45862507,25.9182629 0.165941599,20.6293803 0.00395524061,14.3269685 L0,14 C0,6.2680135 6.2680135,0 14,0 Z M14,3 C7.92486775,3 3,7.92486775 3,14 L3.0037074,14.2884075 C3.14676854,19.8468926 7.4132117,24.3796681 12.8577091,24.9414061 L13.0269112,24.9646789 C13.5270213,33.9046982 20.9349124,41 30,41 L78,41 L78.4327594,40.9945782 C81.1682151,40.9259807 83.798764,40.2079647 86.1427474,38.9263053 L86.198,38.894 L86.3448334,39.0601225 C88.0164905,40.8956858 90.4101989,42 93,42 C97.9705627,42 102,37.9705627 102,33 L101.996163,32.7346377 C101.878875,28.6840114 99.0851349,25.3043175 95.321698,24.3023106 L94.996,24.222 L95,24 C95,14.6111593 87.3888407,7 78,7 L30,7 L29.5228369,7.00658793 C27.4594345,7.06361834 25.4539633,7.49007876 23.5834191,8.25301057 L23.422,8.321 L23.3776781,8.24580605 C21.416729,5.05211265 17.9036649,3 14,3 Z" id="Focus-white" fill="#FFFFFF"></path>
        <path d="M14,1 C18.0045006,1 21.7264317,2.83666755 24.1755688,5.91480394 C25.879483,5.36235216 27.6635031,5.05725456 29.4952266,5.00677852 L30,5 L78,5 C88.0553309,5 96.2862702,12.8111489 96.9341886,22.734158 C101.015968,24.2880289 103.865132,28.1811771 103.995954,32.705721 L104,33 C104,39.0751322 99.0751322,44 93,44 C90.3348851,44 87.7981439,43.0390042 85.8137473,41.3158416 C83.5200893,42.359355 81.0298462,42.9300543 78.4578145,42.9944212 L78,43 L30,43 C20.4557338,43 12.4996265,35.9435368 11.1991374,26.6876429 C5.44367359,25.4328049 1.15971455,20.3751366 1.00387263,14.3141148 L1,14 C1,6.82029825 6.82029825,1 14,1 Z M14,3 C7.92486775,3 3,7.92486775 3,14 L3.0037074,14.2884075 C3.14676854,19.8468926 7.4132117,24.3796681 12.8577091,24.9414061 L13.0269112,24.9646789 C13.5270213,33.9046982 20.9349124,41 30,41 L78,41 L78.4327594,40.9945782 C81.1682151,40.9259807 83.798764,40.2079647 86.1427474,38.9263053 L86.198,38.894 L86.3448334,39.0601225 C88.0164905,40.8956858 90.4101989,42 93,42 C97.9705627,42 102,37.9705627 102,33 L101.996163,32.7346377 C101.878875,28.6840114 99.0851349,25.3043175 95.321698,24.3023106 L94.996,24.222 L95,24 C95,14.6111593 87.3888407,7 78,7 L30,7 L29.5228369,7.00658793 C27.4594345,7.06361834 25.4539633,7.49007876 23.5834191,8.25301057 L23.422,8.321 L23.3776781,8.24580605 C21.416729,5.05211265 17.9036649,3 14,3 Z" id="Focus" fill="#0957D0"></path>
    </g>
</svg>