<svg width="102" height="42" viewBox="0 0 102 42" xmlns="http://www.w3.org/2000/svg">
    <g fill="none">
        <path d="M0 0h102v42H0z"/>
        <path d="M11 0c3.904 0 7.417 2.052 9.378 5.246l.044.075.161-.068a16.943 16.943 0 0 1 5.94-1.246L27 4h48c9.389 0 17 7.611 17 17l-.004.222.068.016a9.004 9.004 0 0 1 6.932 8.497L99 30a9 9 0 0 1-15.655 6.06l-.147-.166-.055.032a16.923 16.923 0 0 1-7.71 2.069L75 38H27c-9.065 0-16.473-7.095-16.973-16.035l-.17-.024C4.414 21.38.148 16.847.005 11.288L0 11C0 4.925 4.925 0 11 0z" fill="#D3F4FF"/>
        <path d="M27 6h48c8.284 0 15 6.716 15 15 0 8.284-6.716 15-15 15H27c-8.284 0-15-6.716-15-15 0-8.284 6.716-15 15-15z" fill="#7BD0E3"/>
        <g fill-rule="nonzero" fill="#222">
            <path d="M34.008 22.797c-.115 1.213-.563 2.16-1.344 2.84-.781.68-1.82 1.02-3.117 1.02-.906 0-1.705-.216-2.395-.645-.69-.43-1.222-1.04-1.597-1.832s-.57-1.711-.586-2.758v-1.063c0-1.072.19-2.018.57-2.836.38-.817.926-1.447 1.637-1.89.71-.443 1.532-.664 2.465-.664 1.255 0 2.265.34 3.03 1.023.767.683 1.212 1.646 1.337 2.89h-1.969c-.094-.817-.332-1.407-.715-1.769-.383-.362-.944-.543-1.683-.543-.86 0-1.52.314-1.98.942-.462.627-.697 1.548-.708 2.761v1.008c0 1.23.22 2.167.66 2.813.44.646 1.085.969 1.934.969.776 0 1.36-.175 1.75-.524.39-.349.638-.93.742-1.742h1.969zM45.052 21.11c0 1.114-.193 2.092-.579 2.933-.385.841-.936 1.487-1.652 1.938-.716.45-1.54.675-2.473.675-.921 0-1.743-.225-2.464-.675-.722-.451-1.279-1.093-1.672-1.926-.393-.834-.593-1.795-.598-2.883v-.64c0-1.11.197-2.09.59-2.938.393-.85.948-1.499 1.664-1.95.716-.45 1.538-.675 2.465-.675.927 0 1.749.222 2.465.668.716.445 1.27 1.086 1.66 1.922.39.836.588 1.808.594 2.918v.632zm-1.977-.594c0-1.26-.238-2.227-.715-2.899-.476-.672-1.152-1.008-2.027-1.008-.854 0-1.522.335-2.004 1.004-.482.67-.728 1.616-.738 2.84v.656c0 1.25.243 2.217.73 2.899.487.682 1.163 1.023 2.027 1.023.875 0 1.549-.333 2.02-1 .471-.666.707-1.64.707-2.922v-.593zM47.22 26.5V15.125h3.36c1.005 0 1.897.224 2.676.672a4.581 4.581 0 0 1 1.808 1.906c.427.823.64 1.766.64 2.828v.57c0 1.079-.214 2.027-.644 2.844a4.526 4.526 0 0 1-1.836 1.891c-.794.443-1.704.664-2.73.664H47.22zm1.977-9.781v8.203h1.289c1.036 0 1.832-.324 2.387-.973.554-.648.837-1.58.847-2.793v-.633c0-1.234-.268-2.177-.804-2.828-.537-.65-1.315-.976-2.336-.976h-1.383zM64.077 23.852H59.67l-.922 2.648h-2.054l4.297-11.375h1.773L67.07 26.5h-2.063l-.93-2.648zm-3.852-1.594h3.297l-1.649-4.719-1.648 4.719zM70.534 22.273V26.5h-1.976V15.125h4.351c1.271 0 2.28.33 3.028.992.747.662 1.12 1.537 1.12 2.625 0 1.115-.365 1.982-1.097 2.602-.732.62-1.756.93-3.074.93h-2.352zm0-1.585h2.375c.704 0 1.24-.166 1.61-.497.37-.33.554-.808.554-1.433 0-.615-.187-1.106-.562-1.473-.375-.367-.89-.556-1.547-.566h-2.43v3.969z"/>
        </g>
        <circle fill="#EC8B58" cx="90" cy="30" r="7"/>
        <circle fill="#58B568" cx="11" cy="11" r="9"/>
        <path d="m83.953 33.036-.192.14a7 7 0 0 1 5.999-10.173h.108a14.99 14.99 0 0 1-5.915 10.033z" fill="#D18051"/>
        <path d="M19.492 8.013a9.001 9.001 0 0 1-7.455 11.928c.35-5.009 3.157-9.339 7.224-11.793l.231-.135z" fill="#3DA961"/>
    </g>
</svg>
