<svg viewBox="0 0 24 24" xmlns="http://www.w3.org/2000/svg">
    <g fill="none">
        <path d="M0 0h24v24H0z"/>
        <path d="m14 2 6 6 .002 5.43a4.562 4.562 0 0 0-.822-1.11A4.406 4.406 0 0 0 16 11a4.406 4.406 0 0 0-3.18 1.32 4.406 4.406 0 0 0-1.32 3.18l.006.242c.036.721.236 1.396.588 2l.113.185-.072.03c-.276.12-.54.256-.792.408-1.4.843-2.233 2.106-2.333 3.635H6c-.55 0-1.02-.196-1.412-.587A1.926 1.926 0 0 1 4 20V4c0-.55.196-1.02.588-1.413A1.926 1.926 0 0 1 6 2h8z" fill="#006C8E" fill-rule="evenodd"/>
        <path d="M13 4v5h5v2.463A4.43 4.43 0 0 0 16 11a4.406 4.406 0 0 0-3.18 1.32 4.406 4.406 0 0 0-1.32 3.18l.006.242c.036.721.236 1.396.588 2l.113.185-.072.03c-.276.12-.54.256-.792.408-.728.439-1.303.99-1.701 1.635H6V4h7z" fill="#D3F4FF" fill-rule="evenodd"/>
        <path d="M11 23v-.688c0-.937.458-1.682 1.375-2.234S14.5 19.25 16 19.25s2.708.276 3.625.828c.917.552 1.375 1.297 1.375 2.235V23H11zm5-5a2.407 2.407 0 0 1-1.766-.734A2.407 2.407 0 0 1 13.5 15.5c0-.688.245-1.276.734-1.766A2.407 2.407 0 0 1 16 13c.688 0 1.276.245 1.766.734.49.49.734 1.079.734 1.766 0 .688-.245 1.276-.734 1.766-.49.49-1.078.734-1.766.734z" fill="#006C8E"/>
    </g>
</svg>
