<svg viewBox="0 0 24 24" xmlns="http://www.w3.org/2000/svg">
    <g fill="none">
        <path d="M0 0h24v24H0z"/>
        <path d="m14 2 6 6v3.269a7.715 7.715 0 0 0-1.999-.937L18 9h-5V4H6v16l2.332.001a7.71 7.71 0 0 0 .936 2L6 22c-.55 0-1.02-.196-1.412-.587A1.926 1.926 0 0 1 4 20V4c0-.55.196-1.02.588-1.413A1.926 1.926 0 0 1 6 2h8z" fill="#006C8E"/>
        <path d="M13 4v5h5l.001 1.332A7.75 7.75 0 0 0 15.75 10l-.299.006a7.747 7.747 0 0 0-1.745.268l-.207.061v-.085H8V18l.088 1 .096.434c.042.192.092.38.148.566H6V4h7z" fill="#D3F4FF" fill-rule="evenodd"/>
        <path d="M15.75 12a5.75 5.75 0 1 1-5.614 7.001h2.078A3.752 3.752 0 0 0 19.5 17.75a3.75 3.75 0 0 0-6.751-2.25h2.001V17H10v-4.75h1.5v1.626A5.747 5.747 0 0 1 15.75 12z" fill="#006C8E" fill-rule="evenodd"/>
    </g>
</svg>
