<svg viewBox="0 0 24 24" xmlns="http://www.w3.org/2000/svg">
    <g fill="none">
        <path d="M0 0h24v24H0z"/>
        <path d="m14 2 6 6 .001 5.078A6.309 6.309 0 0 0 19 13h-6c-1.631 0-3.082.603-4.24 1.76C7.604 15.919 7 17.37 7 19c0 1.093.27 2.104.797 3H6c-.55 0-1.02-.196-1.412-.587A1.926 1.926 0 0 1 4 20V4c0-.55.196-1.02.588-1.413A1.926 1.926 0 0 1 6 2h8z" fill="#006C8E" fill-rule="evenodd"/>
        <path d="M13 4v5h5v4h-5c-1.536 0-2.91.534-4.032 1.562l-.207.199C7.603 15.918 7 17.369 7 19c0 .342.026.676.079 1H6V4h7z" fill="#D3F4FF" fill-rule="evenodd"/>
        <path d="M13 23c-1.1 0-2.042-.392-2.825-1.175C9.392 21.042 9 20.1 9 19s.392-2.042 1.175-2.825C10.958 15.392 11.9 15 13 15h2v2h-2c-.55 0-1.02.196-1.412.587A1.926 1.926 0 0 0 11 19c0 .55.196 1.02.588 1.413.391.391.862.587 1.412.587h2v2h-2zm0-3v-2h6v2h-6zm4 3v-2h2c.55 0 1.02-.196 1.413-.587.391-.392.587-.863.587-1.413s-.196-1.02-.587-1.413A1.926 1.926 0 0 0 19 17h-2v-2h2c1.1 0 2.042.387 2.825 1.163C22.608 16.937 23 17.883 23 19c0 1.1-.392 2.042-1.175 2.825C21.042 22.608 20.1 23 19 23h-2z" fill="#006C8E"/>
    </g>
</svg>
