<svg viewBox="0 0 24 24" xmlns="http://www.w3.org/2000/svg">
    <g fill="none">
        <path d="M0 0h24v24H0z"/>
        <path d="m14 2 6 6v2.25h-2l.001.085-.207-.061a7.747 7.747 0 0 0-1.745-.268L15.75 10a7.75 7.75 0 0 0-6.481 12H6c-.55 0-1.02-.196-1.412-.587A1.926 1.926 0 0 1 4 20V4c0-.55.196-1.02.588-1.413A1.926 1.926 0 0 1 6 2h8z" fill="#006C8E" fill-rule="evenodd"/>
        <path d="M13 4v5h5l.001 1.335-.207-.061a7.747 7.747 0 0 0-1.745-.268L15.75 10a7.75 7.75 0 0 0-7.418 10.001L6 20V4h7z" fill="#D3F4FF" fill-rule="evenodd"/>
        <path d="M15.75 12a5.75 5.75 0 1 0 5.614 7.001h-2.078A3.752 3.752 0 0 1 12 17.75a3.75 3.75 0 0 1 6.751-2.25H16.75V17h4.75v-4.75H20v1.626A5.747 5.747 0 0 0 15.75 12z" fill="#006C8E" fill-rule="evenodd"/>
    </g>
</svg>
