<svg viewBox="0 0 24 24" xmlns="http://www.w3.org/2000/svg">
    <g fill="none">
        <path d="M0 0h24v24H0z"/>
        <path d="M4 23c-.55 0-1.02-.196-1.413-.587A1.926 1.926 0 0 1 2 21V7h2v14h11v2H4z" fill="#006C8E" fill-rule="evenodd"/>
        <path d="M19 19H8c-.55 0-1.02-.196-1.412-.587A1.926 1.926 0 0 1 6 17V3c0-.55.196-1.02.588-1.413A1.926 1.926 0 0 1 8 1h7l6 6v10c0 .55-.196 1.02-.587 1.413A1.926 1.926 0 0 1 19 19z" fill="#006C8E" fill-rule="evenodd"/>
        <path fill="#D3F4FF" fill-rule="evenodd" d="M14 8V3H8v14h11V8z"/>
    </g>
</svg>
