<svg viewBox="0 0 24 24" xmlns="http://www.w3.org/2000/svg">
    <g fill="none">
        <path d="M0 0h24v24H0z"/>
        <path d="m14 2 6 6v12c0 .55-.196 1.02-.587 1.413A1.926 1.926 0 0 1 18 22H6c-.55 0-1.02-.196-1.412-.587A1.926 1.926 0 0 1 4 20V4c0-.55.196-1.02.588-1.413A1.926 1.926 0 0 1 6 2h8z" fill="#006C8E"/>
        <path fill="#D3F4FF" fill-rule="evenodd" d="M13 9V4H6v16h12V9z"/>
        <path fill="#006C8E" d="m14.1 10.5 1.4 1.4-2.1 2.1 2.1 2.1-1.4 1.4-2.1-2.1-2.1 2.1-1.4-1.4 2.1-2.1-2.1-2.1 1.4-1.4 2.1 2.1z"/>
    </g>
</svg>
