<?xml version="1.0" encoding="UTF-8"?>
<svg width="24px" height="24px" viewBox="0 0 24 24" version="1.1" xmlns="http://www.w3.org/2000/svg" xmlns:xlink="http://www.w3.org/1999/xlink">
    <title>0494DF36-F280-47B7-95BB-D3C4982DBF91</title>
    <g id="Graphics-Acceleration-Turn-Off-ICON" stroke="none" fill="none" fill-rule="nonzero">
        <rect id="Rectangle" x="0" y="0" width="24" height="24"></rect>
        <path d="M1.39,4.22 L2.81,2.81 L21.19,21.19 L19.78,22.61 L14.34,17.17 L9.9,22.5 L7.8,22.5 L8.85,15.15 L3.6,15.15 L7.167,9.996 L1.39,4.22 Z M15.15,1.5 L14.1,9.9 L20.4,9.9 L16.912,14.0838932 L9.482,6.65389322 L13.05,1.5 L15.15,1.5 Z" id="Shape" fill="#006C8E"></path>
        <path d="M11.051,13.881 L12.92,15.75 L10.3424544,18.8449549 L11.051,13.881 Z M8.604,11.434 L10.32,13.15 L7.41713667,13.15 L8.604,11.434 Z M14.7281367,11.8998932 L16.1299168,11.9 L15.4921367,12.6638932 L14.7281367,11.8998932 Z M12.6170608,5.6389985 L12.1561367,9.32689322 L10.9191367,8.08989322 L12.6170608,5.6389985 Z" id="Shape" fill="#D3F4FF"></path>
    </g>
</svg>