<svg viewBox="0 0 24 24" xmlns="http://www.w3.org/2000/svg">
    <g fill="none">
        <path d="M0 0h24v24H0z"/>
        <path d="M19 3c.55 0 1.02.196 1.413.587C20.803 3.98 21 4.45 21 5v5.562A7.99 7.99 0 0 0 18 10c-2.19 0-4.114.795-5.66 2.34C10.796 13.887 10 15.81 10 18c0 1.068.19 2.072.562 3H5c-.55 0-1.02-.196-1.413-.587A1.926 1.926 0 0 1 3 19V5c0-.55.196-1.02.587-1.413A1.926 1.926 0 0 1 5 3h14z" fill="#006C8E" fill-rule="evenodd"/>
        <path d="M19 5v5.057A8.616 8.616 0 0 0 18 10c-2.19 0-4.114.795-5.66 2.34C10.796 13.887 10 15.81 10 18c0 .34.02.674.057 1H5V5h14z" fill="#D3F4FF" fill-rule="evenodd"/>
        <path d="M10.562 15a7.762 7.762 0 0 0-.505 2H7v-2h3.562zm3.528-4a8.163 8.163 0 0 0-1.75 1.34 8.605 8.605 0 0 0-.594.66H7v-2h7.09zM17 7v2H7V7h10z" fill="#006C8E"/>
        <path d="M18 24c-1.66 0-3.075-.585-4.245-1.755S12 19.66 12 18c0-1.66.585-3.075 1.755-4.245S16.34 12 18 12c1.66 0 3.075.585 4.245 1.755S24 16.34 24 18c0 1.66-.585 3.075-1.755 4.245S19.66 24 18 24z" fill="#006C8E" fill-rule="evenodd"/>
        <path fill="#D3F4FF" fill-rule="evenodd" d="m16.5 21 4.8-3-4.8-3z"/>
    </g>
</svg>
