<svg viewBox="0 0 24 24" xmlns="http://www.w3.org/2000/svg">
    <g fill="none">
        <path d="M0 0h24v24H0z"/>
        <path d="m22 22-4-4H8c-.55 0-1.02-.196-1.412-.587A1.926 1.926 0 0 1 6 16v-1h11c.55 0 1.02-.196 1.413-.588.391-.391.587-.862.587-1.412V6h1c.55 0 1.02.196 1.413.588.391.391.587.862.587 1.412v14z" fill="#006C8E" fill-rule="evenodd"/>
        <path d="M2 17V4c0-.55.196-1.02.587-1.413A1.926 1.926 0 0 1 4 2h11c.55 0 1.02.196 1.413.587C16.803 2.98 17 3.45 17 4v7c0 .55-.196 1.02-.587 1.412A1.926 1.926 0 0 1 15 13H6l-4 4z" fill="#006C8E" fill-rule="evenodd"/>
        <path fill="#D3F4FF" fill-rule="evenodd" d="M4 12.175 5.175 11H15V4H4z"/>
    </g>
</svg>
