<svg viewBox="0 0 24 24" xmlns="http://www.w3.org/2000/svg">
  <!-- This svg is the same as icon-toolbar-position-left.nosvgr.svg with a rotation applied -->
  <g fill="none" transform="rotate(90, 12, 12)">
    <path d="M0 0h24v24H0z"/>
    <path d="M5 21c-.55 0-1.02-.196-1.413-.587A1.926 1.926 0 0 1 3 19V5c0-.55.196-1.02.587-1.413A1.926 1.926 0 0 1 5 3h14c.55 0 1.02.196 1.413.587C20.803 3.98 21 4.45 21 5v14c0 .55-.196 1.02-.587 1.413A1.926 1.926 0 0 1 19 21H5z" fill="#006C8E" fill-rule="evenodd"/>
    <path fill="#D3F4FF" fill-rule="evenodd" d="M10 19h9V5h-9z"/>
    <path fill="#FFF" fill-rule="evenodd" d="M8 19V5H5v14z"/>
    <path fill="#878787" fill-rule="evenodd" d="M10 19V5H8v14z"/>
  </g>
</svg>
