<svg viewBox="0 0 24 24" xmlns="http://www.w3.org/2000/svg">
    <g fill="none">
        <path d="M0 0h24v24H0z"/>
        <path d="M12 22a9.676 9.676 0 0 1-3.875-.788 10.143 10.143 0 0 1-3.188-2.15 10.143 10.143 0 0 1-2.15-3.187A9.676 9.676 0 0 1 2 12c0-1.383.263-2.68.788-3.887a10.183 10.183 0 0 1 2.15-3.175 10.143 10.143 0 0 1 3.187-2.15A9.676 9.676 0 0 1 12 2c1.383 0 2.68.263 3.887.788a10.183 10.183 0 0 1 3.175 2.15 10.183 10.183 0 0 1 2.15 3.175A9.649 9.649 0 0 1 22 12a9.676 9.676 0 0 1-.788 3.875 10.143 10.143 0 0 1-2.15 3.188 10.183 10.183 0 0 1-3.175 2.15A9.649 9.649 0 0 1 12 22z" fill="#D3F4FF" fill-rule="evenodd"/>
        <path d="M12 22a9.676 9.676 0 0 1-3.875-.788 10.143 10.143 0 0 1-3.188-2.15 10.143 10.143 0 0 1-2.15-3.187A9.676 9.676 0 0 1 2 12c0-1.383.263-2.68.788-3.887a10.183 10.183 0 0 1 2.15-3.175 10.143 10.143 0 0 1 3.187-2.15A9.676 9.676 0 0 1 12 2c1.383 0 2.68.263 3.887.788a10.183 10.183 0 0 1 3.175 2.15 10.183 10.183 0 0 1 2.15 3.175A9.649 9.649 0 0 1 22 12a9.676 9.676 0 0 1-.788 3.875 10.143 10.143 0 0 1-2.15 3.188 10.183 10.183 0 0 1-3.175 2.15A9.649 9.649 0 0 1 12 22zm0-2.05c.433-.6.808-1.225 1.125-1.875.317-.65.575-1.342.775-2.075h-3.8c.2.733.458 1.425.775 2.075.317.65.692 1.275 1.125 1.875zm-2.6-.4c-.3-.55-.563-1.12-.787-1.713A14.685 14.685 0 0 1 8.05 16H5.1a8.298 8.298 0 0 0 1.813 2.175A7.195 7.195 0 0 0 9.4 19.55zm5.2 0a7.195 7.195 0 0 0 2.487-1.375A8.298 8.298 0 0 0 18.9 16h-2.95c-.15.633-.337 1.246-.563 1.837a13.86 13.86 0 0 1-.787 1.713zM4.25 14h3.4a13.208 13.208 0 0 1-.15-2 13.208 13.208 0 0 1 .15-2h-3.4A7.96 7.96 0 0 0 4 12a7.96 7.96 0 0 0 .25 2zm5.4 0h4.7a13.208 13.208 0 0 0 .15-2 13.208 13.208 0 0 0-.15-2h-4.7a13.208 13.208 0 0 0-.15 2 13.208 13.208 0 0 0 .15 2zm6.7 0h3.4a7.96 7.96 0 0 0 .25-2 7.96 7.96 0 0 0-.25-2h-3.4a13.208 13.208 0 0 1 .15 2 13.208 13.208 0 0 1-.15 2zm-.4-6h2.95a8.298 8.298 0 0 0-1.813-2.175A7.195 7.195 0 0 0 14.6 4.45c.3.55.563 1.12.787 1.712.226.592.413 1.205.563 1.838zM10.1 8h3.8c-.2-.733-.458-1.425-.775-2.075A12.696 12.696 0 0 0 12 4.05c-.433.6-.808 1.225-1.125 1.875-.317.65-.575 1.342-.775 2.075zm-5 0h2.95c.15-.633.337-1.246.563-1.838A13.86 13.86 0 0 1 9.4 4.45c-.933.3-1.763.758-2.488 1.375A8.298 8.298 0 0 0 5.1 8z" fill="#006C8E"/>
    </g>
</svg>
