<svg width="24" height="24" viewBox="0 0 24 24" xmlns="http://www.w3.org/2000/svg">
    <g fill="none">
        <path d="M0 0h24v24H0z"/>
        <path d="M20.5 2.5c.55 0 1.02.196 1.413.587.391.392.587.863.587 1.413v6.601l-3.3-1.237-6.8 2.55v5.046c0 1.437.32 2.791.953 4.04H3.5c-.55 0-1.02-.196-1.413-.587A1.926 1.926 0 0 1 1.5 19.5v-15c0-.55.196-1.02.587-1.413A1.926 1.926 0 0 1 3.5 2.5h17z" fill="#006C8E"/>
        <path d="M20.5 7.5v2.851l-1.3-.487-6.8 2.55v5.046c0 .7.076 1.382.228 2.041L3.5 19.5v-12h17z" fill="#D3F4FF"/>
        <path d="m19.2 12 4.8 1.8v3.66c0 1.52-.453 2.902-1.358 4.148C21.738 22.852 20.59 23.65 19.2 24c-1.39-.35-2.537-1.148-3.442-2.392-.905-1.245-1.358-2.628-1.358-4.148V13.8l4.8-1.8zM5.25 15.88l7.149-.001.002 1.75-7.151.001v-1.75zm7.149-3.255v1.75H5.25v-1.75h7.149zM18.75 9.37v.662l-2.901 1.088H5.25V9.37h13.5z" fill="#006C8E"/>
        <path d="M4.5 6a1 1 0 1 0 0-2 1 1 0 0 0 0 2zM8 6a1 1 0 1 0 0-2 1 1 0 0 0 0 2zm3.5 0a1 1 0 1 0 0-2 1 1 0 0 0 0 2zm7.7 8.135-2.8 1.05v2.275a4.86 4.86 0 0 0 .818 2.744l.157.228c.476.654 1.018 1.112 1.65 1.398l.175.073.175-.073c.562-.254 1.052-.644 1.489-1.187l.16-.211c.658-.905.976-1.876.976-2.972v-2.274l-2.8-1.051z" fill="#D3F4FF"/>
    </g>
</svg>
