<svg width="24" height="24" viewBox="0 0 24 24" xmlns="http://www.w3.org/2000/svg">
    <g fill="none">
        <path d="M0 0h24v24H0z"/>
        <path d="M11 17H7c-1.383 0-2.563-.488-3.538-1.463C2.487 14.563 2 13.383 2 12s.487-2.563 1.462-3.537C4.438 7.488 5.617 7 7 7h4v2H7c-.833 0-1.542.292-2.125.875A2.893 2.893 0 0 0 4 12c0 .833.292 1.542.875 2.125A2.893 2.893 0 0 0 7 15h4v2zm-3-4v-2h8v2H8zm5 4v-2h4c.833 0 1.542-.292 2.125-.875A2.893 2.893 0 0 0 20 12c0-.833-.292-1.542-.875-2.125A2.893 2.893 0 0 0 17 9h-4V7h4c1.383 0 2.563.487 3.538 1.463C21.512 9.438 22 10.617 22 12s-.488 2.563-1.462 3.537C19.562 16.512 18.383 17 17 17h-4z" fill="#006C8E"/>
    </g>
</svg>
