<svg width="24" height="24" viewBox="0 0 24 24" xmlns="http://www.w3.org/2000/svg">
    <g fill="none">
        <path d="M0 0h24v24H0z"/>
        <path d="M10.586 21.9c-.39.388-.86.583-1.414.583a1.926 1.926 0 0 1-1.415-.584l-5.656-5.656a1.926 1.926 0 0 1-.584-1.415c0-.553.195-1.025.584-1.414L13.414 2.101c.39-.39.86-.584 1.414-.584.554 0 1.026.195 1.415.584l5.656 5.656c.39.39.584.86.584 1.415 0 .553-.195 1.025-.584 1.414L10.586 21.899z" fill="#006C8E"/>
        <path fill="#D3F4FF" d="M9.172 20.485 20.485 9.172l-5.657-5.657-2.12 2.121 2.828 2.828L14.12 9.88 11.293 7.05 9.879 8.464l2.828 2.829-1.414 1.414L8.464 9.88 7.05 11.293 9.88 14.12l-1.415 1.415-2.828-2.829-2.121 2.121z"/>
    </g>
</svg>
