<svg width="24" height="24" viewBox="0 0 24 24" xmlns="http://www.w3.org/2000/svg">
    <g fill="none">
        <path d="M0 0h24v24H0z"/>
        <path d="M3 22v-1.5h2.5v-.75H4v-1.5h1.5v-.75H3V16h3c.283 0 .52.096.713.288.191.191.287.429.287.712v1c0 .283-.096.52-.287.712A.968.968 0 0 1 6 19c.283 0 .52.096.713.288.191.191.287.429.287.712v1c0 .283-.096.52-.287.712A.968.968 0 0 1 6 22H3zm0-7v-2.75c0-.283.096-.52.288-.713A.968.968 0 0 1 4 11.25h1.5v-.75H3V9h3c.283 0 .52.096.713.287.191.192.287.43.287.713v1.75c0 .283-.096.52-.287.713A.968.968 0 0 1 6 12.75H4.5v.75H7V15H3zm1.5-7V3.5H3V2h3v6H4.5zM9 19v-2h12v2H9zm0-6v-2h12v2H9zm0-6V5h12v2H9z" fill="#006C8E"/>
    </g>
</svg>
