<svg width="24" height="24" viewBox="0 0 24 24" xmlns="http://www.w3.org/2000/svg">
    <g fill="none">
        <path d="M0 0h24v24H0z"/>
        <path d="M12.15 20c-1.267 0-2.392-.375-3.375-1.125-.983-.75-1.692-1.775-2.125-3.075l2.2-.95c.233.8.638 1.458 1.213 1.975.574.517 1.287.775 2.137.775.7 0 1.333-.167 1.9-.5.567-.333.85-.867.85-1.6 0-.3-.058-.575-.175-.825A2.361 2.361 0 0 0 14.3 14h2.8a4.274 4.274 0 0 1 .25 1.5c0 1.433-.513 2.542-1.538 3.325C14.788 19.608 13.567 20 12.15 20zM2 12v-2h20v2H2zm10.05-8.15c1.1 0 2.063.27 2.887.812.825.542 1.463 1.371 1.913 2.488l-2.2.975a2.987 2.987 0 0 0-.838-1.3c-.408-.383-.979-.575-1.712-.575-.683 0-1.25.154-1.7.463-.45.308-.7.737-.75 1.287h-2.4c.033-1.15.487-2.13 1.363-2.938.875-.808 2.02-1.212 3.437-1.212z" fill="#006C8E"/>
    </g>
</svg>
