<?xml version="1.0" encoding="UTF-8"?>
<svg width="24px" height="24px" viewBox="0 0 24 24" version="1.1" xmlns="http://www.w3.org/2000/svg" xmlns:xlink="http://www.w3.org/1999/xlink">
    <title>0D06E1E5-44D1-443E-AD66-54393053CA5E</title>
    <g id="Info-ICON" stroke="none" fill="none">
        <rect id="Rectangle" fill-rule="nonzero" x="0" y="0" width="24" height="24"></rect>
        <path d="M12,22 C10.6166667,22 9.31666667,21.7375 8.1,21.2125 C6.88333333,20.6875 5.825,19.975 4.925,19.075 C4.025,18.175 3.3125,17.1166667 2.7875,15.9 C2.2625,14.6833333 2,13.3833333 2,12 C2,10.6166667 2.2625,9.31666667 2.7875,8.1 C3.3125,6.88333333 4.025,5.825 4.925,4.925 C5.825,4.025 6.88333333,3.3125 8.1,2.7875 C9.31666667,2.2625 10.6166667,2 12,2 C13.3833333,2 14.6833333,2.2625 15.9,2.7875 C17.1166667,3.3125 18.175,4.025 19.075,4.925 C19.975,5.825 20.6875,6.88333333 21.2125,8.1 C21.7375,9.31666667 22,10.6166667 22,12 C22,13.3833333 21.7375,14.6833333 21.2125,15.9 C20.6875,17.1166667 19.975,18.175 19.075,19.075 C18.175,19.975 17.1166667,20.6875 15.9,21.2125 C14.6833333,21.7375 13.3833333,22 12,22 Z" id="Path" fill="#006C8E" fill-rule="evenodd"></path>
        <path d="M12,20 C14.2333333,20 16.125,19.225 17.675,17.675 C19.225,16.125 20,14.2333333 20,12 C20,9.76666667 19.225,7.875 17.675,6.325 C16.125,4.775 14.2333333,4 12,4 C9.76666667,4 7.875,4.775 6.325,6.325 C4.775,7.875 4,9.76666667 4,12 C4,14.2333333 4.775,16.125 6.325,17.675 C7.875,19.225 9.76666667,20 12,20 Z" id="Path" fill="#D3F4FF" fill-rule="evenodd"></path>
        <path d="M11,17 L13,17 L13,11 L11,11 L11,17 Z M12,9 C12.2833333,9 12.5208333,8.90416667 12.7125,8.7125 C12.9041667,8.52083333 13,8.28333333 13,8 C13,7.71666667 12.9041667,7.47916667 12.7125,7.2875 C12.5208333,7.09583333 12.2833333,7 12,7 C11.7166667,7 11.4791667,7.09583333 11.2875,7.2875 C11.0958333,7.47916667 11,7.71666667 11,8 C11,8.28333333 11.0958333,8.52083333 11.2875,8.7125 C11.4791667,8.90416667 11.7166667,9 12,9 Z" id="Shape" fill="#006C8E" fill-rule="nonzero"></path>
    </g>
</svg>