<?xml version="1.0" encoding="UTF-8"?>
<svg width="24px" height="24px" viewBox="0 0 24 24" version="1.1" xmlns="http://www.w3.org/2000/svg" xmlns:xlink="http://www.w3.org/1999/xlink">
    <title>26A2A3F7-73BD-4243-9F98-4133CD8F0ED6</title>
    <g id="Playback-Settings-ICON" stroke="none" fill="none">
        <rect id="Rectangle" fill-rule="nonzero" x="0" y="0" width="24" height="24"></rect>
        <path d="M20,2 C20.55,2 21.0208333,2.19583333 21.4125,2.5875 C21.8041667,2.97916667 22,3.45 22,4 L22.0009026,12.6049442 C21.1300911,12.2161505 20.1652879,12 19.15,12 C15.2840068,12 12.15,15.1340068 12.15,19 C12.15,20.073887 12.3918215,21.0912936 12.8239809,22.0007361 L4,22 C3.45,22 2.97916667,21.8041667 2.5875,21.4125 C2.19583333,21.0208333 2,20.55 2,20 L2,4 C2,3.45 2.19583333,2.97916667 2.5875,2.5875 C2.97916667,2.19583333 3.45,2 4,2 L20,2 Z" id="Path" fill="#006C8E" fill-rule="evenodd"></path>
        <path d="M20,4 L20.0010841,12.0512165 C19.7221169,12.0174035 19.4380908,12 19.15,12 C15.2840068,12 12.15,15.1340068 12.15,19 C12.15,19.3398714 12.1742218,19.6740854 12.2210334,20.0010101 L4,20 L4,4 L20,4 Z" id="Path" fill="#D3F4FF" fill-rule="evenodd"></path>
        <path d="M18.15,24 L17.85,22.5 C17.65,22.4166667 17.4625,22.3291667 17.2875,22.2375 C17.1125,22.1458333 16.9333333,22.0333333 16.75,21.9 L15.3,22.35 L14.3,20.65 L15.45,19.65 C15.4166667,19.4166667 15.4,19.2 15.4,19 C15.4,18.8 15.4166667,18.5833333 15.45,18.35 L14.3,17.35 L15.3,15.65 L16.75,16.1 C16.9333333,15.9666667 17.1125,15.8541667 17.2875,15.7625 C17.4625,15.6708333 17.65,15.5833333 17.85,15.5 L18.15,14 L20.15,14 L20.45,15.5 C20.65,15.5833333 20.8375,15.675 21.0125,15.775 C21.1875,15.875 21.3666667,16 21.55,16.15 L23,15.65 L24,17.4 L22.85,18.4 C22.8833333,18.6 22.9,18.8083333 22.9,19.025 C22.9,19.2416667 22.8833333,19.45 22.85,19.65 L24,20.65 L23,22.35 L21.55,21.9 C21.3666667,22.0333333 21.1875,22.1458333 21.0125,22.2375 C20.8375,22.3291667 20.65,22.4166667 20.45,22.5 L20.15,24 L18.15,24 Z M19.15,21 C19.7,21 20.1708333,20.8041667 20.5625,20.4125 C20.9541667,20.0208333 21.15,19.55 21.15,19 C21.15,18.45 20.9541667,17.9791667 20.5625,17.5875 C20.1708333,17.1958333 19.7,17 19.15,17 C18.6,17 18.1291667,17.1958333 17.7375,17.5875 C17.3458333,17.9791667 17.15,18.45 17.15,19 C17.15,19.55 17.3458333,20.0208333 17.7375,20.4125 C18.1291667,20.8041667 18.6,21 19.15,21 Z" id="Shape" fill="#006C8E" fill-rule="nonzero"></path>
        <polygon id="Path" fill="#006C8E" fill-rule="evenodd" points="9.5 16.5 16.5 12 9.5 7.5"></polygon>
    </g>
</svg>