<?xml version="1.0" encoding="UTF-8"?>
<svg width="24px" height="24px" viewBox="0 0 24 24" version="1.1" xmlns="http://www.w3.org/2000/svg" xmlns:xlink="http://www.w3.org/1999/xlink">
    <title>A3EF59D6-F483-41E1-9A5A-D2EC08EF03F9</title>
    <g id="Web-URL-ICON" stroke="none" fill="none" fill-rule="nonzero">
        <rect id="Rectangle" x="0" y="0" width="24" height="24"></rect>
        <path d="M3.5,21.5 C2.95,21.5 2.47916667,21.3041667 2.0875,20.9125 C1.69583333,20.5208333 1.5,20.05 1.5,19.5 L1.5,4.5 C1.5,3.95 1.69583333,3.47916667 2.0875,3.0875 C2.47916667,2.69583333 2.95,2.5 3.5,2.5 L20.5,2.5 C21.05,2.5 21.5208333,2.69583333 21.9125,3.0875 C22.3041667,3.47916667 22.5,3.95 22.5,4.5 L22.5,19.5 C22.5,20.05 22.3041667,20.5208333 21.9125,20.9125 C21.5208333,21.3041667 21.05,21.5 20.5,21.5 L3.5,21.5 Z" id="Path" fill="#006C8E"></path>
        <path d="M3.5,19.5 L20.5,19.5 L20.5,7.5 L3.5,7.5 L3.5,19.5 Z M4.5,6 C5.05228475,6 5.5,5.55228475 5.5,5 C5.5,4.44771525 5.05228475,4 4.5,4 C3.94771525,4 3.5,4.44771525 3.5,5 C3.5,5.55228475 3.94771525,6 4.5,6 Z M8,6 C8.55228475,6 9,5.55228475 9,5 C9,4.44771525 8.55228475,4 8,4 C7.44771525,4 7,4.44771525 7,5 C7,5.55228475 7.44771525,6 8,6 Z M11.5,6 C12.0522847,6 12.5,5.55228475 12.5,5 C12.5,4.44771525 12.0522847,4 11.5,4 C10.9477153,4 10.5,4.44771525 10.5,5 C10.5,5.55228475 10.9477153,6 11.5,6 Z" id="Shape" fill="#D3F4FF"></path>
        <path d="M9.59619408,11.0256225 L7.12525977,13.4965568 L9.59964151,15.9719225 L8.53898134,17.0325827 L6.0645996,14.557217 L5,13.5004962 L8.53553391,9.96496234 L9.59619408,11.0256225 Z M14.4048737,11.0256225 L16.875808,13.4965568 L14.4014263,15.9719225 L15.4620865,17.0325827 L17.9364682,14.557217 L19.0010678,13.5004962 L15.4655339,9.96496234 L14.4048737,11.0256225 Z M12.3886458,8.85 L13.8438596,9.21380344 L11.6102138,18.1483867 L10.155,17.7845833 L12.3886458,8.85 Z" id="Shape" fill="#006C8E"></path>
    </g>
</svg>