<svg width="24" height="24" viewBox="0 0 24 24" xmlns="http://www.w3.org/2000/svg">
    <g fill="none">
        <path d="M0 0h24v24H0z"/>
        <path d="M5 21c-.55 0-1.02-.196-1.413-.587A1.926 1.926 0 0 1 3 19V5c0-.55.196-1.02.587-1.413A1.926 1.926 0 0 1 5 3h14c.55 0 1.02.196 1.413.587C20.803 3.98 21 4.45 21 5v14c0 .55-.196 1.02-.587 1.413A1.926 1.926 0 0 1 19 21H5z" fill="#006C8E" fill-rule="evenodd"/>
        <path fill="#D3F4FF" fill-rule="evenodd" d="M5 19h14V5H5z"/>
        <path d="M7 17h7v-2H7v2zm0-4h10v-2H7v2zm0-4h10V7H7v2z" fill="#006C8E"/>
    </g>
</svg>
