<svg viewBox="0 0 24 24" xmlns="http://www.w3.org/2000/svg">
    <g fill="none">
        <path d="M0 0h24v24H0z"/>
        <path d="M3.932 12.132c.395.561.886 1.05 1.449 1.442l-2.1 2.1-1.432-1.459 2.083-2.083zm-.984-4.405a5.922 5.922 0 0 0 .001 2.046H0V7.727h2.948zm9.203-3.782 2.065-2.12 1.435 1.46-2.085 2.084a5.918 5.918 0 0 0-1.415-1.424zM3.285 1.849l2.079 2.079A5.918 5.918 0 0 0 3.94 5.345L1.824 3.284l1.46-1.435zM9.773 0v2.95a5.922 5.922 0 0 0-2.046-.002V0h2.046zM8.745 3.86c1.814 0 3.397.989 4.24 2.457a9.438 9.438 0 0 0-4.233 2.435 9.438 9.438 0 0 0-2.437 4.232 4.885 4.885 0 0 1 2.43-9.124z" fill="#006C8E"/>
        <path d="M8.745 5.86c.962 0 1.814.47 2.338 1.195a9.283 9.283 0 0 0-4.03 4.026A2.885 2.885 0 0 1 8.745 5.86z" fill="#F7F700"/>
        <path d="M15.38 7.76c1.053 0 2.046.2 2.975.602.924.398 1.73.941 2.416 1.627a7.689 7.689 0 0 1 1.627 2.416c.401.929.602 1.922.602 2.975 0 1.053-.2 2.046-.602 2.975a7.689 7.689 0 0 1-1.627 2.416 7.689 7.689 0 0 1-2.416 1.627A7.435 7.435 0 0 1 15.38 23c-1.053 0-2.046-.2-2.975-.602a7.689 7.689 0 0 1-2.416-1.627 7.689 7.689 0 0 1-1.627-2.416 7.435 7.435 0 0 1-.602-2.975c0-1.053.2-2.046.602-2.975a7.689 7.689 0 0 1 1.627-2.416 7.689 7.689 0 0 1 2.416-1.627 7.435 7.435 0 0 1 2.975-.602z" fill="#006C8E"/>
        <path d="M14.677 20.97v-1.371c-.387 0-.718-.138-.993-.413a1.354 1.354 0 0 1-.413-.994v-.703l-3.375-3.375c-.036.211-.068.422-.097.633a5.49 5.49 0 0 0 1.354 4.36c.931 1.066 2.106 1.687 3.524 1.863zm4.851-1.793a5.618 5.618 0 0 0 1.477-3.797c0-1.148-.32-2.197-.958-3.146a5.415 5.415 0 0 0-2.558-2.057v.281c0 .387-.137.718-.413.993a1.354 1.354 0 0 1-.993.413h-1.406v1.407a.68.68 0 0 1-.202.5.68.68 0 0 1-.501.203h-1.406v1.406h4.218c.2 0 .366.067.501.202a.68.68 0 0 1 .202.501v2.11h.703c.305 0 .58.09.827.272.246.182.416.419.51.712z" fill="#D3F4FF"/>
    </g>
</svg>
