<svg viewBox="0 0 24 24" xmlns="http://www.w3.org/2000/svg">
    <g fill="none">
        <path d="M0 0h24v24H0z"/>
        <path d="M12 21a9.598 9.598 0 0 0-2.6-1.475A8.225 8.225 0 0 0 6.5 19c-.7 0-1.388.092-2.063.275a9.05 9.05 0 0 0-1.937.775c-.35.183-.688.175-1.012-.025A.966.966 0 0 1 1 19.15V5.1c0-.183.046-.358.137-.525A.863.863 0 0 1 1.55 4.2c.767-.4 1.567-.7 2.4-.9.833-.2 1.683-.3 2.55-.3A10.78 10.78 0 0 1 12 4.5 10.78 10.78 0 0 1 17.5 3c.867 0 1.717.1 2.55.3.833.2 1.633.5 2.4.9.183.083.32.208.413.375.091.167.137.342.137.525v14.05a.966.966 0 0 1-.488.875c-.325.2-.662.208-1.012.025a9.05 9.05 0 0 0-1.938-.775A7.834 7.834 0 0 0 17.5 19c-1 0-1.967.175-2.9.525-.933.35-1.8.842-2.6 1.475z" fill="#006C8E" fill-rule="evenodd"/>
        <path d="M6.5 17c.783 0 1.546.087 2.287.262.742.175 1.48.438 2.213.788V6.2c-.683-.4-1.408-.7-2.175-.9a9.175 9.175 0 0 0-4.112-.125A8.665 8.665 0 0 0 3 5.7v11.9c.583-.2 1.162-.35 1.737-.45C5.313 17.05 5.9 17 6.5 17zm6.5 1.05c.733-.35 1.47-.613 2.213-.788a10.268 10.268 0 0 1 4.05-.113c.575.101 1.154.251 1.737.451V5.7a8.665 8.665 0 0 0-1.712-.525 9.218 9.218 0 0 0-4.113.125c-.767.2-1.492.5-2.175.9v11.85z" fill="#D3F4FF" fill-rule="evenodd"/>
        <path d="M6.5 7a9.175 9.175 0 0 1 3.001.506V9.49a10.39 10.39 0 0 0-.713-.2A9.926 9.926 0 0 0 6.5 9.03c-.6 0-1.188.05-1.763.15l-.236.04L4.5 7.216l.213-.046c.473-.093.949-.146 1.428-.164L6.5 7zm0 3a9.175 9.175 0 0 1 3.001.506v1.984a10.39 10.39 0 0 0-.713-.2 9.926 9.926 0 0 0-2.288-.26c-.6 0-1.188.05-1.763.15l-.236.04-.001-2.004.213-.046c.473-.093.949-.146 1.428-.164L6.5 10zm0 3a9.175 9.175 0 0 1 3.001.506v1.984a10.39 10.39 0 0 0-.713-.2 9.926 9.926 0 0 0-2.288-.26c-.6 0-1.188.05-1.763.15l-.236.04-.001-2.004.213-.046c.473-.093.949-.146 1.428-.164L6.5 13z" fill="#006C8E" fill-rule="evenodd"/>
    </g>
</svg>
