<svg viewBox="0 0 24 24" xmlns="http://www.w3.org/2000/svg">
    <g fill="none">
        <path d="M0 0h24v24H0z"/>
        <path d="M12 2c.33 0 .654.015.974.045A6.197 6.197 0 0 0 12.6 4.2c0 .945.183 1.858.546 2.723.285.68.647 1.316 1.083 1.904l.54.697c.297.39.59.8.867 1.215.294.442.523.92.686 1.44.173.52.469.943.869 1.263.463.37 1.025.558 1.609.558.584 0 1.146-.187 1.61-.558.4-.32.695-.743.857-1.23a5.79 5.79 0 0 1 .528-1.203l.136-.216c.046.395.069.798.069 1.207a9.738 9.738 0 0 1-.788 3.9 10.099 10.099 0 0 1-2.137 3.175c-.9.9-1.958 1.613-3.175 2.137A9.738 9.738 0 0 1 12 22a9.738 9.738 0 0 1-3.9-.788 10.099 10.099 0 0 1-3.175-2.137c-.9-.9-1.612-1.958-2.137-3.175A9.738 9.738 0 0 1 2 12c0-1.383.263-2.683.788-3.9a10.099 10.099 0 0 1 2.137-3.175c.9-.9 1.958-1.612 3.175-2.137A9.738 9.738 0 0 1 12 2z" fill="#006C8E" fill-rule="evenodd"/>
        <path d="M4.2 10.2 9 15v1c0 .55.196 1.02.588 1.413.391.391.862.587 1.412.587v1.95c-2.017-.25-3.688-1.133-5.013-2.65C4.662 15.783 4 14.017 4 12c0-.3.02-.6.063-.9.041-.3.087-.6.137-.9zm8.975-3.207a9.04 9.04 0 0 0 1.026 1.795l.569.736c.296.39.59.8.866 1.215.294.442.523.92.686 1.44.173.52.469.943.869 1.263.463.37 1.025.558 1.609.558.345 0 .683-.066.997-.196A7.99 7.99 0 0 1 17.9 17.4a1.977 1.977 0 0 0-.725-1.012A1.93 1.93 0 0 0 16 16h-1v-3a.968.968 0 0 0-.287-.713A.968.968 0 0 0 14 12H8v-2h2c.283 0 .52-.096.713-.287A.968.968 0 0 0 11 9V7h2l.175-.007z" fill="#D3F4FF" fill-rule="evenodd"/>
        <path d="M18.8 0c1.16 0 2.15.41 2.97 1.23.82.82 1.23 1.81 1.23 2.97 0 .68-.135 1.325-.405 1.935A9.03 9.03 0 0 1 21.59 7.86c-.46.58-.89 1.17-1.29 1.77-.4.6-.71 1.25-.93 1.95-.04.12-.11.22-.21.3-.1.08-.22.12-.36.12-.14 0-.26-.04-.36-.12a.634.634 0 0 1-.21-.3c-.22-.7-.53-1.35-.93-1.95-.3-.45-.617-.894-.95-1.333l-.34-.437a7.04 7.04 0 0 1-1.02-1.71c-.26-.62-.39-1.27-.39-1.95 0-1.16.41-2.15 1.23-2.97C16.65.41 17.64 0 18.8 0zm0 2c-.616 0-1.137.213-1.562.638A2.124 2.124 0 0 0 16.6 4.2c0 .616.213 1.137.638 1.562.425.425.946.638 1.562.638.616 0 1.137-.213 1.562-.638.425-.425.638-.946.638-1.562 0-.616-.213-1.137-.638-1.562A2.124 2.124 0 0 0 18.8 2z" fill="#006C8E" fill-rule="evenodd"/>
    </g>
</svg>
