<svg viewBox="0 0 24 24" xmlns="http://www.w3.org/2000/svg">
    <g fill="none">
        <path d="M0 0h24v24H0z"/>
        <path d="M3.271 20.733c-2.242-2.242-2.626-6.212-.353-8.485.792-.793 1.55-1.175 2.615-1.412l.272-.057c.153-.03 1.027-.177 1.286-.23 1.636-.33 3.031-1.037 4.834-2.729l.008.01 4.95-4.951a3 3 0 1 1 4.243 4.242l-4.95 4.95c-1.591 1.71-2.254 2.982-2.554 4.467l-.073.412-.122.795c-.225 1.397-.623 2.294-1.67 3.342-2.273 2.273-6.243 1.889-8.486-.354zm2.783.04.188.067c1.554.523 3.332.308 4.454-.814.744-.744 1.03-1.323 1.21-2.289l.194-1.22c.31-1.772 1.02-3.276 2.683-5.13l-.01-.012-.183.185c-1.546 1.6-2.42 2.72-3.103 3.848l-.275.471-.287.504c-.561.976-1.067 1.653-2.02 2.605a7.854 7.854 0 0 1-2.85 1.786zM4.415 19.59l.141-.007c.22-.017.484-.066.763-.146a5.939 5.939 0 0 0 2.526-1.51c.769-.769 1.192-1.309 1.632-2.04l.589-1.024.273-.45c.753-1.203 1.724-2.412 3.371-4.1l-.018-.019c-1.9 1.853-3.193 2.851-4.551 3.645l-.771.44c-.867.499-1.438.926-2.293 1.78a5.94 5.94 0 0 0-1.509 2.526c-.08.28-.129.543-.146.763l-.007.142zm-1.184-1.64.07-.189A7.85 7.85 0 0 1 5.016 15.1c.866-.866 1.504-1.363 2.346-1.868l1.022-.587.415-.251c1.105-.693 2.229-1.595 3.832-3.159l-.012-.013-.19.167c-1.675 1.463-3.12 2.191-4.736 2.566l-.304.066-1.3.232c-.94.18-1.488.434-2.11 1.057-1.168 1.167-1.354 3.045-.748 4.64z" fill="#006C8E"/>
        <path d="m12.994 9.596 1.414 1.414 5.304-5.303a1 1 0 0 0 .077-1.327l-.077-.087a1 1 0 0 0-1.415 0l-5.303 5.303z" fill="#D3F4FF"/>
    </g>
</svg>
