<svg viewBox="0 0 24 24" xmlns="http://www.w3.org/2000/svg">
    <g fill="none">
        <path d="M0 0h24v24H0z"/>
        <path d="M5 20c-.55 0-1.02-.196-1.413-.587A1.926 1.926 0 0 1 3 18V5c0-.55.196-1.02.587-1.413A1.926 1.926 0 0 1 5 3h4.5a2.5 2.5 0 1 0 5 0H19c.55 0 1.02.196 1.413.587C20.803 3.98 21 4.45 21 5v4a2.5 2.5 0 1 0 0 5v4c0 .55-.196 1.02-.587 1.413A1.926 1.926 0 0 1 19 20h-4.5a2.5 2.5 0 1 1-5 0H5z" fill="#006C8E"/>
        <path d="M7.968 5H5.001L5 17.998l6.5.002v2a.5.5 0 1 0 1 0v-2h6.497L19 15.531l-.156-.08a4.5 4.5 0 0 1-2.34-3.74L16.5 11.5c0-1.704.947-3.187 2.344-3.95L19 7.467V5.002L16.031 5l-.08.156a4.5 4.5 0 0 1-3.74 2.34L12 7.5a4.499 4.499 0 0 1-3.95-2.344L7.967 5z" fill="#D3F4FF"/>
    </g>
</svg>
