<svg viewBox="0 0 24 24" xmlns="http://www.w3.org/2000/svg">
    <g fill="none">
        <path d="M0 0h24v24H0z"/>
        <path d="M20.5 3a2 2 0 0 1 2 2v14a2 2 0 0 1-2 2h-17a2 2 0 0 1-2-2V5a2 2 0 0 1 2-2h17z" fill="#006C8E"/>
        <path fill="#D3F4FF" d="M20.5 5.25h-17v14h17z"/>
        <path d="M18.503 14.823h-5.21v-1.128l2.4-2.523c.592-.673.887-1.208.887-1.605 0-.32-.07-.565-.21-.733-.14-.167-.344-.251-.61-.251a.76.76 0 0 0-.641.336c-.164.224-.246.503-.246.838H13.14a2.452 2.452 0 0 1 1.297-2.179 2.833 2.833 0 0 1 1.364-.328c.807 0 1.428.186 1.864.559.435.372.653.907.653 1.605 0 .294-.054.58-.164.858-.11.279-.28.571-.51.877-.23.306-.602.715-1.115 1.228l-.964 1.113h2.938v1.333zM6.42 8.35c.426 0 .785.102 1.078.305.293.203.537.533.732.99l.569 1.283 1.207-2.484h1.717l-2.11 4.3 1.108 2.479c.175.395.404.621.685.68l.188.023.193-.006-.146 1.342c-.114.027-.24.045-.381.053-.344.02-.624-.02-.841-.12-.217-.1-.426-.277-.627-.53-.201-.254-.427-.686-.677-1.295l-.375-.85-1.324 2.701H5.74l2.197-4.523L6.93 10.4c-.18-.45-.518-.674-1.014-.674l-.38.035L5.5 8.485c.309-.09.615-.135.92-.135z" fill="#006C8E"/>
    </g>
</svg>
