<svg viewBox="0 0 24 24" xmlns="http://www.w3.org/2000/svg">
    <g fill="none">
        <path d="M0 0h24v24H0z"/>
        <path d="M8.08 20.172v-4.25L18.427 5.6c.2-.2.425-.35.675-.45a1.975 1.975 0 0 1 1.512 0c.242.1.454.25.638.45l1.4 1.4c.2.183.35.396.45.638a1.975 1.975 0 0 1 0 1.512c-.1.25-.25.475-.45.675L12.33 20.172H8.08z" fill="#006C8E" fill-rule="evenodd"/>
        <path fill="#D3F4FF" fill-rule="evenodd" d="M10.08 18.172h1.4l6.997-6.972-.7-.725-.725-.7-6.972 6.997z"/>
        <path d="M4.869 7.005c2.73.083 4.881 1.091 4.881 3.245 0 1.75-1.06 2.655-3.617 3.161l-.695.131c-2.065.394-2.688.958-2.688 2.208 0 1.25.764 1.952 2.408 2.17.302.04.585.062.921.074v2.001c-.427-.013-.785-.04-1.183-.093C2.37 19.568.75 18 .75 15.75c0-2.177 1.326-3.53 4.037-4.116l1.152-.223c1.476-.298 1.811-.537 1.811-1.161C7.75 9.553 6.396 9 4.5 9l.369-1.995z" fill="#006C8E"/>
    </g>
</svg>
