<svg viewBox="0 0 24 24" xmlns="http://www.w3.org/2000/svg">
    <g fill="none">
        <path d="M0 0h24v24H0z"/>
        <path d="M12.516 20.044 8.503 16.03H4.508a1.92 1.92 0 0 1-1.406-.592 1.92 1.92 0 0 1-.592-1.406v-3.995c0-.542.2-1.013.601-1.414.4-.4.872-.601 1.414-.601h3.96l4.013-4.013.018 16.034zM14.46 3.25c2.062.46 3.748 1.503 5.056 3.129 1.308 1.626 1.962 3.5 1.962 5.621 0 2.122-.654 3.996-1.962 5.622-1.308 1.626-2.994 2.67-5.056 3.129V18.7c1.497-.437 2.705-1.274 3.624-2.51A6.85 6.85 0 0 0 19.463 12a6.85 6.85 0 0 0-1.379-4.19c-.92-1.238-2.127-2.074-3.624-2.51V3.25zm0 4.172a6.227 6.227 0 0 1 2.157 1.91 4.55 4.55 0 0 1 .848 2.686c0 .99-.283 1.88-.848 2.67a6.299 6.299 0 0 1-2.157 1.891v-2.404c.295-.295.536-.625.725-.99.188-.365.283-.749.283-1.15 0-.423-.092-.821-.274-1.192a3.814 3.814 0 0 0-.734-1.017V7.422z" fill="#006C8E"/>
        <path fill="#D3F4FF" d="M10.518 15.218v-6.4l-1.202 1.203H4.508v3.995h4.808z"/>
    </g>
</svg>
