<svg viewBox="0 0 24 24" xmlns="http://www.w3.org/2000/svg">
    <g fill="none">
        <path d="M0 0h24v24H0z"/>
        <path d="M21.5 6.829v11.173c0 .55-.196 1.021-.587 1.413a1.926 1.926 0 0 1-1.413.587H7.3l1.6 1.6-1.4 1.4-4-4 4-4 1.4 1.4-1.6 1.6h12.2V8.828l2-2zM16.5 1l4 4-4 4-1.4-1.4L16.7 6H4.5l-.001 9.175-2 2L2.5 6c0-.489.155-.915.464-1.279l.123-.133A1.926 1.926 0 0 1 4.5 4h12.2l-1.6-1.6L16.5 1z" fill="#006C8E"/>
        <path fill="#D3F4FF" d="m13.87 6-1.598 1.6 4.228 4.228 3-3V18h-9.37l1.598-1.598L7.5 12.174l-3 3V6z"/>
    </g>
</svg>
