<svg viewBox="0 0 24 24" xmlns="http://www.w3.org/2000/svg">
    <g fill="none">
        <path d="M0 0h24v24H0z"/>
        <path d="M4 17.7a1.948 1.948 0 0 1-1-1.725v-7.95A1.948 1.948 0 0 1 4 6.3l7-4.025c.317-.183.65-.275 1-.275s.683.092 1 .275L20 6.3a1.948 1.948 0 0 1 1 1.725v7.95a1.948 1.948 0 0 1-1 1.725l-7 4.025c-.317.183-.65.275-1 .275s-.683-.092-1-.275L4 17.7z" fill="#006C8E" fill-rule="evenodd"/>
        <path d="m5 9.1 6 3.475v6.85L5 15.95V9.1zm14 0v6.85l-6 3.475v-6.85L19 9.1zM12 4l5.925 3.425L12 10.85 6.075 7.425 12 4z" fill="#D3F4FF" fill-rule="evenodd"/>
    </g>
</svg>
