<svg viewBox="0 0 24 24" xmlns="http://www.w3.org/2000/svg">
    <g fill="none">
        <path d="M0 0h24v24H0z"/>
        <path d="M10.05 21.9a.91.91 0 0 0 .762.063c.259-.092.455-.263.588-.513l1.5-3a.91.91 0 0 0 .063-.762 1.043 1.043 0 0 0-.513-.588.91.91 0 0 0-.762-.063 1.043 1.043 0 0 0-.588.513l-1.5 3a.91.91 0 0 0-.063.762c.092.259.263.455.513.588zm-6 0a.91.91 0 0 0 .763.063c.258-.092.454-.263.587-.513l1.5-3a.91.91 0 0 0 .063-.762 1.043 1.043 0 0 0-.513-.588.91.91 0 0 0-.763-.063 1.043 1.043 0 0 0-.587.513l-1.5 3a.91.91 0 0 0-.063.762c.092.259.263.455.513.588zm12 0a.91.91 0 0 0 .762.063c.259-.092.455-.263.588-.513l1.5-3a.91.91 0 0 0 .063-.762 1.043 1.043 0 0 0-.513-.588.91.91 0 0 0-.762-.063 1.043 1.043 0 0 0-.588.513l-1.5 3a.91.91 0 0 0-.063.762c.092.259.263.455.513.588zm.45-5.9c1.517 0 2.813-.537 3.887-1.613C21.462 13.313 22 12.017 22 10.5c0-1.383-.458-2.592-1.375-3.625s-2.05-1.642-3.4-1.825a5.877 5.877 0 0 0-2.188-2.237A5.903 5.903 0 0 0 12 2c-1.5 0-2.804.48-3.912 1.438-1.109.958-1.78 2.154-2.013 3.587-1.15.1-2.117.575-2.9 1.425C2.392 9.3 2 10.317 2 11.5c0 1.25.438 2.313 1.313 3.188C4.186 15.562 5.25 16 6.5 16h10z" fill="#006C8E"/>
        <path d="M16.5 14h-10c-.7 0-1.292-.242-1.775-.725C4.242 12.792 4 12.2 4 11.5s.242-1.292.725-1.775C5.208 9.242 5.8 9 6.5 9H8V8c0-1.1.392-2.042 1.175-2.825C9.958 4.392 10.9 4 12 4c.8 0 1.53.217 2.188.65a4.062 4.062 0 0 1 1.487 1.75l.25.6h.625c.95.033 1.762.388 2.438 1.063A3.323 3.323 0 0 1 20 10.5c0 .967-.342 1.792-1.025 2.475A3.372 3.372 0 0 1 16.5 14z" fill="#D3F4FF"/>
    </g>
</svg>
