<?xml version="1.0" encoding="utf-8"?>
<!-- Generator: Adobe Illustrator 18.1.1, SVG Export Plug-In . SVG Version: 6.00 Build 0)  -->
<svg version="1.1" id="Layer_1" xmlns="http://www.w3.org/2000/svg" xmlns:xlink="http://www.w3.org/1999/xlink" x="0px" y="0px"
	 viewBox="0 0 20 20" enable-background="new 0 0 20 20" xml:space="preserve">
<g>
	<path fill="none" d="M5.5,11.1C6.2,10.7,7,10.5,8,10.5c0.9,0,1.8,0.2,3,0.6l0.7,0.2V12v0.3l2.9-2.9l-2.9-2.9v0.3v1h-1
		C9.1,7.7,6.6,8.2,5.5,11.1z"/>
	<path fill="none" d="M10,1c-5,0-9,4-9,9c0,5,4,9,9,9c5,0,9-4,9-9C19,5,15,1,10,1z M10.7,14.7V12c-1.1-0.4-2-0.5-2.7-0.5
		c-2,0-3,1.2-4,3.2c0-6.7,4-8,6.7-8V4L16,9.3L10.7,14.7z"/>
	<path fill="#102633" d="M10,0C4.5,0,0,4.5,0,10c0,5.5,4.5,10,10,10c5.5,0,10-4.5,10-10C20,4.5,15.5,0,10,0z M10,19c-5,0-9-4-9-9
		c0-5,4-9,9-9c5,0,9,4,9,9C19,15,15,19,10,19z"/>
	<path fill="#102633" d="M10.7,6.7C8,6.7,4,8,4,14.7c1-2,2-3.2,4-3.2c0.7,0,1.6,0.2,2.7,0.5v2.7L16,9.3L10.7,4V6.7z M11.7,6.7V6.4
		l2.9,2.9l-2.9,2.9V12v-0.7L11,11.1c-1.2-0.4-2.1-0.6-3-0.6c-1,0-1.8,0.2-2.4,0.7c1.1-2.9,3.5-3.5,5.1-3.5h1V6.7z"/>
</g>
</svg>
