<?xml version="1.0" encoding="utf-8"?>
<!-- Generator: Adobe Illustrator 18.1.1, SVG Export Plug-In . SVG Version: 6.00 Build 0)  -->
<svg version="1.1" id="Layer_1" xmlns="http://www.w3.org/2000/svg" xmlns:xlink="http://www.w3.org/1999/xlink" x="0px" y="0px"
	 viewBox="0 0 20 20" enable-background="new 0 0 20 20" xml:space="preserve">
<g>
	<path fill="none" d="M10,1c-5,0-9,4-9,9s4,9,9,9c5,0,9-4,9-9S15,1,10,1z M12,11.5c-0.7,0-1.6,0.2-2.7,0.5v2.7L4,9.3L9.3,4v2.7
		c2.7,0,6.7,1.3,6.7,8C15,12.7,14,11.5,12,11.5z"/>
	<path fill="none" d="M9.3,7.7h-1v-1V6.4L5.4,9.3l2.9,2.9V12v-0.7L9,11.1c1.2-0.4,2.1-0.6,3-0.6c1,0,1.8,0.2,2.4,0.7
		C13.4,8.2,10.9,7.7,9.3,7.7z"/>
	<path fill="#102633" d="M10,0C4.5,0,0,4.5,0,10c0,5.5,4.5,10,10,10c5.5,0,10-4.5,10-10C20,4.5,15.5,0,10,0z M10,19c-5,0-9-4-9-9
		s4-9,9-9c5,0,9,4,9,9S15,19,10,19z"/>
	<path fill="#102633" d="M9.3,6.7V4L4,9.3l5.3,5.3V12c1.1-0.4,2-0.5,2.7-0.5c2,0,3,1.2,4,3.2C16,8,12,6.7,9.3,6.7z M12,10.5
		c-0.9,0-1.8,0.2-3,0.6l-0.7,0.2V12v0.3L5.4,9.3l2.9-2.9v0.3v1h1c1.6,0,4.1,0.5,5.1,3.5C13.8,10.7,13,10.5,12,10.5z"/>
</g>
</svg>
