<?xml version="1.0" encoding="utf-8"?>
<!-- Generator: Adobe Illustrator 19.0.0, SVG Export Plug-In . SVG Version: 6.00 Build 0)  -->
<svg version="1.1" id="Layer_1" xmlns="http://www.w3.org/2000/svg" xmlns:xlink="http://www.w3.org/1999/xlink" x="0px" y="0px"
	 width="16px" height="20px" viewBox="0 0 16 20" enable-background="new 0 0 16 20" xml:space="preserve">
<g>
	<path fill="none" d="M13.1,12.5h0.7c0.4,0,0.7-0.3,0.7-0.7c0-0.4-0.3-0.7-0.7-0.7h-0.7c-0.4,0-0.7,0.3-0.7,0.7
		C12.4,12.2,12.7,12.5,13.1,12.5z"/>
	<path fill="none" d="M9.5,9.6h0.7c0.4,0,0.7-0.3,0.7-0.7c0-0.4-0.3-0.7-0.7-0.7H9.5c-0.4,0-0.7,0.3-0.7,0.7
		C8.7,9.3,9.1,9.6,9.5,9.6z"/>
	<path fill="none" d="M9.5,12.5h0.7c0.4,0,0.7-0.3,0.7-0.7c0-0.4-0.3-0.7-0.7-0.7H9.5c-0.4,0-0.7,0.3-0.7,0.7
		C8.7,12.2,9.1,12.5,9.5,12.5z"/>
	<path fill="none" d="M9.5,15.6h0.7c0.4,0,0.7-0.3,0.7-0.7c0-0.4-0.3-0.7-0.7-0.7H9.5c-0.4,0-0.7,0.3-0.7,0.7
		C8.7,15.2,9.1,15.6,9.5,15.6z"/>
	<path fill="none" d="M9.5,18.5h0.7c0.4,0,0.7-0.3,0.7-0.7c0-0.4-0.3-0.7-0.7-0.7H9.5c-0.4,0-0.7,0.3-0.7,0.7
		C8.7,18.2,9.1,18.5,9.5,18.5z"/>
	<path fill="none" d="M13.1,9.6h0.7c0.4,0,0.7-0.3,0.7-0.7c0-0.4-0.3-0.7-0.7-0.7h-0.7c-0.4,0-0.7,0.3-0.7,0.7
		C12.4,9.3,12.7,9.6,13.1,9.6z"/>
	<path fill="none" d="M5.8,9.6h0.7c0.4,0,0.7-0.3,0.7-0.7c0-0.4-0.3-0.7-0.7-0.7H5.8c-0.4,0-0.7,0.3-0.7,0.7
		C5.1,9.3,5.4,9.6,5.8,9.6z"/>
	<path fill="none" d="M13.1,18.5h0.7c0.4,0,0.7-0.3,0.7-0.7h-2.2C12.4,18.2,12.7,18.5,13.1,18.5z"/>
	<path fill="none" d="M13.8,14.1h-0.7c-0.4,0-0.7,0.3-0.7,0.7h2.2C14.5,14.4,14.2,14.1,13.8,14.1z"/>
	<path fill="none" d="M5.8,15.6h0.7c0.4,0,0.7-0.3,0.7-0.7c0-0.4-0.3-0.7-0.7-0.7H5.8c-0.4,0-0.7,0.3-0.7,0.7
		C5.1,15.2,5.4,15.6,5.8,15.6z"/>
	<path fill="none" d="M2.2,15.6h0.7c0.4,0,0.7-0.3,0.7-0.7c0-0.4-0.3-0.7-0.7-0.7H2.2c-0.4,0-0.7,0.3-0.7,0.7
		C1.5,15.2,1.8,15.6,2.2,15.6z"/>
	<rect x="1.5" y="1.5" fill="none" width="13.1" height="3"/>
	<path fill="none" d="M2.2,18.5h0.7c0.4,0,0.7-0.3,0.7-0.7c0-0.4-0.3-0.7-0.7-0.7H2.2c-0.4,0-0.7,0.3-0.7,0.7
		C1.5,18.2,1.8,18.5,2.2,18.5z"/>
	<path fill="none" d="M2.2,12.5h0.7c0.4,0,0.7-0.3,0.7-0.7c0-0.4-0.3-0.7-0.7-0.7H2.2c-0.4,0-0.7,0.3-0.7,0.7
		C1.5,12.2,1.8,12.5,2.2,12.5z"/>
	<path fill="none" d="M5.8,18.5h0.7c0.4,0,0.7-0.3,0.7-0.7c0-0.4-0.3-0.7-0.7-0.7H5.8c-0.4,0-0.7,0.3-0.7,0.7
		C5.1,18.2,5.4,18.5,5.8,18.5z"/>
	<path fill="none" d="M2.2,9.6h0.7c0.4,0,0.7-0.3,0.7-0.7c0-0.4-0.3-0.7-0.7-0.7H2.2c-0.4,0-0.7,0.3-0.7,0.7
		C1.5,9.3,1.8,9.6,2.2,9.6z"/>
	<path fill="none" d="M5.8,12.5h0.7c0.4,0,0.7-0.3,0.7-0.7c0-0.4-0.3-0.7-0.7-0.7H5.8c-0.4,0-0.7,0.3-0.7,0.7
		C5.1,12.2,5.4,12.5,5.8,12.5z"/>
	<path fill="#102633" d="M0,17.8C0,19,1,20,2.2,20h11.6c1.2,0,2.2-1,2.2-2.2V6.7H0V17.8z M14.5,17.8c0,0.4-0.3,0.7-0.7,0.7h-0.7
		c-0.4,0-0.7-0.3-0.7-0.7v-3c0-0.4,0.3-0.7,0.7-0.7h0.7c0.4,0,0.7,0.3,0.7,0.7V17.8z M13.1,8.1h0.7c0.4,0,0.7,0.3,0.7,0.7
		c0,0.4-0.3,0.7-0.7,0.7h-0.7c-0.4,0-0.7-0.3-0.7-0.7C12.4,8.5,12.7,8.1,13.1,8.1z M13.1,11h0.7c0.4,0,0.7,0.3,0.7,0.7
		c0,0.4-0.3,0.7-0.7,0.7h-0.7c-0.4,0-0.7-0.3-0.7-0.7C12.4,11.4,12.7,11,13.1,11z M9.5,8.1h0.7c0.4,0,0.7,0.3,0.7,0.7
		c0,0.4-0.3,0.7-0.7,0.7H9.5c-0.4,0-0.7-0.3-0.7-0.7C8.7,8.5,9.1,8.1,9.5,8.1z M9.5,11h0.7c0.4,0,0.7,0.3,0.7,0.7
		c0,0.4-0.3,0.7-0.7,0.7H9.5c-0.4,0-0.7-0.3-0.7-0.7C8.7,11.4,9.1,11,9.5,11z M9.5,14.1h0.7c0.4,0,0.7,0.3,0.7,0.7
		c0,0.4-0.3,0.7-0.7,0.7H9.5c-0.4,0-0.7-0.3-0.7-0.7C8.7,14.4,9.1,14.1,9.5,14.1z M9.5,17h0.7c0.4,0,0.7,0.3,0.7,0.7
		c0,0.4-0.3,0.7-0.7,0.7H9.5c-0.4,0-0.7-0.3-0.7-0.7C8.7,17.4,9.1,17,9.5,17z M5.8,8.1h0.7c0.4,0,0.7,0.3,0.7,0.7
		c0,0.4-0.3,0.7-0.7,0.7H5.8c-0.4,0-0.7-0.3-0.7-0.7C5.1,8.5,5.4,8.1,5.8,8.1z M5.8,11h0.7c0.4,0,0.7,0.3,0.7,0.7
		c0,0.4-0.3,0.7-0.7,0.7H5.8c-0.4,0-0.7-0.3-0.7-0.7C5.1,11.4,5.4,11,5.8,11z M5.8,14.1h0.7c0.4,0,0.7,0.3,0.7,0.7
		c0,0.4-0.3,0.7-0.7,0.7H5.8c-0.4,0-0.7-0.3-0.7-0.7C5.1,14.4,5.4,14.1,5.8,14.1z M5.8,17h0.7c0.4,0,0.7,0.3,0.7,0.7
		c0,0.4-0.3,0.7-0.7,0.7H5.8c-0.4,0-0.7-0.3-0.7-0.7C5.1,17.4,5.4,17,5.8,17z M2.2,8.1h0.7c0.4,0,0.7,0.3,0.7,0.7
		c0,0.4-0.3,0.7-0.7,0.7H2.2c-0.4,0-0.7-0.3-0.7-0.7C1.5,8.5,1.8,8.1,2.2,8.1z M2.2,11h0.7c0.4,0,0.7,0.3,0.7,0.7
		c0,0.4-0.3,0.7-0.7,0.7H2.2c-0.4,0-0.7-0.3-0.7-0.7C1.5,11.4,1.8,11,2.2,11z M2.2,14.1h0.7c0.4,0,0.7,0.3,0.7,0.7
		c0,0.4-0.3,0.7-0.7,0.7H2.2c-0.4,0-0.7-0.3-0.7-0.7C1.5,14.4,1.8,14.1,2.2,14.1z M2.2,17h0.7c0.4,0,0.7,0.3,0.7,0.7
		c0,0.4-0.3,0.7-0.7,0.7H2.2c-0.4,0-0.7-0.3-0.7-0.7C1.5,17.4,1.8,17,2.2,17z"/>
	<path fill="#102633" d="M13.8,0H2.2C1,0,0,1,0,2.2v3.7h16V2.2C16,1,15,0,13.8,0z M14.5,4.4H1.5v-3h13.1V4.4z"/>
</g>
</svg>
