<?xml version="1.0" encoding="utf-8"?>
<svg version="1.1" id="Layer_2" x="0px" y="0px" width="32px" height="32px" viewBox="0 0 32 32" enable-background="new 0 0 22 20" xmlns="http://www.w3.org/2000/svg" xmlns:bx="https://boxy-svg.com">
  <path d="M 0.015 15.978 L 0.036 31.963 L 32 32 L 32 30.426 L 31.271 30.426 L 31.271 16.412 L 24.784 16.412 L 24.784 30.426 L 23.909 30.426 L 23.909 12.215 L 17.421 12.215 L 17.421 30.426 L 16.547 30.426 L 16.547 3.672 L 10.059 3.672 L 10.059 30.426 L 9.185 30.426 L 9.185 11.166 L 2.697 11.166 L 2.697 30.426 L 1.531 30.426 L 1.531 0 L 0 0 L 0.015 15.978 Z M 15.818 6.408 L 15.818 8.393 L 10.788 8.393 L 10.788 4.422 L 15.818 4.422 L 15.818 6.408 Z M 8.456 15.813 L 8.456 19.635 L 3.426 19.635 L 3.426 11.991 L 8.456 11.991 L 8.456 15.813 Z M 23.18 17.836 L 23.18 22.707 L 18.15 22.707 L 18.15 12.965 L 23.18 12.965 L 23.18 17.836 Z M 30.542 19.11 L 30.542 20.984 L 25.513 20.984 L 25.513 17.237 L 30.542 17.237 L 30.542 19.11 Z" style="fill: rgb(255, 255, 255);" bx:origin="-0.5 -0.5"/>
</svg>