<?xml version="1.0" encoding="utf-8"?>
<!-- Generator: Adobe Illustrator 19.0.0, SVG Export Plug-In . SVG Version: 6.00 Build 0)  -->
<svg version="1.1" id="Layer_1" xmlns="http://www.w3.org/2000/svg" xmlns:xlink="http://www.w3.org/1999/xlink" x="0px" y="0px"
	 width="32px" height="34px" viewBox="-583 1484 32 34" enable-background="new -583 1484 32 34" xml:space="preserve">
<g>
	<path d="M-559.5,1513.8h-2.1v-17h-4.3v17h-2.1v-17h-4.3v17h-2.2v-17h-4.2v20.2c0,0.6,0.5,1.1,1.1,1.1h21.3c0.6,0,1.1-0.5,1.1-1.1
		v-20.2h-4.3V1513.8z" fill="#FFFFFF"/>
	<path d="M-553.1,1488.3h-8.5v-3.2c0-0.6-0.5-1.1-1.1-1.1h-8.5c-0.6,0-1.1,0.5-1.1,1.1v3.2h-8.6c-1.1,0-2.1,0.9-2.1,2.1v2.1
		c0,1.2,1,2.1,2.1,2.1h27.7c1.2,0,2.1-1,2.1-2.1v-2.1C-551,1489.2-552,1488.3-553.1,1488.3z M-563.8,1488.3h-6.4v-2.2h6.4V1488.3z"
		 fill="#FFFFFF"/>
</g>
</svg>
