<?xml version="1.0" encoding="utf-8"?>
<!-- Generator: Adobe Illustrator 18.1.1, SVG Export Plug-In . SVG Version: 6.00 Build 0)  -->
<svg version="1.1" id="Layer_2" xmlns="http://www.w3.org/2000/svg" xmlns:xlink="http://www.w3.org/1999/xlink" x="0px" y="0px"
	 width="22px" height="20px" viewBox="0 0 22 20" enable-background="new 0 0 22 20" xml:space="preserve">
<path d="M42.4 417.6l0.6-426.6 877-1v42h-20v374h-178v-374h-24v486h-178v-486h-24v714h-178v-714h-24v514h-178v-514h-32v812h-42l0.4-426.4zM476 673v-53h-138v106h138v-53zM274 422v-102h-138v204h138v-102zM678 368v-130h-138v260h138v-130zM880 334v-50h-138v100h138v-50z"/>
</svg>
