<?xml version="1.0" encoding="utf-8"?>
<!-- Generator: Adobe Illustrator 18.1.1, SVG Export Plug-In . SVG Version: 6.00 Build 0)  -->
<svg version="1.1" id="Layer_1" xmlns="http://www.w3.org/2000/svg" xmlns:xlink="http://www.w3.org/1999/xlink" x="0px" y="0px"
	 viewBox="0 0 20 20" enable-background="new 0 0 20 20" xml:space="preserve">
<g id="Globe">
	<g>
		<path fill="#102633" d="M10,19.5c-4.4,0-8-2.9-9.2-6.9l1.1-0.5c0,0.1,0,0.2,0,0.3c0.1,0.5,0.2,1.2,0.4,1.5
			c0.1,0.1,0.2,0.3,1.2,0.7c0,0,0.1,0.1,0.2,0.2c0,0.3,0.2,0.6,0.4,0.9c0.1,0.1,0.2,0.2,0.3,0.4c0.1,0.1,0.4,0.4,0.4,0.5
			c0,0.4,0.1,0.6,0.2,0.7c0,0,0.1,0.1,0.1,0.1c0.3,0.7,0.9,0.8,1.2,0.9l0.4,0.1l0.1-0.4c0.5-1.3,0.3-1.6,0.2-1.8
			C7,16,6.9,15.8,6.8,15.6l0-0.5c0-0.1,0.1-0.2,0.2-0.2c0.3-0.2,0.4-0.4,0.6-0.8c0.3-0.6,0.5-1,0.5-1.2c0,0,0-0.1,0.1-0.1
			c0.2-0.3,0.6-1,0.1-1.6c-0.4-0.4-0.9-0.5-1.3-0.6c-0.1,0-0.2,0-0.2,0l-0.2-0.1c-0.1,0-0.4-0.1-0.6-0.2l4.8-2.1
			c0,0,0.1,0.4,0.1,0.4l0.2,0.1c0.1,0,0.6,0.2,1.1,0.2c0.4,0,0.7-0.1,0.9-0.2c0.3-0.2,0.5-0.4,0.7-0.6l0.8,0.9l0.1,0
			C14.9,9,15,9,15.2,9c0.1,0,0.2,0,0.3-0.1l0,0.1c0,0.1-0.1,0.3-0.3,0.3c-0.1,0-0.4,0-0.9-0.4l-0.1-0.1l-0.1,0c0,0-0.8-0.1-1.6-0.1
			c-1.4,0-1.7,0.5-1.7,1c0,0.3,0,0.4-0.1,0.5c-0.1,0.2-0.1,0.5-0.1,1.1c-0.1,0.4-0.3,1.8,0.3,2.5c0.2,0.3,0.6,0.4,0.9,0.4l0.1,0
			c0.8-0.1,1-0.1,1.3-0.2c0.2,0,0.4-0.1,0.8-0.2l0.1,0l0,0c0.2-0.1,0.3-0.1,0.3-0.1c0,0,0,0,0,0c0,0,0.1,0.2,0.1,0.3l-0.1,1.2
			l-0.1,0.6c-0.1,0.3-0.2,0.9,0.4,1.4l0.3,0.3l0.3-0.3c0.1-0.1,3.3-2.6,3.6-6.5l0-0.6l-0.6,0c-0.2,0-0.3-0.2-0.4-0.3l0,0l0.6,0.3
			L19,9.8c0.5-0.8-0.6-3.9-1.1-4.8c-0.1-0.3-0.2-0.5-0.3-0.6l-0.7-1.3c1.7,1.7,2.7,4.1,2.7,6.8C19.5,15.2,15.2,19.5,10,19.5z
			 M0.8,12.4c-0.2-0.8-0.3-1.6-0.3-2.4c0-5.2,4.3-9.5,9.5-9.5c2.5,0,4.6,0.8,6.3,2.3l0.4,1.7l-0.9,0.5c-0.1,0-0.2,0-0.3,0.1
			c-0.2,0.1-0.3,0.2-0.3,0.2l-0.4,0.2c-0.1,0-0.3-0.1-0.4-0.3c-0.1-0.1-0.1-0.1-0.2-0.2c0,0,0.2,0,0.2,0c0.3,0,1.3-0.1,1.7-1.7
			l0.1-0.3L16,2.9c-0.5-0.5-1.3-1.1-1.8-1.1h-0.1l-0.2,0.1L13.7,2l-0.1,1l-0.4,0.8l0,0.1c-0.1,0.4,0.1,0.6,0.2,0.8
			c0,0.1,0.1,0.1,0.2,0.1c-0.2,0-0.3,0.1-0.4,0.2c0-0.1-0.1-0.2-0.2-0.3c-0.1-0.1-0.1-0.1-0.1-0.1c0,0,0-0.1,0-0.1
			c0-0.1,0-0.2,0.1-0.3c0.1-0.3,0.2-0.6,0-0.8l-0.2-0.2l-0.3,0h-0.1l-0.1,0c-0.3,0.1-0.6,0.2-0.8,0.6c0,0.1-0.1,0.2-0.1,0.3
			c-0.1,0-0.1,0-0.2,0L11,4l-0.1,0c-0.2,0-0.5,0.2-0.6,0.5c-0.1,0.2-0.1,0.4,0.1,0.6c0.2,0.3,0.6,0.6,1,0.6c0.2,0,0.4-0.1,0.5-0.3
			c0.1,0,0.2,0.1,0.4,0.1c0,0,0,0,0,0C12,5.9,12,6.1,12,6.3l-0.5,0l-0.1,0.1C11,6.6,10.8,7,10.8,7.4l-5,2.5C5.6,9.8,5.4,9.6,5,9.6
			c-0.3,0-0.6,0.1-0.9,0.2C4,9.9,3.7,10,3.5,10C3.5,9.9,3.4,9.8,3.3,9.7c0.1-0.1,0.2-0.2,0.2-0.4c0.1-0.3,0-0.5-0.1-0.7c0,0,0,0,0,0
			c0.1,0,0.2,0,0.3,0c0.2,0,0.4,0,0.6-0.1c0.2,0.5,0.6,1.1,1,1.1h0.5l0-0.5c0,0,0-0.1,0-0.2c0.1-0.4,0.1-0.7,0-1
			c0.3-0.1,0.6-0.3,0.8-0.6C6.8,7,6.8,6.8,6.9,6.6c0.1,0,0.1,0,0.2,0c0.1,0,0.4,0,0.6-0.4c0-0.1,0.1-0.2,0.2-0.3
			c0.3-0.3,0.5-0.6,0.5-1C8.4,5,8.6,5,8.7,5c0.3,0,0.5-0.1,0.6-0.4c0.2-0.3,0.3-0.8,0.2-1.2c0,0,0.1-0.1,0.1-0.2
			c0.2-0.3,0.5-0.6,0.5-1c0.2-0.1,0.5-0.2,0.7-0.5L11,1.5l-0.1-0.3c-0.1-0.1-0.2-0.4-1.4-0.4c-0.5,0-1.8,0.1-2.5,0.8L6.7,1.8
			c0,0,0,0.5,0,0.6c0,0.3,0.1,0.7,0.3,1c-0.1,0-0.1,0-0.2,0L6.4,1.7L5.9,1.9c-0.1,0-3,1.1-4.8,5.3l0,0.1v0.1c0,0.1,0,0.3,0.1,0.4
			c0,0.1,0,0.3,0,0.3c-0.1,0.3-0.1,0.5,0,0.8c0.1,0.3,0.3,0.7,0.4,0.9l0.3,0.4c0,0.2,0.1,0.5,0.2,0.7l0,0l-0.1,0.2
			c0,0.1-0.1,0.4-0.1,0.7L0.8,12.4z M15.8,8.7c0.2-0.3,0.3-0.6,0.3-0.7l0-0.2c0,0-0.1-0.2-0.2-0.3l0.4,0.2l0.5,0.6l0,0.1L15.8,8.7z"
			/>
	</g>
	<g>
		<path fill="#102633" d="M11.3,1.1c0.7,0.1,1.4,0.3,2,0.5l-0.1,0.1l-0.1,0.5L13,2.8l0,0c-0.2-0.1-0.4-0.2-0.6-0.2c0,0,0,0,0,0
			l-0.2,0L12,2.7c-0.3,0.1-0.8,0.3-1,0.8l0,0l-0.2,0.1c-0.2,0-0.5,0.2-0.7,0.4c0-0.1,0-0.2,0-0.3c0,0,0,0,0,0
			c0.2-0.2,0.4-0.6,0.6-0.9C10.8,2.6,11,2.4,11.3,2l0.3-0.5L11.3,1.1 M16.5,3.7c0.1,0.1,0.2,0.2,0.2,0.2c-0.1,0-0.1,0-0.2,0.1
			l-0.2,0.1C16.4,4,16.5,3.8,16.5,3.7 M9.7,5c0,0.1,0.1,0.3,0.2,0.4c0.2,0.3,0.6,0.6,1,0.8c-0.3,0.3-0.4,0.6-0.5,0.9l-4,2
			c0,0,0,0,0,0c0-0.2,0.1-0.5,0.1-0.8c0.3-0.2,0.5-0.4,0.7-0.7c0.1-0.1,0.1-0.3,0.2-0.4C7.6,7,7.9,6.8,8.1,6.5
			c0-0.1,0.1-0.1,0.2-0.2c0.2-0.2,0.4-0.4,0.5-0.7C9.1,5.5,9.5,5.3,9.7,5 M10.5,8.8L10.5,8.8c-0.3,0.3-0.3,0.7-0.3,0.9
			c0,0.2,0,0.3,0,0.4c-0.1,0.3-0.1,0.5-0.1,1.1c-0.1,0.6-0.3,2,0.4,2.8c0.3,0.4,0.8,0.6,1.3,0.6c0,0,0.1,0,0.1,0
			c0.9-0.1,1-0.1,1.5-0.2c0.1,0,0.3-0.1,0.7-0.2l0,0.7l-0.1,0.5c-0.2,0.5-0.2,1.2,0.5,1.9l0.2,0.2C13.3,18.5,11.7,19,10,19
			c-1,0-1.9-0.2-2.8-0.5l0.2-0.4c0.5-1.4,0.4-1.9,0.2-2.2c0-0.1-0.1-0.2-0.2-0.4l0-0.3c0.4-0.3,0.5-0.6,0.8-1c0.3-0.6,0.5-1,0.5-1.2
			c0,0,0-0.1,0-0.1c0.2-0.3,0.8-1.4,0-2.2c-0.3-0.3-0.7-0.5-1.1-0.6L10.5,8.8 M1,9.8c0.1,0.1,0.1,0.2,0.2,0.3l0,0.1l0,0l0.2,0.2
			c0,0.1,0.1,0.3,0.1,0.5l0,0.2c0,0.1-0.1,0.3-0.1,0.5l-0.3,0.2C1.1,11.1,1,10.6,1,10C1,9.9,1,9.9,1,9.8 M2.2,14.4
			c0.2,0.1,0.5,0.3,1.1,0.6c0,0,0,0,0,0c0.1,0.3,0.2,0.6,0.4,0.9c0.1,0.2,0.2,0.3,0.4,0.5c0.1,0.1,0.2,0.2,0.2,0.3
			c0,0.1,0,0.2,0,0.3C3.5,16.3,2.7,15.4,2.2,14.4 M10,0C4.5,0,0,4.5,0,10c0,5.5,4.5,10,10,10s10-4.5,10-10C20,4.5,15.9,0,10,0L10,0z
			 M8.7,4.5c-0.1,0-0.2-0.1-0.3-0.2c-0.6-0.7-1.2-1.5-1.2-2c0-0.1,0-0.2,0-0.4c0.5-0.5,1.5-0.7,2.2-0.7c0.5,0,0.9,0.1,1,0.2
			C10.1,2,9.7,1.8,9.7,2.3c0,0.4-0.8,1-0.7,1.2C9.1,3.6,9,4.5,8.7,4.5L8.7,4.5z M14.3,4.5C14.3,4.5,14.3,4.5,14.3,4.5
			c-0.1,0-0.8,0-0.7-0.6L14,3.1c0,0,0.1-0.4,0.1-0.8c0,0,0,0,0.1,0c0.2,0,0.9,0.4,1.4,0.9C15.3,4.4,14.6,4.5,14.3,4.5L14.3,4.5z
			 M6.4,17.8c-0.4-0.1-0.7-0.2-0.8-0.5c-0.1-0.4-0.3-0.3-0.3-0.7c0-0.4-0.6-0.9-0.8-1.1c-0.1-0.2-0.3-0.5-0.3-0.8
			c0-0.2-0.5-0.5-0.5-0.5s-0.9-0.4-1-0.6c-0.1-0.2-0.3-0.9-0.3-1.2c0-0.3,0.1-1.1,0.1-1.1s0.4-0.3,0.1-0.5c-0.2-0.2-0.3-0.8-0.3-0.8
			L2,9.5c0,0-0.3-0.4-0.4-0.7c0-0.2,0-0.4,0-0.6c0-0.2-0.1-0.6-0.1-0.8c1.7-4.1,4.5-5,4.5-5l0.2,0.9c0,0-0.3,0.1-0.5,0.1
			c-0.1,0-0.2,0-0.2,0C5.3,3.3,5.1,3.3,5.1,3.3L4.8,3.7c0,0-0.1,0.3-0.2,0.5c0,0.2,0.1,0.4,0.1,0.4s0.1,0,0.2,0c0.2,0,0.5,0,0.5-0.1
			c0-0.2-0.1-0.3-0.1-0.3L5.1,4c0,0,0.3-0.2,1-0.2c0.1,0,0.3,0,0.5,0c1.1,0.1,0.7,0.8,1.1,1C8.2,5,7.3,5.7,7.2,6
			c0,0.1-0.1,0.1-0.1,0.1c-0.2,0-0.3-0.5-0.3-0.5S7,5.3,6.5,5.2c0,0-0.1,0-0.1,0C6.1,5.2,6,5.6,6.2,5.6c0,0,0,0,0,0c0,0,0,0,0,0
			c0.2,0,0.2,0.3,0.2,0.5c0,0.2,0,0.5-0.3,1C6,7.6,5.1,7.6,5.1,7.6s0.1,0.2,0.3,0.5c0.1,0.3,0,0.9,0,1.1c0,0,0,0,0,0
			c-0.1,0-0.5-0.4-0.6-0.8C4.7,8.1,4.6,8.1,4.4,8.1c-0.1,0-0.2,0-0.3,0.1c-0.1,0-0.3,0.1-0.5,0.1c-0.1,0-0.3,0-0.3-0.1
			c0,0,0,0-0.1,0C3,8,2.4,8.5,2.2,8.6C2,8.7,2.1,9,2.3,9c0,0,0.1,0,0.2,0c0.1-0.1,0.2-0.1,0.3-0.1C3,8.9,3.1,9,3,9.3
			C2.9,9.6,2.6,9.4,2.6,9.6c0,0.2,0.4,0.4,0.5,0.8c0,0.1,0.1,0.1,0.3,0.1c0.3,0,0.7-0.1,0.9-0.2c0.1-0.1,0.4-0.1,0.7-0.1
			c0.2,0,0.4,0.1,0.5,0.2c0.1,0.4,0.9,0.5,1.2,0.6C7,11,7.6,11.1,8,11.4c0.4,0.4-0.3,1-0.3,1.2c0,0.2-0.3,0.8-0.5,1.1
			c-0.2,0.4-0.3,0.5-0.5,0.7S6.3,15,6.3,15l0,0.8c0,0,0.2,0.5,0.4,0.7C6.8,16.7,6.4,17.8,6.4,17.8L6.4,17.8z M12.5,5.2
			c-0.2,0-0.6-0.1-0.8-0.2C11.5,4.8,11.8,4,11.8,4c0.1-0.2,0.3-0.3,0.5-0.4c0,0,0,0,0,0c0.1,0,0,0.4-0.1,0.7c0,0.3-0.1,0.4,0.2,0.7
			C12.7,5.1,12.6,5.2,12.5,5.2L12.5,5.2z M11.2,5.3c-0.1,0-0.4-0.2-0.5-0.4C10.6,4.7,11,4.5,11,4.5C11.6,4.7,11.4,5,11.2,5.3
			C11.3,5.3,11.3,5.3,11.2,5.3L11.2,5.3z M17,4.9c0,0,0.1,0,0.1,0c0.1,0,0.2,0.2,0.3,0.4c0.6,1,1.5,3.8,1.2,4.3
			c-0.2-0.1-0.4-0.2-0.4-0.2H17l0.7,0.8c0,0,0.3,0.5,0.8,0.5c0,0,0,0,0,0c-0.3,3.7-3.4,6.1-3.4,6.1c-0.5-0.5-0.2-0.9-0.2-0.9
			l0.1-0.7l0.1-1.2c0,0,0-0.8-0.6-0.8c-0.1,0-0.3,0-0.6,0.2c-1.3,0.3-0.7,0.3-2,0.4c0,0,0,0-0.1,0c-1.2,0-0.7-2.4-0.7-2.4
			c-0.1-1.1,0.1-0.8,0.1-1.6c0-0.4,0.6-0.5,1.2-0.5c0.7,0,1.5,0.1,1.5,0.1c0.5,0.3,0.9,0.5,1.2,0.5c0.7,0,0.8-0.7,0.8-0.7l1.3-0.5
			l0.1-0.6l-0.7-0.8l-1.1-0.5c0,0-0.5,0.3,0,1.1c0,0-0.1,0.7-0.4,0.7c0,0-0.1,0-0.1,0l-1.1-1.4c0,0-0.4,0.6-1,1
			c-0.2,0.1-0.4,0.2-0.7,0.2c-0.5,0-0.9-0.2-0.9-0.2s-0.3-1,0.3-1.3l0.9,0.1c0,0-0.1-0.6,0-1.1c0.1-0.2,0.1-0.3,0.3-0.3
			c0,0,0,0,0.1,0c0.1,0,0.3,0,0.5-0.2c0.1-0.1,0.1-0.1,0.2-0.1c0.4,0,0.7,0.7,1.2,0.7c0,0,0.1,0,0.1,0c0.7-0.1,0.4-0.2,0.8-0.5
			c0.1,0,0.1,0,0.2,0c0.4,0,0.6,0.5,0.6,0.5l1,0.1c0,0,0-0.5-0.1-0.8C17.3,5,17.1,4.9,17,4.9C17,4.9,17,4.9,17,4.9L17,4.9z"/>
	</g>
</g>
</svg>
