<?xml version="1.0" encoding="utf-8"?>
<!-- Generator: Adobe Illustrator 18.1.1, SVG Export Plug-In . SVG Version: 6.00 Build 0)  -->
<svg version="1.1" id="Layer_1" xmlns="http://www.w3.org/2000/svg" xmlns:xlink="http://www.w3.org/1999/xlink" x="0px" y="0px"
	 viewBox="0 0 32 33.4" enable-background="new 0 0 32 33.4" xml:space="preserve">
<g id="Ruler_2">
	<path fill="#FFFFFF" d="M31.5,7.1l-7-6.7c-0.6-0.6-1.6-0.6-2.3,0.1l-1.1,1.2l1.2,1.1L21.2,4L20,2.9L19,4l2.4,2.2l-1.1,1.2l-2.3-2.3
		l-1.1,1.2l1.2,1.1l-1.1,1.2l-1.2-1.1l-1.1,1.2L17,11l-1.2,1.3l-2.3-2.3l-1.1,1.2l1.2,1.1l-1.1,1.2l-1.2-1.1l-1.1,1.1l2.3,2.2
		l-1.1,1.2l-2.3-2.2l-1.1,1.1l1.2,1.1l-1.1,1.2L7,17l-1.1,1.1l2.4,2.2l-1.1,1.2l-2.3-2.2l-1.1,1.1l1.1,1.1l-1.1,1.2l-1.1-1.1
		l-1.1,1.2l2.4,2.2l-1.1,1.2L0.4,24c0,0-1,1.2,0.1,2.3l7,6.7c0.6,0.6,1.6,0.6,2.3-0.1L31.6,9.4C32.2,8.7,32.1,7.7,31.5,7.1z"/>
</g>
</svg>
