<?xml version="1.0" encoding="utf-8"?>
<!-- Generator: Adobe Illustrator 18.1.1, SVG Export Plug-In . SVG Version: 6.00 Build 0)  -->
<svg version="1.1" id="Layer_1" xmlns="http://www.w3.org/2000/svg" xmlns:xlink="http://www.w3.org/1999/xlink" x="0px" y="0px"
	 viewBox="0 0 10.8 6.9" enable-background="new 0 0 10.8 6.9" xml:space="preserve">
<path d="M0.1,5.7l1.1,1.1c0.1,0.1,0.2,0.1,0.3,0.1c0.1,0,0.2,0,0.3-0.1l3.6-3.6L9,6.8C9,6.9,9.1,6.9,9.3,6.9c0.1,0,0.2,0,0.3-0.1
	l1.1-1.1c0.1-0.1,0.1-0.2,0.1-0.3s0-0.2-0.1-0.3l-5-5C5.6,0,5.5,0,5.4,0C5.3,0,5.2,0,5.1,0.1l-5,5C0,5.2,0,5.3,0,5.4S0,5.6,0.1,5.7
	L0.1,5.7z"/>
</svg>
